<svg width="67" height="19" viewBox="0 0 67 19" fill="none" xmlns="http://www.w3.org/2000/svg">
<g opacity="0.7" clip-path="url(#clip0_256_16667)">
<path fill-rule="evenodd" clip-rule="evenodd" d="M27.2208 14.1705C28.0443 14.1705 28.6855 13.9862 29.1444 13.6174C29.3738 13.4291 29.5554 13.1912 29.6749 12.9224C29.7944 12.6535 29.8484 12.3612 29.8328 12.0683V7.44848C29.8483 7.15736 29.7945 6.86671 29.6756 6.59946C29.5568 6.33221 29.3762 6.09569 29.148 5.90858C28.6912 5.54244 28.0488 5.35938 27.2208 5.35938H24.6306C23.817 5.35938 23.182 5.53964 22.7257 5.90016C22.2695 6.26068 22.0413 6.77703 22.041 7.44919V12.0691C22.041 12.7412 22.2705 13.2596 22.7294 13.6242C23.1883 13.9888 23.8221 14.1711 24.6306 14.1713H27.2208V14.1705ZM23.4928 7.46676C23.4928 6.79854 23.8946 6.46448 24.6983 6.4646H27.1614C27.9649 6.4646 28.3667 6.79866 28.3667 7.46676V12.0554C28.3667 12.7234 27.9649 13.0575 27.1614 13.0576H24.6976C23.894 13.0576 23.4922 12.7235 23.4921 12.0554V7.46676H23.4928ZM31.2957 13.2598C31.2957 13.8261 31.6157 14.1092 32.2556 14.1092H35.7602C36.1823 14.122 36.6011 14.0339 36.9806 13.8526C37.3131 13.6813 37.4793 13.4755 37.4793 13.2352C37.4793 13.0764 37.3676 12.997 37.1443 12.997H33.7728C33.3704 12.997 33.0951 12.9308 32.9469 12.7984C32.7987 12.666 32.7242 12.439 32.7235 12.1173V6.12243C32.7235 5.64994 32.5499 5.41369 32.2027 5.41369C32.0817 5.42159 31.9639 5.45553 31.8578 5.5131C31.7517 5.57066 31.6598 5.65043 31.5888 5.74673C31.3868 5.98562 31.2822 6.28926 31.295 6.59921V13.26L31.2957 13.2598ZM42.7668 6.52555C43.1888 6.53841 43.6077 6.45037 43.9872 6.26905C44.3197 6.09781 44.4859 5.89616 44.4859 5.66409C44.4859 5.4968 44.3742 5.41315 44.1509 5.41315H39.1125C38.4726 5.41315 38.1527 5.6963 38.1527 6.26259V13.2594C38.1527 13.8257 38.4726 14.1089 39.1125 14.1089H42.7811C43.2034 14.1207 43.6222 14.0315 44.0015 13.8491C44.3386 13.676 44.5072 13.4712 44.5075 13.2349C44.5075 13.0761 44.3933 12.9967 44.165 12.9967H40.63C40.2282 12.9967 39.9529 12.9305 39.804 12.7981C39.7207 12.7059 39.6578 12.5977 39.6194 12.4805C39.581 12.3632 39.5678 12.2394 39.5808 12.1169V11.0415C39.5681 10.9199 39.5814 10.7971 39.6198 10.6808C39.6583 10.5646 39.721 10.4574 39.804 10.3662C39.9529 10.234 40.2282 10.1678 40.63 10.1676H42.2819C42.6292 10.1796 42.9724 10.0902 43.2679 9.91095C43.3833 9.8509 43.4807 9.76238 43.5505 9.65415C43.6203 9.54592 43.6601 9.42172 43.666 9.29381C43.666 9.14324 43.5544 9.0679 43.3312 9.06778H40.63C40.2282 9.06778 39.9529 9.00158 39.804 8.86918C39.7207 8.77698 39.6578 8.66882 39.6194 8.55157C39.581 8.43432 39.5679 8.31053 39.5808 8.18805V7.39937C39.5681 7.27778 39.5814 7.15492 39.6198 7.03863C39.6582 6.92234 39.721 6.81518 39.804 6.72397C39.9529 6.59169 40.2282 6.52549 40.63 6.52537H42.7656L42.7668 6.52555ZM50.9045 12.056C50.9045 12.724 50.4977 13.058 49.6842 13.0581H47.6446C46.8411 13.0581 46.4392 12.7241 46.4391 12.056V6.12296C46.4391 5.65047 46.2605 5.41422 45.9034 5.41422C45.7814 5.42273 45.6627 5.45754 45.5559 5.51616C45.4491 5.57478 45.3568 5.65577 45.2857 5.75336C45.0834 5.9899 44.9774 6.29132 44.988 6.59975V12.0689C44.9717 12.3622 45.0254 12.6552 45.1449 12.9247C45.2644 13.1941 45.4464 13.4325 45.6764 13.621C46.1352 13.9877 46.7714 14.1711 47.585 14.1711H49.7584C50.5818 14.1711 51.2205 13.9877 51.6745 13.621C52.1285 13.2542 52.3555 12.7369 52.3554 12.0689V6.59921C52.366 6.29079 52.26 5.9894 52.0578 5.75282C51.9845 5.6539 51.8898 5.57215 51.7804 5.5135C51.671 5.45484 51.5497 5.42075 51.4252 5.41369C51.0779 5.41369 50.9043 5.64994 50.9043 6.12243V12.0554L50.9045 12.056ZM55.4927 13.0092C55.0274 13.0032 54.566 13.0938 54.139 13.275C53.7322 13.4522 53.5288 13.6549 53.5289 13.883C53.5289 14.0338 53.6405 14.1092 53.8637 14.1092H57.5773C58.5494 14.1092 59.3108 13.8831 59.8616 13.4308C60.4123 12.9785 60.6877 12.3287 60.6875 11.4815C60.6864 9.92147 59.6813 9.14145 57.6722 9.14145H56.5709C55.5987 9.14145 55.1126 8.70756 55.1126 7.83977C55.1022 7.65573 55.1362 7.47189 55.2118 7.30311C55.2874 7.13433 55.4025 6.98537 55.5478 6.86826C55.8989 6.62171 56.3258 6.50084 56.757 6.5259H58.4766C58.9419 6.5319 59.4033 6.44131 59.8303 6.26008C60.2369 6.08299 60.4403 5.88444 60.4404 5.66445C60.4404 5.49715 60.3337 5.41351 60.1204 5.41351H56.757C55.8195 5.41351 55.0695 5.62938 54.5069 6.06112C54.2303 6.27172 54.0093 6.54419 53.8624 6.85572C53.7154 7.16724 53.6468 7.50874 53.6623 7.8516C53.6623 9.45286 54.6222 10.2535 56.542 10.2535H57.5764C58.1665 10.2535 58.5882 10.3563 58.8414 10.562C59.0945 10.7676 59.221 11.0864 59.2208 11.5184C59.2347 11.7245 59.2015 11.9309 59.1237 12.1228C59.0458 12.3147 58.9251 12.4871 58.7706 12.6274C58.4191 12.899 57.9783 13.0349 57.5315 13.0094H55.492L55.4927 13.0092Z" fill="black"/>
<path fill-rule="evenodd" clip-rule="evenodd" d="M62.5086 3.11218C62.5086 3.31413 62.5798 3.4151 62.7221 3.4151C62.8644 3.4151 62.9356 3.31413 62.9356 3.11218V1.00031C62.927 0.914548 62.9512 0.828734 63.0034 0.759402C63.0376 0.732195 63.0769 0.71192 63.1191 0.699764C63.1613 0.687608 63.2056 0.683813 63.2493 0.688599H63.4871C63.592 0.692073 63.6949 0.660115 63.7785 0.598082C63.8148 0.573104 63.8444 0.539988 63.8648 0.501507C63.8853 0.463026 63.8961 0.420298 63.8963 0.376892C63.8975 0.364677 63.8957 0.352374 63.8911 0.340948C63.8866 0.329522 63.8794 0.319287 63.8701 0.311051C63.8608 0.302814 63.8497 0.296799 63.8377 0.293481C63.8256 0.290163 63.813 0.289632 63.8007 0.29193H61.9567C61.8512 0.288024 61.7476 0.319657 61.6631 0.381553C61.6268 0.40651 61.5972 0.43962 61.5767 0.478106C61.5562 0.516591 61.5454 0.559332 61.5453 0.602743C61.5441 0.614958 61.5459 0.627262 61.5505 0.638687C61.555 0.650113 61.5622 0.660348 61.5715 0.668584C61.5808 0.676821 61.5919 0.682834 61.6039 0.686152C61.616 0.689469 61.6286 0.690003 61.6409 0.687705H62.1925C62.2367 0.68266 62.2816 0.686323 62.3243 0.698481C62.3671 0.710639 62.407 0.731045 62.4416 0.758505C62.4931 0.828156 62.5168 0.913822 62.5084 0.999412V3.11128L62.5086 3.11218ZM66.9985 0.594855C66.9985 0.392905 66.9274 0.29193 66.7851 0.29193C66.7252 0.302436 66.6694 0.328656 66.6235 0.367798C66.5777 0.40694 66.5436 0.457537 66.5247 0.514195L65.6995 2.04638C65.6887 2.08162 65.6702 2.11411 65.6452 2.14161C65.6202 2.1691 65.5895 2.19092 65.555 2.20555C65.5211 2.19051 65.4908 2.16852 65.4663 2.14106C65.4417 2.11361 65.4234 2.08133 65.4127 2.04638L64.5785 0.501111C64.5599 0.4468 64.5264 0.398552 64.4817 0.361655C64.437 0.324758 64.3827 0.300636 64.3249 0.29193C64.1856 0.29193 64.1159 0.392905 64.1159 0.594855V3.11218C64.1159 3.31413 64.1856 3.4151 64.3249 3.4151C64.4673 3.4151 64.5384 3.31413 64.5384 3.11218V1.26828L65.2993 2.69812C65.3182 2.75356 65.3519 2.80301 65.397 2.84135C65.442 2.87968 65.4967 2.90549 65.5554 2.91608C65.6145 2.90329 65.6691 2.87536 65.7137 2.83515C65.7582 2.79494 65.7911 2.74389 65.8089 2.68719L66.5697 1.26828V3.11218C66.5697 3.31413 66.6416 3.4151 66.7854 3.4151C66.8172 3.41604 66.8487 3.40854 66.8765 3.39339C66.9043 3.37825 66.9273 3.35602 66.9433 3.32906C66.9823 3.26338 67.0014 3.18812 66.9982 3.11218V0.594855H66.9985Z" fill="black"/>
<path fill-rule="evenodd" clip-rule="evenodd" d="M3.80965 14.1146C-2.52442 6.7986 -0.955991 2.24093 8.51493 0.441547C17.9858 -1.35784 21.1528 2.30014 18.0158 11.4155C14.8791 20.5308 10.1437 21.4305 3.80965 14.1146ZM10.0882 13.1721C7.49207 9.43542 8.39078 6.88309 12.7843 5.51509C17.1778 4.14709 18.4758 6.01548 16.6784 11.1203C14.8809 16.2247 12.6841 16.9086 10.0882 13.1721Z" fill="url(#paint0_linear_256_16667)"/>
</g>
<defs>
<linearGradient id="paint0_linear_256_16667" x1="4.43767" y1="6.64292e-05" x2="14.4242" y2="19.1688" gradientUnits="userSpaceOnUse">
<stop stop-color="#1D9974"/>
<stop offset="0.14" stop-color="#1D9974"/>
<stop offset="1" stop-color="#0D5B7B"/>
</linearGradient>
<clipPath id="clip0_256_16667">
<rect width="67" height="19" fill="white"/>
</clipPath>
</defs>
</svg>
