<svg width="401" height="667" viewBox="0 0 401 667" fill="none" xmlns="http://www.w3.org/2000/svg">
<g filter="url(#filter0_d_242_15898)">
<path d="M386.051 18.2051C383.359 20.5293 380.284 19.8652 377.353 20.3301C374.422 20.7949 366.14 23.0859 368.575 15.7482C363.161 13.341 360.23 16.3956 356.482 15.7482C351.164 12.1291 349.402 21.874 345.798 15.7482C340.528 14.2208 338.606 18.1387 336.187 18.1387C333.768 18.1387 331.622 16.8272 328.306 15.7482C324.991 14.6691 322.924 16.8272 318.375 15.7482C313.826 14.6691 315.268 22.1396 309.694 15.7482C305.577 15.964 303.03 18.1387 299.314 15.7482C295.598 13.3576 291.978 18.1553 288.694 12.5275C285.491 12.9592 284.578 17.7071 280.477 16.0802C276.376 14.4533 275.96 19.4004 274.326 21.0605C272.692 22.7206 269.521 22.7206 265.981 19.0352C264.979 17.9588 263.638 17.2901 262.201 17.15C260.764 17.0099 259.326 17.4078 258.148 18.2715C255.697 19.9316 255.441 19.5 251.741 17.5245C248.041 15.5489 243.956 21.1601 240.288 21.3427C236.62 21.5254 232.68 18.5869 229.428 17.2921C228.419 16.8936 225.808 20.6123 224.863 20.3965C222.749 20.1143 222.236 16.6612 218.872 18.1387C214.067 20.2803 211.985 17.7071 211.985 17.7071C211.985 17.7071 209.15 14.7023 206.731 15.3165C204.312 15.9308 201.029 19.417 199.01 17.4747C196.364 15.2953 193.372 13.6101 190.169 12.4943C190.169 12.4943 185.363 14.6193 183.329 15.4659C181.295 16.3126 176.489 15.0509 173.718 15.4659C170.947 15.881 170.098 18.8858 167.311 18.0391C164.524 17.1925 160.375 15.4161 158.774 15.3995C157.172 15.3829 152.238 19.9482 149.035 18.0225C145.831 16.0968 144.374 13.2746 142.387 12.8596C140.401 12.4445 136.797 16.2628 135.195 15.6153C133.594 14.9679 129.269 16.9268 126.866 18.0557C125.603 18.8197 124.177 19.2483 122.716 19.3033C121.254 19.3583 119.802 19.0381 118.489 18.3711C114.917 16.711 117.688 15.8146 113.683 16.711C111.329 17.2257 110.72 15.6817 108.878 15.6319C107.613 15.6319 105.29 17.1094 103.368 17.0928C101.833 17.1295 100.325 16.6649 99.0591 15.7648C98.3386 15.1668 97.5088 14.7261 96.6197 14.4694C95.7305 14.2126 94.8004 14.145 93.8853 14.2707C91.6429 14.5197 90.4415 16.047 88.215 16.3458C85.9886 16.6446 82.2884 15.798 80.2061 15.8478C76.2657 15.964 70.5954 14.5695 67.8564 14.1876C65.1173 13.8058 62.7467 15.3663 58.5981 13.673C54.4495 11.9797 56.8682 15.7648 53.7927 12.0129C50.7173 8.26105 48.683 10.6516 46.7289 12.0129C44.7747 13.3742 43.9898 13.175 41.2508 12.3283C38.5117 11.4817 38.0472 12.3283 36.5576 14.1544C35.0679 15.9806 33.0497 14.4367 31.0955 16.1964C29.1413 17.9561 26.0178 19.0684 23.5511 16.545C21.0843 14.0216 25.233 12.7599 15.5422 16.545C13.7554 17.2556 11.8958 17.7513 10 18.0225V657C13.4599 655.639 16.4071 654.742 17.8167 655.157C20.488 656.266 23.4369 656.435 26.21 655.639C30.0383 654.975 31.0154 653.564 33.2098 653.713C35.4826 653.617 37.7588 653.767 40.0014 654.161C42.5187 654.877 45.1623 654.973 47.722 654.443C51.358 653.912 52.7195 656.502 55.4586 654.941C58.1976 653.381 61.8657 655.207 61.8657 655.207C61.8657 655.207 61.4012 654.46 64.6048 654.726C67.8083 654.991 69.1698 650.791 72.8059 653.348C73.6709 653.962 77.5151 652.103 79.8057 653.099C81.8816 654.159 84.1425 654.774 86.4531 654.908C88.0549 654.759 91.755 652.8 93.9334 652.551C96.1118 652.302 96.5924 650.26 99.4916 650.692C101.292 650.998 103.138 650.78 104.826 650.061C106.155 649.695 117.063 648.401 119.61 649.529C121.887 650.568 124.31 651.224 126.786 651.472C128.207 651.785 129.567 652.346 130.806 653.132C131.896 653.597 133.353 653.829 134.827 654.56C136.301 655.29 138.847 656.22 140.305 655.174C141.763 654.128 141.378 652.435 143.509 652.584C145.639 652.734 144.518 653.215 145.655 652.717C147.578 651.794 149.761 651.634 151.79 652.269C153.872 653.248 154.192 653.58 155.81 653.364C157.428 653.149 159.254 652.866 160.103 653.647C160.952 654.427 159.863 653.182 161.817 654.875C163.206 656.029 164.939 656.645 166.718 656.618C168.192 656.851 174.407 654.958 176.025 653.431C177.643 651.903 178.395 650.11 180.974 650.11C183.553 650.11 186.629 651.522 188.727 650.592C190.825 649.662 194.205 647.272 196.367 647.421C198.53 647.571 200.308 645.844 202.903 646.126C205.498 646.408 206.731 645.18 207.9 646.442C209.07 647.703 209.822 645.778 212.177 647.106C214.532 648.434 215.669 644.184 219.994 647.205C221.144 648.072 222.548 648.502 223.968 648.423C225.388 648.345 226.739 647.762 227.794 646.774C228.184 646.368 228.653 646.052 229.169 645.848C229.685 645.644 230.238 645.557 230.789 645.591C231.341 645.626 231.879 645.782 232.368 646.049C232.857 646.315 233.285 646.687 233.625 647.139C236.508 650.459 239.616 647.919 240.961 648.401C242.307 648.882 244.485 645.462 245.959 645.96C247.432 646.458 248.457 647.82 251.437 647.488C254.416 647.156 258.709 643.337 260.903 644.001C263.098 644.665 269.12 645.827 271.299 645.18C273.477 644.533 276.457 647.903 278.683 648.5C280.909 649.098 282.72 645.329 284.225 644.831C285.731 644.333 288.55 648.334 290.056 648.301C291.561 648.268 292.49 647.122 294.605 646.99C296.719 646.857 303.607 641.179 306.73 642.69C309.854 644.201 309.037 644.981 311.439 644.732C313.842 644.483 316.853 642.557 319.016 643.619C321.178 644.682 321.915 644.333 324.702 645.163C327.489 645.993 327.569 641.411 329.844 640.98C332.529 640.834 335.216 641.229 337.757 642.142C340.159 642.823 341.697 640.266 345.926 640.05C350.155 639.834 352.333 644.001 354.72 644.549C357.106 645.097 360.326 645.96 362.36 645.562C364.394 645.163 368.495 648.384 370.545 648.517C372.595 648.65 373.476 647.371 375.27 647.338C376.848 647.355 378.408 647.682 379.868 648.301C381.918 648.965 383.071 647.305 384.593 647.122C386.115 646.94 387.284 645.462 388.565 645.246C389.222 645.147 390.167 644.898 391 644.682V22.6376C388.854 22.123 387.828 18.4541 386.051 18.2051Z" fill="white"/>
</g>
<defs>
<filter id="filter0_d_242_15898" x="0" y="0" width="401" height="667" filterUnits="userSpaceOnUse" color-interpolation-filters="sRGB">
<feFlood flood-opacity="0" result="BackgroundImageFix"/>
<feColorMatrix in="SourceAlpha" type="matrix" values="0 0 0 0 0 0 0 0 0 0 0 0 0 0 0 0 0 0 127 0" result="hardAlpha"/>
<feOffset/>
<feGaussianBlur stdDeviation="5"/>
<feComposite in2="hardAlpha" operator="out"/>
<feColorMatrix type="matrix" values="0 0 0 0 0 0 0 0 0 0 0 0 0 0 0 0 0 0 0.25 0"/>
<feBlend mode="normal" in2="BackgroundImageFix" result="effect1_dropShadow_242_15898"/>
<feBlend mode="normal" in="SourceGraphic" in2="effect1_dropShadow_242_15898" result="shape"/>
</filter>
</defs>
</svg>
