<svg width="100" height="100" viewBox="0 0 100 100" fill="none" xmlns="http://www.w3.org/2000/svg">
<path opacity="0.4" d="M62.5002 12.5V50C62.5002 54.5833 58.7502 58.3333 54.1668 58.3333H8.3335V31.75C11.3752 35.375 16.0419 37.625 21.2086 37.5C25.4169 37.4166 29.2085 35.7917 32.0418 33.0833C33.3335 32 34.4169 30.6249 35.2503 29.1249C36.7503 26.5833 37.5835 23.5832 37.5002 20.4582C37.3752 15.5832 35.2086 11.2916 31.8336 8.33331H58.3335C60.6252 8.33331 62.5002 10.2083 62.5002 12.5Z" fill="#669900" fill-opacity="0.88"/>
<path d="M91.6668 58.3333V70.8333C91.6668 77.75 86.0835 83.3333 79.1668 83.3333H75.0002C75.0002 78.75 71.2502 75 66.6668 75C62.0835 75 58.3335 78.75 58.3335 83.3333H41.6668C41.6668 78.75 37.9168 75 33.3335 75C28.7502 75 25.0002 78.75 25.0002 83.3333H20.8335C13.9168 83.3333 8.3335 77.75 8.3335 70.8333V58.3333H54.1668C58.7502 58.3333 62.5002 54.5833 62.5002 50V20.8333H70.1669C73.1669 20.8333 75.9169 22.4584 77.4169 25.0417L84.5417 37.5H79.1668C76.8752 37.5 75.0002 39.375 75.0002 41.6666V54.1666C75.0002 56.4583 76.8752 58.3333 79.1668 58.3333H91.6668Z" fill="#669900" fill-opacity="0.88"/>
<path opacity="0.4" d="M33.3333 91.6667C37.9357 91.6667 41.6667 87.9357 41.6667 83.3333C41.6667 78.731 37.9357 75 33.3333 75C28.731 75 25 78.731 25 83.3333C25 87.9357 28.731 91.6667 33.3333 91.6667Z" fill="#669900" fill-opacity="0.88"/>
<path opacity="0.4" d="M66.6668 91.6667C71.2692 91.6667 75.0002 87.9357 75.0002 83.3333C75.0002 78.731 71.2692 75 66.6668 75C62.0645 75 58.3335 78.731 58.3335 83.3333C58.3335 87.9357 62.0645 91.6667 66.6668 91.6667Z" fill="#669900" fill-opacity="0.88"/>
<path opacity="0.4" d="M91.6667 52.2085V58.3333H79.1667C76.875 58.3333 75 56.4583 75 54.1667V41.6667C75 39.375 76.875 37.5 79.1667 37.5H84.5416L90.5833 48.0832C91.2916 49.3332 91.6667 50.7501 91.6667 52.2085Z" fill="#669900" fill-opacity="0.88"/>
<path d="M31.8341 8.3324C28.8341 5.66573 24.8339 4.0824 20.4589 4.16573C16.5423 4.24907 12.959 5.70737 10.1257 8.0407C6.37569 11.1657 4.04238 15.9575 4.16738 21.2075C4.25072 24.3325 5.1674 27.2491 6.7924 29.7074C7.25074 30.4158 7.75072 31.124 8.33405 31.749C11.3757 35.374 16.0425 37.6241 21.2092 37.4991C25.4175 37.4157 29.2091 35.7907 32.0424 33.0824C33.3341 31.9991 34.4175 30.624 35.2508 29.124C36.7508 26.5824 37.5841 23.5823 37.5007 20.4573C37.3757 15.5823 35.2091 11.2907 31.8341 8.3324ZM29.4174 18.8325L20.7089 27.249C20.0839 27.8323 19.3341 28.1241 18.5424 28.1241C17.7508 28.1241 17.0007 27.8323 16.3757 27.249L12.1673 23.2491C10.9173 22.0408 10.8758 20.0825 12.0842 18.8325C13.2925 17.5825 15.2508 17.5407 16.5008 18.7491L18.5424 20.7073L25.0841 14.3741C26.3341 13.1658 28.2925 13.2073 29.5008 14.4573C30.7091 15.6656 30.6674 17.6241 29.4174 18.8325Z" fill="#669900" fill-opacity="0.88"/>
</svg>
