<svg width="100" height="101" viewBox="0 0 100 101" fill="none" xmlns="http://www.w3.org/2000/svg">
<path opacity="0.4" d="M85.417 42.6243H73.3753C63.5003 42.6243 55.4587 34.5827 55.4587 24.7077V12.666C55.4587 10.3743 53.5837 8.49933 51.292 8.49933H33.6253C20.792 8.49933 10.417 16.8327 10.417 31.7077V68.6243C10.417 83.4993 20.792 91.8327 33.6253 91.8327H66.3753C79.2087 91.8327 89.5837 83.4993 89.5837 68.6243V46.791C89.5837 44.4993 87.7087 42.6243 85.417 42.6243Z" fill="#669900" fill-opacity="0.88"/>
<path d="M65.8317 9.37635C64.1234 7.66802 61.165 8.83469 61.165 11.2097V25.7514C61.165 31.8347 66.3317 36.8764 72.6234 36.8764C76.5817 36.918 82.0817 36.918 86.79 36.918C89.165 36.918 90.415 34.1264 88.7484 32.4597C82.7484 26.418 71.9984 15.543 65.8317 9.37635Z" fill="#669900" fill-opacity="0.88"/>
<path d="M46.501 53.2077C44.0426 52.4161 41.4176 52.8744 39.5843 54.3327C37.6676 52.8744 35.126 52.4161 32.7093 53.2077C27.4176 54.9161 25.751 60.9577 27.2093 65.5827C29.4593 72.6661 36.9176 76.2911 39.626 76.2911C42.251 76.2911 49.8343 72.5411 52.0426 65.5827C53.4593 60.9577 51.7926 54.9161 46.501 53.2077Z" fill="#669900" fill-opacity="0.88"/>
</svg>
