<svg width="100" height="100" viewBox="0 0 100 100" fill="none" xmlns="http://www.w3.org/2000/svg">
<path opacity="0.4" d="M80.6246 23.5831L54.4162 9.45831C51.6662 7.95831 48.3328 7.95831 45.5412 9.45831L19.3329 23.5831C17.4163 24.6248 16.2495 26.6666 16.2495 28.9166C16.2495 31.1666 17.4163 33.2081 19.3329 34.2498L45.5412 48.3748C46.9162 49.1248 48.4578 49.4999 49.9578 49.4999C51.4995 49.4999 52.9995 49.1248 54.3745 48.3748L80.5829 34.2498C82.4995 33.2081 83.6662 31.1666 83.6662 28.9166C83.7078 26.6666 82.5412 24.6248 80.6246 23.5831Z" fill="#669900" fill-opacity="0.88"/>
<path opacity="0.4" d="M41.2511 53.2917L16.8761 41.0834C15.0011 40.125 12.8344 40.25 11.0428 41.3333C9.25111 42.4167 8.20947 44.3335 8.20947 46.4168V69.4583C8.20947 73.4583 10.4177 77.0417 14.0011 78.8333L38.3761 91.0002C39.2094 91.4169 40.1262 91.625 41.0428 91.625C42.1262 91.625 43.2095 91.3335 44.1678 90.7085C45.9595 89.6252 47.0011 87.7084 47.0011 85.625V62.5835C47.0428 58.6668 44.8344 55.0833 41.2511 53.2917Z" fill="#669900" fill-opacity="0.88"/>
<path opacity="0.4" d="M91.7914 46.4585V65.5833C91.7497 65.5416 91.708 65.4584 91.6664 65.4167C91.6664 65.3751 91.6248 65.3333 91.5831 65.2916C91.4164 65.0416 91.208 64.7917 90.9997 64.5834C90.958 64.5417 90.9164 64.4584 90.8747 64.4168C87.4997 60.6668 82.5414 58.3334 77.083 58.3334C71.833 58.3334 67.0413 60.5 63.6247 64C60.333 67.375 58.333 72 58.333 77.0834C58.333 80.5834 59.333 83.9167 61.0414 86.7501C61.7497 87.9584 62.6248 89.0416 63.5831 90.0416L61.6247 91.0416C60.7914 91.4583 59.8747 91.6667 58.958 91.6667C57.8747 91.6667 56.7914 91.3751 55.7914 90.7501C54.0414 89.6668 52.958 87.75 52.958 85.6667V62.6666C52.958 58.6666 55.1664 55.0833 58.7497 53.2916L83.1248 41.125C84.9998 40.1667 87.1664 40.25 88.9581 41.375C90.7081 42.4583 91.7914 44.3751 91.7914 46.4585Z" fill="#669900" fill-opacity="0.88"/>
<path d="M91.5835 65.2085C88.1669 61.0001 82.9585 58.3334 77.0835 58.3334C72.6668 58.3334 68.5835 59.875 65.3752 62.4583C61.0418 65.875 58.3335 71.1667 58.3335 77.0834C58.3335 82.9584 61.0001 88.1666 65.2085 91.5833C68.4168 94.25 72.5835 95.8334 77.0835 95.8334C81.8335 95.8334 86.1252 94.0417 89.4585 91.1667C93.3335 87.7084 95.8335 82.7084 95.8335 77.0834C95.8335 72.5834 94.2502 68.4168 91.5835 65.2085ZM81.3752 78.2502C81.3752 79.3335 80.7919 80.375 79.8752 80.9166L74.0002 84.4168C73.5002 84.7084 72.9585 84.875 72.3751 84.875C71.3335 84.875 70.2919 84.3334 69.7085 83.3751C68.8335 81.8751 69.2918 79.9583 70.7918 79.0833L75.1252 76.5V71.2499C75.1252 69.5416 76.5418 68.1249 78.2502 68.1249C79.9585 68.1249 81.3752 69.5416 81.3752 71.2499V78.2502Z" fill="#669900" fill-opacity="0.88"/>
</svg>
