<svg width="100" height="101" viewBox="0 0 100 101" fill="none" xmlns="http://www.w3.org/2000/svg">
<path opacity="0.4" d="M79.1663 37.666C79.1663 43.7077 77.3747 49.2494 74.2913 53.8744C69.7913 60.5411 62.6663 65.2493 54.3747 66.4577C52.958 66.7077 51.4997 66.8327 49.9997 66.8327C48.4997 66.8327 47.0413 66.7077 45.6247 66.4577C37.333 65.2493 30.208 60.5411 25.708 53.8744C22.6247 49.2494 20.833 43.7077 20.833 37.666C20.833 21.541 33.8747 8.49933 49.9997 8.49933C66.1247 8.49933 79.1663 21.541 79.1663 37.666Z" fill="#669900" fill-opacity="0.88"/>
<path d="M88.5422 77.126L81.6672 78.7509C80.1255 79.1259 78.9172 80.2927 78.5838 81.8343L77.1255 87.9593C76.3338 91.2927 72.0838 92.2927 69.8755 89.6677L50.0005 66.8343L30.1255 89.7093C27.9172 92.3343 23.6672 91.3342 22.8755 88.0009L21.4172 81.8759C21.0422 80.3342 19.8338 79.1259 18.3338 78.7926L11.4588 77.1677C8.29216 76.4177 7.16716 72.4592 9.45882 70.1676L25.7088 53.9176C30.2088 60.5843 37.3338 65.2927 45.6255 66.501C47.0422 66.751 48.5005 66.876 50.0005 66.876C51.5005 66.876 52.9588 66.751 54.3755 66.501C62.6672 65.2927 69.7922 60.5843 74.2922 53.9176L90.5422 70.1676C92.8338 72.4176 91.7088 76.376 88.5422 77.126Z" fill="#669900" fill-opacity="0.88"/>
<path d="M52.4162 25.0827L54.8746 29.9993C55.2079 30.666 56.0829 31.3327 56.8746 31.4577L61.3329 32.2077C64.1662 32.666 64.8329 34.7494 62.7912 36.791L59.3329 40.2493C58.7496 40.8326 58.4162 41.9577 58.6246 42.791L59.6246 47.0827C60.4162 50.4577 58.6246 51.791 55.6246 49.9993L51.4579 47.541C50.7079 47.0826 49.4579 47.0826 48.7079 47.541L44.5412 49.9993C41.5412 51.7493 39.7496 50.4577 40.5412 47.0827L41.5412 42.791C41.7079 41.9994 41.4162 40.8326 40.8329 40.2493L37.3746 36.791C35.3329 34.7494 35.9996 32.7077 38.8329 32.2077L43.2912 31.4577C44.0412 31.3327 44.9162 30.666 45.2496 29.9993L47.7079 25.0827C48.9162 22.416 51.0829 22.416 52.4162 25.0827Z" fill="#669900" fill-opacity="0.88"/>
</svg>
