<?xml version="1.0" encoding="UTF-8"?>
<!DOCTYPE svg PUBLIC "-//W3C//DTD SVG 1.1//EN" "http://www.w3.org/Graphics/SVG/1.1/DTD/svg11.dtd">
<svg xmlns="http://www.w3.org/2000/svg" version="1.1" width="450px" height="450px" style="shape-rendering:geometricPrecision; text-rendering:geometricPrecision; image-rendering:optimizeQuality; fill-rule:evenodd; clip-rule:evenodd" xmlns:xlink="http://www.w3.org/1999/xlink">
<g><path style="opacity:0.917" fill="#f7f6f6" d="M 278.5,98.5 C 337.174,109.681 379.007,142.348 404,196.5C 421.698,239.868 420.532,282.535 400.5,324.5C 398.991,327.156 396.824,329.156 394,330.5C 393.536,329.906 393.369,329.239 393.5,328.5C 403.656,307.691 409.323,285.691 410.5,262.5C 410.5,261.833 410.167,261.5 409.5,261.5C 409.575,250.78 408.909,240.113 407.5,229.5C 406.5,229.5 405.5,229.5 404.5,229.5C 406.192,240.045 406.859,250.712 406.5,261.5C 403.167,261.5 399.833,261.5 396.5,261.5C 396.821,255.974 396.488,250.64 395.5,245.5C 393.658,224.153 387.491,204.153 377,185.5C 371.053,176.391 364.553,167.724 357.5,159.5C 359.704,156.397 360.037,153.063 358.5,149.5C 360.331,150.052 361.997,150.052 363.5,149.5C 361.273,147.393 359.273,145.06 357.5,142.5C 335.165,123.166 309.498,110.499 280.5,104.5C 279.07,103.463 277.403,102.796 275.5,102.5C 274.693,100.285 275.693,98.9513 278.5,98.5 Z"/></g>
<g><path style="opacity:1" fill="#eafbe3" d="M 238.5,102.5 C 250.705,101.197 263.039,101.197 275.5,102.5C 277.403,102.796 279.07,103.463 280.5,104.5C 278.833,104.5 277.167,104.5 275.5,104.5C 265.902,102.975 256.236,102.308 246.5,102.5C 243.833,102.5 241.167,102.5 238.5,102.5 Z"/></g>
<g><path style="opacity:0.34" fill="#9bcc7d" d="M 238.5,102.5 C 241.167,102.5 243.833,102.5 246.5,102.5C 245.391,103.29 244.058,103.79 242.5,104C 247.019,104.175 251.353,104.675 255.5,105.5C 254.833,105.5 254.167,105.5 253.5,105.5C 246.833,105.5 240.167,105.5 233.5,105.5C 232.081,104.549 230.415,104.216 228.5,104.5C 231.725,103.763 235.059,103.097 238.5,102.5 Z"/></g>
<g><path style="opacity:0.4" fill="#6c9f50" d="M 246.5,102.5 C 256.236,102.308 265.902,102.975 275.5,104.5C 275.5,105.167 275.5,105.833 275.5,106.5C 268.833,106.167 262.167,105.833 255.5,105.5C 251.353,104.675 247.019,104.175 242.5,104C 244.058,103.79 245.391,103.29 246.5,102.5 Z"/></g>
<g><path style="opacity:0.997" fill="#050505" d="M 253.5,115.5 C 253.833,115.5 254.167,115.5 254.5,115.5C 294.723,116.788 329.056,131.455 357.5,159.5C 364.553,167.724 371.053,176.391 377,185.5C 387.491,204.153 393.658,224.153 395.5,245.5C 395.5,251.167 395.5,256.833 395.5,262.5C 400.5,262.5 405.5,262.5 410.5,262.5C 409.323,285.691 403.656,307.691 393.5,328.5C 361.624,384.296 313.29,413.296 248.5,415.5C 231.518,414.754 214.851,412.087 198.5,407.5C 197.833,406.833 197.167,406.167 196.5,405.5C 198.441,401.282 200.108,396.949 201.5,392.5C 202.404,391.791 202.737,390.791 202.5,389.5C 205.871,382.404 208.871,375.07 211.5,367.5C 212.167,367.5 212.833,367.5 213.5,367.5C 263.096,381.577 305.929,370.244 342,333.5C 344.526,330.833 346.359,327.833 347.5,324.5C 346.448,324.351 345.448,324.517 344.5,325C 315.008,360.281 277.342,374.948 231.5,369C 226.509,367.724 221.509,366.557 216.5,365.5C 172.122,349.78 145.122,318.78 135.5,272.5C 134.5,272.5 133.5,272.5 132.5,272.5C 130.601,257.067 131.601,241.734 135.5,226.5C 142.288,203.583 154.621,184.249 172.5,168.5C 178.694,163.577 185.027,158.911 191.5,154.5C 194.95,152.391 198.616,150.724 202.5,149.5C 216.674,143.957 231.34,140.29 246.5,138.5C 275.522,137.692 301.522,146.025 324.5,163.5C 325.833,162.5 325.833,161.5 324.5,160.5C 301.816,144.511 276.482,136.511 248.5,136.5C 248.5,134.833 248.5,133.167 248.5,131.5C 250.653,126.44 252.32,121.106 253.5,115.5 Z"/></g>
<g><path style="opacity:1" fill="#5a9440" d="M 253.5,115.5 C 252.32,121.106 250.653,126.44 248.5,131.5C 249.376,126.868 250.043,122.201 250.5,117.5C 239.888,118.82 229.222,119.487 218.5,119.5C 219.263,118.732 220.263,118.232 221.5,118C 232.12,116.506 242.787,115.672 253.5,115.5 Z"/></g>
<g><path style="opacity:1" fill="#f6fbf2" d="M 233.5,105.5 C 240.167,105.5 246.833,105.5 253.5,105.5C 253.389,106.117 253.056,106.617 252.5,107C 254.179,109.565 254.846,112.398 254.5,115.5C 254.167,115.5 253.833,115.5 253.5,115.5C 242.787,115.672 232.12,116.506 221.5,118C 220.263,118.232 219.263,118.732 218.5,119.5C 218.167,119.5 217.833,119.5 217.5,119.5C 203.203,122.988 189.536,128.155 176.5,135C 174.76,136.517 173.094,138.017 171.5,139.5C 159.97,145.941 149.97,154.274 141.5,164.5C 126.256,179.981 115.922,198.314 110.5,219.5C 107.836,225.79 106.169,232.456 105.5,239.5C 104.043,244.598 103.376,249.931 103.5,255.5C 102.549,256.919 102.216,258.585 102.5,260.5C 100.167,260.5 97.8333,260.5 95.5,260.5C 95.7404,249.469 96.407,238.469 97.5,227.5C 109.654,177.502 138.987,141.336 185.5,119C 200.817,112.173 216.817,107.673 233.5,105.5 Z"/></g>
<g><path style="opacity:1" fill="#559737" d="M 217.5,119.5 C 217.586,120.496 217.252,121.329 216.5,122C 210.892,122.631 205.559,124.131 200.5,126.5C 199.548,128.045 199.215,129.712 199.5,131.5C 196.252,132.132 193.085,132.132 190,131.5C 186.158,132.171 182.992,134.004 180.5,137C 181.167,137.333 181.833,137.667 182.5,138C 181.663,139.011 181.33,140.178 181.5,141.5C 176.493,141.99 175.826,141.157 179.5,139C 176.779,138.398 174.113,138.565 171.5,139.5C 173.094,138.017 174.76,136.517 176.5,135C 189.536,128.155 203.203,122.988 217.5,119.5 Z"/></g>
<g><path style="opacity:0.214" fill="#d0d0d1" d="M 275.5,104.5 C 277.167,104.5 278.833,104.5 280.5,104.5C 309.498,110.499 335.165,123.166 357.5,142.5C 359.273,145.06 361.273,147.393 363.5,149.5C 361.997,150.052 360.331,150.052 358.5,149.5C 358.731,146.215 357.397,143.715 354.5,142C 331.167,123.67 304.834,111.837 275.5,106.5C 275.5,105.833 275.5,105.167 275.5,104.5 Z"/></g>
<g><path style="opacity:1" fill="#e2efda" d="M 247.5,136.5 C 247.167,137.167 246.833,137.833 246.5,138.5C 231.34,140.29 216.674,143.957 202.5,149.5C 202.351,148.448 202.517,147.448 203,146.5C 204.878,145.947 206.378,144.947 207.5,143.5C 220.467,139.107 233.8,136.773 247.5,136.5 Z"/></g>
<g><path style="opacity:1" fill="#568e42" d="M 207.5,143.5 C 206.378,144.947 204.878,145.947 203,146.5C 202.517,147.448 202.351,148.448 202.5,149.5C 198.616,150.724 194.95,152.391 191.5,154.5C 191.511,152.983 192.177,151.816 193.5,151C 195.871,150.265 198.205,149.432 200.5,148.5C 201.452,146.955 201.785,145.288 201.5,143.5C 203.5,143.5 205.5,143.5 207.5,143.5 Z"/></g>
<g><path style="opacity:1" fill="#609746" d="M 171.5,139.5 C 167.908,142.984 164.241,146.484 160.5,150C 158.754,150.471 157.087,151.138 155.5,152C 151.189,156.825 146.522,160.992 141.5,164.5C 149.97,154.274 159.97,145.941 171.5,139.5 Z"/></g>
<g><path style="opacity:1" fill="#4b7f38" d="M 191.5,154.5 C 185.027,158.911 178.694,163.577 172.5,168.5C 172.5,167.167 172.5,165.833 172.5,164.5C 177.488,162.672 181.821,159.839 185.5,156C 187.345,154.872 189.345,154.372 191.5,154.5 Z"/></g>
<g><path style="opacity:0.986" fill="#f2f4ee" d="M 278.5,98.5 C 275.693,98.9513 274.693,100.285 275.5,102.5C 263.039,101.197 250.705,101.197 238.5,102.5C 235.059,103.097 231.725,103.763 228.5,104.5C 169.778,114.079 127.944,145.745 103,199.5C 97.6158,213.033 93.7825,227.033 91.5,241.5C 89.9526,248.766 89.2859,256.266 89.5,264C 89.6667,269.5 89.8333,275 90,280.5C 90.3826,281.056 90.8826,281.389 91.5,281.5C 92.5,284.167 93.5,286.833 94.5,289.5C 94.9428,295.949 96.6095,301.949 99.5,307.5C 100.15,309.435 100.483,311.435 100.5,313.5C 100.34,315.199 100.506,316.866 101,318.5C 103.087,322.322 105.253,325.989 107.5,329.5C 111.413,334.988 115.079,340.655 118.5,346.5C 119.703,351.225 122.203,355.225 126,358.5C 127.411,360.65 128.245,362.984 128.5,365.5C 130.292,365.634 131.958,365.301 133.5,364.5C 135.833,366.5 138.167,368.5 140.5,370.5C 144.664,375.497 149.331,379.997 154.5,384C 159.406,386.942 164.072,390.109 168.5,393.5C 166.621,394.341 164.621,394.675 162.5,394.5C 162.649,393.448 162.483,392.448 162,391.5C 158.414,389.291 154.914,386.957 151.5,384.5C 150.833,383.5 150.167,382.5 149.5,381.5C 145.279,379.787 141.279,377.787 137.5,375.5C 91.1816,331.015 75.6816,277.349 91,214.5C 114.136,148.376 160.303,109.209 229.5,97C 246.065,94.7674 262.398,95.2674 278.5,98.5 Z"/></g>
<g><path style="opacity:1" fill="#f5f5f5" d="M 179.5,227.5 C 177.735,226.539 175.735,226.205 173.5,226.5C 173.5,235.833 173.5,245.167 173.5,254.5C 168.833,254.5 164.167,254.5 159.5,254.5C 159.5,231.167 159.5,207.833 159.5,184.5C 164.167,184.5 168.833,184.5 173.5,184.5C 173.5,193.833 173.5,203.167 173.5,212.5C 175.604,212.799 177.604,212.466 179.5,211.5C 184.793,202.412 190.459,193.579 196.5,185C 202.167,184.333 207.833,184.333 213.5,185C 204.822,195.504 197.156,206.671 190.5,218.5C 197.904,230.299 205.571,241.966 213.5,253.5C 208.198,254.663 202.864,254.829 197.5,254C 192.096,244.668 186.096,235.835 179.5,227.5 Z"/></g>
<g><path style="opacity:1" fill="#f8f8f8" d="M 239.5,184.5 C 244.43,184.197 249.263,184.531 254,185.5C 261.274,208.488 268.441,231.488 275.5,254.5C 270.821,254.666 266.155,254.499 261.5,254C 259.958,250.666 258.958,247.166 258.5,243.5C 250.5,243.5 242.5,243.5 234.5,243.5C 233.516,246.812 232.516,250.145 231.5,253.5C 226.88,254.493 222.214,254.827 217.5,254.5C 224.633,231.101 231.966,207.768 239.5,184.5 Z"/></g>
<g><path style="opacity:1" fill="#fafafa" d="M 283.5,184.5 C 295.895,184.082 308.228,184.582 320.5,186C 327,188.5 331.5,193 334,199.5C 334.667,205.5 334.667,211.5 334,217.5C 331.427,225.739 325.927,230.905 317.5,233C 310.842,233.5 304.175,233.666 297.5,233.5C 297.5,240.5 297.5,247.5 297.5,254.5C 292.833,254.5 288.167,254.5 283.5,254.5C 283.5,231.167 283.5,207.833 283.5,184.5 Z"/></g>
<g><path style="opacity:1" fill="#699557" d="M 228.5,104.5 C 230.415,104.216 232.081,104.549 233.5,105.5C 216.817,107.673 200.817,112.173 185.5,119C 138.987,141.336 109.654,177.502 97.5,227.5C 95.6946,233.233 94.6946,239.233 94.5,245.5C 93.5119,250.64 93.1786,255.974 93.5,261.5C 92.8826,261.611 92.3826,261.944 92,262.5C 91.5014,266.152 91.3347,269.818 91.5,273.5C 91.082,263.013 91.082,252.346 91.5,241.5C 93.7825,227.033 97.6158,213.033 103,199.5C 127.944,145.745 169.778,114.079 228.5,104.5 Z"/></g>
<g><path style="opacity:1" fill="#0c0c0c" d="M 297.5,198.5 C 302.844,198.334 308.177,198.501 313.5,199C 321.037,201.908 323.204,207.075 320,214.5C 318.269,216.617 316.102,218.117 313.5,219C 308.177,219.499 302.844,219.666 297.5,219.5C 297.5,212.5 297.5,205.5 297.5,198.5 Z"/></g>
<g><path style="opacity:1" fill="#141414" d="M 245.5,206.5 C 246.586,206.62 247.253,207.287 247.5,208.5C 249.706,215.117 251.706,221.784 253.5,228.5C 248.88,229.493 244.214,229.827 239.5,229.5C 241.909,221.939 243.909,214.273 245.5,206.5 Z"/></g>
<g><path style="opacity:1" fill="#e4f7d8" d="M 97.5,227.5 C 96.407,238.469 95.7404,249.469 95.5,260.5C 97.8333,260.5 100.167,260.5 102.5,260.5C 102.216,258.585 102.549,256.919 103.5,255.5C 103.5,257.5 103.5,259.5 103.5,261.5C 100.5,261.5 97.5,261.5 94.5,261.5C 94.5,256.167 94.5,250.833 94.5,245.5C 94.6946,239.233 95.6946,233.233 97.5,227.5 Z"/></g>
<g><path style="opacity:1" fill="#4a982a" d="M 248.5,131.5 C 248.5,133.167 248.5,134.833 248.5,136.5C 248.167,136.5 247.833,136.5 247.5,136.5C 233.8,136.773 220.467,139.107 207.5,143.5C 205.5,143.5 203.5,143.5 201.5,143.5C 201.785,145.288 201.452,146.955 200.5,148.5C 198.205,149.432 195.871,150.265 193.5,151C 192.177,151.816 191.511,152.983 191.5,154.5C 189.345,154.372 187.345,154.872 185.5,156C 181.821,159.839 177.488,162.672 172.5,164.5C 172.5,165.833 172.5,167.167 172.5,168.5C 154.621,184.249 142.288,203.583 135.5,226.5C 134.85,226.804 134.183,227.137 133.5,227.5C 131.373,237.47 129.373,247.47 127.5,257.5C 127.86,259.421 128.694,261.088 130,262.5C 130.132,268.507 130.132,274.507 130,280.5C 132.523,284.069 133.856,288.069 134,292.5C 135.875,294.982 137.709,297.315 139.5,299.5C 139.5,299.833 139.5,300.167 139.5,300.5C 139.336,303.187 139.503,305.854 140,308.5C 144.401,312.638 147.234,317.638 148.5,323.5C 152.068,323.759 153.401,325.759 152.5,329.5C 154.858,329.253 156.858,329.919 158.5,331.5C 159.048,333.394 160.048,335.06 161.5,336.5C 157.674,345.247 151.007,349.08 141.5,348C 142.264,345.931 142.764,343.764 143,341.5C 146.73,340.54 150.563,340.207 154.5,340.5C 154.384,335.389 151.718,333.056 146.5,333.5C 146.784,331.585 146.451,329.919 145.5,328.5C 145.103,327.475 144.437,327.308 143.5,328C 139.249,330.945 135.249,334.112 131.5,337.5C 130.566,338.568 130.232,339.901 130.5,341.5C 132.467,341.739 134.301,341.406 136,340.5C 135.747,343.133 135.747,345.8 136,348.5C 137.011,349.337 138.178,349.67 139.5,349.5C 139.907,353.281 138.574,356.281 135.5,358.5C 138.281,359.159 140.614,358.159 142.5,355.5C 143.415,356.328 144.081,357.328 144.5,358.5C 141.143,361.785 137.31,362.785 133,361.5C 133.012,358.349 132.012,355.682 130,353.5C 129.692,354.308 129.192,354.975 128.5,355.5C 126.184,353.53 124.351,351.196 123,348.5C 122.329,347.748 121.496,347.414 120.5,347.5C 119.372,343.91 117.705,340.577 115.5,337.5C 115.709,336.914 116.043,336.414 116.5,336C 114.89,333.756 112.89,331.922 110.5,330.5C 109.146,326.765 107.812,323.098 106.5,319.5C 109.998,319.435 110.498,318.101 108,315.5C 106.4,314.134 104.567,313.134 102.5,312.5C 102.043,310.402 101.043,308.736 99.5,307.5C 96.6095,301.949 94.9428,295.949 94.5,289.5C 93.8333,280.833 93.1667,272.167 92.5,263.5C 95.1933,263.572 97.8599,263.905 100.5,264.5C 103.006,264.665 104.839,263.665 106,261.5C 106.333,254.167 106.667,246.833 107,239.5C 107.395,235.981 108.395,232.648 110,229.5C 110.498,226.183 110.665,222.85 110.5,219.5C 115.922,198.314 126.256,179.981 141.5,164.5C 146.522,160.992 151.189,156.825 155.5,152C 157.087,151.138 158.754,150.471 160.5,150C 164.241,146.484 167.908,142.984 171.5,139.5C 174.113,138.565 176.779,138.398 179.5,139C 175.826,141.157 176.493,141.99 181.5,141.5C 181.33,140.178 181.663,139.011 182.5,138C 181.833,137.667 181.167,137.333 180.5,137C 182.992,134.004 186.158,132.171 190,131.5C 193.085,132.132 196.252,132.132 199.5,131.5C 199.215,129.712 199.548,128.045 200.5,126.5C 205.559,124.131 210.892,122.631 216.5,122C 217.252,121.329 217.586,120.496 217.5,119.5C 217.833,119.5 218.167,119.5 218.5,119.5C 229.222,119.487 239.888,118.82 250.5,117.5C 250.043,122.201 249.376,126.868 248.5,131.5 Z"/></g>
<g><path style="opacity:1" fill="#696969" d="M 179.5,227.5 C 177.833,227.5 176.167,227.5 174.5,227.5C 174.827,236.682 174.493,245.682 173.5,254.5C 173.5,245.167 173.5,235.833 173.5,226.5C 175.735,226.205 177.735,226.539 179.5,227.5 Z"/></g>
<g><path style="opacity:1" fill="#f1f1f1" d="M 333.5,241.5 C 340.606,241.105 343.772,244.439 343,251.5C 338.491,256.778 334.158,256.778 330,251.5C 329.333,249.5 329.333,247.5 330,245.5C 331.376,244.295 332.542,242.962 333.5,241.5 Z"/></g>
<g><path style="opacity:1" fill="#4c8d36" d="M 135.5,226.5 C 131.601,241.734 130.601,257.067 132.5,272.5C 133.693,281.799 136.026,290.799 139.5,299.5C 137.709,297.315 135.875,294.982 134,292.5C 133.856,288.069 132.523,284.069 130,280.5C 130.132,274.507 130.132,268.507 130,262.5C 128.694,261.088 127.86,259.421 127.5,257.5C 129.373,247.47 131.373,237.47 133.5,227.5C 134.183,227.137 134.85,226.804 135.5,226.5 Z"/></g>
<g><path style="opacity:1" fill="#cac9c9" d="M 409.5,261.5 C 408.5,261.5 407.5,261.5 406.5,261.5C 406.859,250.712 406.192,240.045 404.5,229.5C 405.5,229.5 406.5,229.5 407.5,229.5C 408.909,240.113 409.575,250.78 409.5,261.5 Z"/></g>
<g><path style="opacity:1" fill="#e4f6db" d="M 91.5,241.5 C 91.082,252.346 91.082,263.013 91.5,273.5C 91.5,276.167 91.5,278.833 91.5,281.5C 90.8826,281.389 90.3826,281.056 90,280.5C 89.8333,275 89.6667,269.5 89.5,264C 89.2859,256.266 89.9526,248.766 91.5,241.5 Z"/></g>
<g><path style="opacity:1" fill="#9fc490" d="M 105.5,239.5 C 104.857,247.15 104.523,254.817 104.5,262.5C 100.629,262.815 96.9619,262.482 93.5,261.5C 93.1786,255.974 93.5119,250.64 94.5,245.5C 94.5,250.833 94.5,256.167 94.5,261.5C 97.5,261.5 100.5,261.5 103.5,261.5C 103.5,259.5 103.5,257.5 103.5,255.5C 103.376,249.931 104.043,244.598 105.5,239.5 Z"/></g>
<g><path style="opacity:1" fill="#707070" d="M 395.5,245.5 C 396.488,250.64 396.821,255.974 396.5,261.5C 399.833,261.5 403.167,261.5 406.5,261.5C 407.5,261.5 408.5,261.5 409.5,261.5C 410.167,261.5 410.5,261.833 410.5,262.5C 405.5,262.5 400.5,262.5 395.5,262.5C 395.5,256.833 395.5,251.167 395.5,245.5 Z"/></g>
<g><path style="opacity:1" fill="#b3b3b3" d="M 329.5,265.5 C 329.167,265.5 328.833,265.5 328.5,265.5C 327.306,264.223 325.64,263.556 323.5,263.5C 321.36,263.556 319.694,264.223 318.5,265.5C 317.596,264.791 317.263,263.791 317.5,262.5C 321.5,262.5 325.5,262.5 329.5,262.5C 329.5,263.5 329.5,264.5 329.5,265.5 Z"/></g>
<g><path style="opacity:1" fill="#e8e8e8" d="M 202.5,277.5 C 201.195,275.603 200.529,273.269 200.5,270.5C 200.833,268.167 201.167,265.833 201.5,263.5C 202.17,265.291 202.837,266.958 203.5,268.5C 205.167,268.5 206.833,268.5 208.5,268.5C 208.5,266.5 208.5,264.5 208.5,262.5C 209.5,262.5 210.5,262.5 211.5,262.5C 211.5,267.5 211.5,272.5 211.5,277.5C 210.5,277.5 209.5,277.5 208.5,277.5C 208.5,275.5 208.5,273.5 208.5,271.5C 206.833,271.5 205.167,271.5 203.5,271.5C 203.795,273.735 203.461,275.735 202.5,277.5 Z"/></g>
<g><path style="opacity:1" fill="#e0e0e0" d="M 223.5,262.5 C 224.833,262.5 226.167,262.5 227.5,262.5C 228.975,267.394 230.308,272.394 231.5,277.5C 229.535,276.871 227.535,276.204 225.5,275.5C 223.465,276.204 221.465,276.871 219.5,277.5C 220.43,272.378 221.764,267.378 223.5,262.5 Z"/></g>
<g><path style="opacity:1" fill="#dcdcdc" d="M 258.5,265.5 C 256.833,265.5 255.167,265.5 253.5,265.5C 253.5,269.5 253.5,273.5 253.5,277.5C 252.5,277.5 251.5,277.5 250.5,277.5C 250.5,273.5 250.5,269.5 250.5,265.5C 249.167,265.5 247.833,265.5 246.5,265.5C 246.5,264.5 246.5,263.5 246.5,262.5C 250.5,262.5 254.5,262.5 258.5,262.5C 258.5,263.5 258.5,264.5 258.5,265.5 Z"/></g>
<g><path style="opacity:1" fill="#e8e8e8" d="M 287.5,272.5 C 285.833,272.5 284.167,272.5 282.5,272.5C 282.5,274.167 282.5,275.833 282.5,277.5C 281.5,277.5 280.5,277.5 279.5,277.5C 279.5,272.5 279.5,267.5 279.5,262.5C 282.518,262.335 285.518,262.502 288.5,263C 291.373,266.579 291.04,269.745 287.5,272.5 Z"/></g>
<g><path style="opacity:1" fill="#e2e2e2" d="M 305.5,262.5 C 308.187,262.336 310.854,262.503 313.5,263C 317.087,265.694 317.421,268.861 314.5,272.5C 315.167,273.833 315.833,275.167 316.5,276.5C 313.737,277.784 312.07,276.784 311.5,273.5C 310.675,272.614 309.675,272.281 308.5,272.5C 308.5,274.167 308.5,275.833 308.5,277.5C 307.5,277.5 306.5,277.5 305.5,277.5C 305.5,272.5 305.5,267.5 305.5,262.5 Z"/></g>
<g><path style="opacity:1" fill="#d9d9d9" d="M 332.5,262.5 C 334.857,262.337 337.19,262.503 339.5,263C 341.037,264.11 341.703,265.61 341.5,267.5C 339.263,266.551 336.929,265.884 334.5,265.5C 334.281,266.675 334.614,267.675 335.5,268.5C 339.87,269.02 341.703,271.354 341,275.5C 337.582,279.367 334.249,279.367 331,275.5C 330.409,274.517 330.743,273.85 332,273.5C 334.321,276.122 336.487,276.122 338.5,273.5C 336.207,271.948 333.707,270.615 331,269.5C 330.167,266.829 330.667,264.496 332.5,262.5 Z"/></g>
<g><path style="opacity:1" fill="#eaeaea" d="M 328.5,265.5 C 327.167,265.5 325.833,265.5 324.5,265.5C 324.5,269.5 324.5,273.5 324.5,277.5C 323.5,277.5 322.5,277.5 321.5,277.5C 321.5,273.5 321.5,269.5 321.5,265.5C 320.5,265.5 319.5,265.5 318.5,265.5C 319.694,264.223 321.36,263.556 323.5,263.5C 325.64,263.556 327.306,264.223 328.5,265.5 Z"/></g>
<g><path style="opacity:1" fill="#1a1a1a" d="M 283.5,265.5 C 287.035,265.337 288.035,266.67 286.5,269.5C 285.5,269.5 284.5,269.5 283.5,269.5C 283.5,268.167 283.5,266.833 283.5,265.5 Z"/></g>
<g><path style="opacity:1" fill="#242424" d="M 308.5,265.5 C 311.95,264.756 313.616,266.09 313.5,269.5C 311.833,269.5 310.167,269.5 308.5,269.5C 308.5,268.167 308.5,266.833 308.5,265.5 Z"/></g>
<g><path style="opacity:1" fill="#606060" d="M 328.5,265.5 C 328.833,265.5 329.167,265.5 329.5,265.5C 328.432,266.434 327.099,266.768 325.5,266.5C 325.815,270.371 325.482,274.038 324.5,277.5C 324.5,273.5 324.5,269.5 324.5,265.5C 325.833,265.5 327.167,265.5 328.5,265.5 Z"/></g>
<g><path style="opacity:1" fill="#959595" d="M 203.5,268.5 C 202.837,266.958 202.17,265.291 201.5,263.5C 201.167,265.833 200.833,268.167 200.5,270.5C 200.529,273.269 201.195,275.603 202.5,277.5C 201.791,278.404 200.791,278.737 199.5,278.5C 199.5,273.167 199.5,267.833 199.5,262.5C 200.833,262.5 202.167,262.5 203.5,262.5C 203.5,264.5 203.5,266.5 203.5,268.5 Z"/></g>
<g><path style="opacity:1" fill="#dedede" d="M 176.5,262.5 C 177.833,262.5 179.167,262.5 180.5,262.5C 182.288,267.313 183.621,272.313 184.5,277.5C 182.633,277.045 180.8,276.378 179,275.5C 177.449,276.054 175.949,276.72 174.5,277.5C 173.833,277.167 173.167,276.833 172.5,276.5C 174.047,271.862 175.381,267.195 176.5,262.5 Z"/></g>
<g><path style="opacity:1" fill="#777777" d="M 283.5,265.5 C 283.5,266.833 283.5,268.167 283.5,269.5C 284.5,269.5 285.5,269.5 286.5,269.5C 285.432,270.434 284.099,270.768 282.5,270.5C 282.216,268.585 282.549,266.919 283.5,265.5 Z"/></g>
<g><path style="opacity:1" fill="#ebebeb" d="M 160.5,262.5 C 161.5,262.5 162.5,262.5 163.5,262.5C 163.138,270.081 164.471,270.247 167.5,263C 168.635,262.251 169.635,262.417 170.5,263.5C 169.62,265.429 168.62,267.263 167.5,269C 168.57,271.806 169.903,274.473 171.5,277C 170.5,277.667 169.5,277.667 168.5,277C 167.044,275.255 165.711,273.422 164.5,271.5C 163.534,273.396 163.201,275.396 163.5,277.5C 162.5,277.5 161.5,277.5 160.5,277.5C 160.5,272.5 160.5,267.5 160.5,262.5 Z"/></g>
<g><path style="opacity:1" fill="#dedede" d="M 295.5,262.5 C 296.978,262.238 298.311,262.571 299.5,263.5C 301.147,268.091 302.481,272.757 303.5,277.5C 301.535,276.871 299.535,276.204 297.5,275.5C 295.465,276.204 293.465,276.871 291.5,277.5C 292.431,272.376 293.765,267.376 295.5,262.5 Z"/></g>
<g><path style="opacity:1" fill="#3f3f3f" d="M 178.5,267.5 C 179.339,268.641 180.006,269.974 180.5,271.5C 179.675,272.386 178.675,272.719 177.5,272.5C 177.366,270.708 177.699,269.042 178.5,267.5 Z"/></g>
<g><path style="opacity:1" fill="#2d2d2d" d="M 224.5,268.5 C 225.586,268.62 226.253,269.287 226.5,270.5C 226.167,271.167 225.833,271.833 225.5,272.5C 224.571,271.311 224.238,269.978 224.5,268.5 Z"/></g>
<g><path style="opacity:1" fill="#2f2f2f" d="M 296.5,268.5 C 297.586,268.62 298.253,269.287 298.5,270.5C 298.167,271.167 297.833,271.833 297.5,272.5C 296.571,271.311 296.238,269.978 296.5,268.5 Z"/></g>
<g><path style="opacity:1" fill="#55933b" d="M 110.5,219.5 C 110.665,222.85 110.498,226.183 110,229.5C 108.395,232.648 107.395,235.981 107,239.5C 106.667,246.833 106.333,254.167 106,261.5C 104.839,263.665 103.006,264.665 100.5,264.5C 97.8599,263.905 95.1933,263.572 92.5,263.5C 93.1667,272.167 93.8333,280.833 94.5,289.5C 93.5,286.833 92.5,284.167 91.5,281.5C 91.5,278.833 91.5,276.167 91.5,273.5C 91.3347,269.818 91.5014,266.152 92,262.5C 92.3826,261.944 92.8826,261.611 93.5,261.5C 96.9619,262.482 100.629,262.815 104.5,262.5C 104.523,254.817 104.857,247.15 105.5,239.5C 106.169,232.456 107.836,225.79 110.5,219.5 Z"/></g>
<g><path style="opacity:1" fill="#686868" d="M 258.5,265.5 C 257.432,266.434 256.099,266.768 254.5,266.5C 254.815,270.371 254.482,274.038 253.5,277.5C 253.5,273.5 253.5,269.5 253.5,265.5C 255.167,265.5 256.833,265.5 258.5,265.5 Z"/></g>
<g><path style="opacity:1" fill="#656565" d="M 287.5,272.5 C 286.432,273.434 285.099,273.768 283.5,273.5C 283.768,275.099 283.434,276.432 282.5,277.5C 282.5,275.833 282.5,274.167 282.5,272.5C 284.167,272.5 285.833,272.5 287.5,272.5 Z"/></g>
<g><path style="opacity:1" fill="#dddddd" d="M 188.5,262.5 C 190.857,262.337 193.19,262.503 195.5,263C 197.037,264.11 197.703,265.61 197.5,267.5C 195.184,266.64 192.851,266.14 190.5,266C 189.39,268.737 189.223,271.571 190,274.5C 190.561,275.022 191.228,275.355 192,275.5C 193.482,273.888 195.315,272.888 197.5,272.5C 195.743,279.15 192.243,280.15 187,275.5C 186.055,270.939 186.555,266.606 188.5,262.5 Z"/></g>
<g><path style="opacity:1" fill="#dcdcdc" d="M 233.5,262.5 C 234.5,262.5 235.5,262.5 236.5,262.5C 236.334,266.514 236.501,270.514 237,274.5C 238.333,275.833 239.667,275.833 241,274.5C 241.499,270.514 241.666,266.514 241.5,262.5C 242.5,262.5 243.5,262.5 244.5,262.5C 244.666,266.846 244.499,271.179 244,275.5C 240.714,279.485 237.381,279.485 234,275.5C 233.501,271.179 233.334,266.846 233.5,262.5 Z"/></g>
<g><path style="opacity:1" fill="#dedede" d="M 262.5,262.5 C 271.13,262.628 273.964,266.961 271,275.5C 266.845,279.704 263.178,279.371 260,274.5C 258.773,269.938 259.607,265.938 262.5,262.5 Z"/></g>
<g><path style="opacity:1" fill="#121212" d="M 263.5,265.5 C 265.144,265.286 266.644,265.62 268,266.5C 268.667,268.833 268.667,271.167 268,273.5C 266.604,275.527 264.938,275.86 263,274.5C 262.264,271.408 262.431,268.408 263.5,265.5 Z"/></g>
<g><path style="opacity:1" fill="#e2eddb" d="M 132.5,272.5 C 133.5,272.5 134.5,272.5 135.5,272.5C 145.122,318.78 172.122,349.78 216.5,365.5C 214.973,365.427 213.973,366.094 213.5,367.5C 212.833,367.5 212.167,367.5 211.5,367.5C 210.167,367.167 208.833,366.833 207.5,366.5C 200.872,363.186 194.205,359.853 187.5,356.5C 183.194,352.679 178.527,349.345 173.5,346.5C 168.833,341.167 163.833,336.167 158.5,331.5C 151.38,321.583 145.047,311.25 139.5,300.5C 139.5,300.167 139.5,299.833 139.5,299.5C 136.026,290.799 133.693,281.799 132.5,272.5 Z"/></g>
<g><path style="opacity:1" fill="#bbbbbb" d="M 194.5,313.5 C 194.5,315.167 194.5,316.833 194.5,318.5C 193.761,318.369 193.094,318.536 192.5,319C 193.946,323.783 192.279,327.283 187.5,329.5C 185.545,330.323 183.545,330.49 181.5,330C 182.833,328 184.167,326 185.5,324C 187.167,324.333 188.833,324.667 190.5,325C 189.643,324.311 188.977,323.478 188.5,322.5C 193.767,313.783 192.101,306.95 183.5,302C 176.183,300.829 171.183,303.662 168.5,310.5C 166.171,312.002 164.837,311.336 164.5,308.5C 166.809,301.86 171.476,298.193 178.5,297.5C 178.833,301.5 179.167,301.5 179.5,297.5C 181.167,297.5 182.833,297.5 184.5,297.5C 184.259,300.999 185.092,301.332 187,298.5C 193.487,302.126 195.987,307.126 194.5,313.5 Z"/></g>
<g><path style="opacity:1" fill="#c1c1c1" d="M 340.5,311.5 C 336.5,311.833 336.5,312.167 340.5,312.5C 340.5,313.833 340.5,315.167 340.5,316.5C 340.229,320.13 338.562,321.13 335.5,319.5C 338.058,307.094 333.058,301.261 320.5,302C 312.45,306.121 310.45,312.288 314.5,320.5C 314.297,322.39 314.963,323.89 316.5,325C 315.934,325.995 315.267,326.828 314.5,327.5C 310.407,325.742 309.741,323.242 312.5,320C 311.451,319.508 310.451,319.674 309.5,320.5C 305.904,312.487 307.57,305.653 314.5,300C 315.742,299.689 316.742,300.189 317.5,301.5C 318.429,300.311 318.762,298.978 318.5,297.5C 320.167,297.5 321.833,297.5 323.5,297.5C 323.833,301.5 324.167,301.5 324.5,297.5C 326.5,297.5 328.5,297.5 330.5,297.5C 330.343,298.873 330.51,300.207 331,301.5C 333.429,298.857 335.262,299.357 336.5,303C 336.355,303.772 336.022,304.439 335.5,305C 336.825,304.852 337.992,305.018 339,305.5C 340.128,307.345 340.628,309.345 340.5,311.5 Z"/></g>
<g><path style="opacity:1" fill="#c7dfbd" d="M 255.5,297.5 C 257.415,297.216 259.081,297.549 260.5,298.5C 257.723,303.947 256.057,303.614 255.5,297.5 Z"/></g>
<g><path style="opacity:1" fill="#bcdbac" d="M 248.5,298.5 C 250.176,299.183 250.843,300.517 250.5,302.5C 248.027,302.912 246.694,301.912 246.5,299.5C 247.167,299.167 247.833,298.833 248.5,298.5 Z"/></g>
<g><path style="opacity:1" fill="#cde7c4" d="M 264.5,300.5 C 265.167,300.833 265.833,301.167 266.5,301.5C 266.25,302.922 265.417,303.922 264,304.5C 263.235,302.934 263.402,301.601 264.5,300.5 Z"/></g>
<g><path style="opacity:1" fill="#181818" d="M 187.5,329.5 C 187.649,330.552 187.483,331.552 187,332.5C 184.959,331.577 182.792,331.244 180.5,331.5C 180.5,330.5 180.5,329.5 180.5,328.5C 180.577,327.25 181.244,326.417 182.5,326C 179.487,325.498 176.487,324.998 173.5,324.5C 172.207,322.704 170.707,321.037 169,319.5C 168.517,318.552 168.351,317.552 168.5,316.5C 168.5,314.5 168.5,312.5 168.5,310.5C 171.183,303.662 176.183,300.829 183.5,302C 192.101,306.95 193.767,313.783 188.5,322.5C 188.977,323.478 189.643,324.311 190.5,325C 188.833,324.667 187.167,324.333 185.5,324C 184.167,326 182.833,328 181.5,330C 183.545,330.49 185.545,330.323 187.5,329.5 Z"/></g>
<g><path style="opacity:1" fill="#e7e7e7" d="M 194.5,318.5 C 194.5,316.833 194.5,315.167 194.5,313.5C 195.5,313.5 196.5,313.5 197.5,313.5C 197.296,310.482 196.963,307.482 196.5,304.5C 197.873,304.657 199.207,304.49 200.5,304C 201.572,301.346 203.239,299.179 205.5,297.5C 207.747,298.374 210.08,298.708 212.5,298.5C 212.5,297.167 212.5,295.833 212.5,294.5C 214.167,294.5 215.833,294.5 217.5,294.5C 217.281,295.675 217.614,296.675 218.5,297.5C 221.457,298.182 224.457,298.348 227.5,298C 227.833,299.667 228.167,301.333 228.5,303C 230.345,304.128 232.345,304.628 234.5,304.5C 234.167,307.167 233.833,309.833 233.5,312.5C 234.5,312.5 235.5,312.5 236.5,312.5C 236.429,315.139 235.429,317.306 233.5,319C 234.856,320.567 235.523,322.4 235.5,324.5C 231.097,323.893 229.764,325.56 231.5,329.5C 229.997,332.282 227.663,333.115 224.5,332C 223.859,334.13 222.526,335.63 220.5,336.5C 217.558,333.853 214.558,333.853 211.5,336.5C 209.428,335.535 207.761,334.035 206.5,332C 204.555,332.128 202.722,331.962 201,331.5C 200.805,329.793 200.805,328.126 201,326.5C 198.877,326.034 197.377,324.867 196.5,323C 197.459,320.88 197.626,318.713 197,316.5C 196.581,317.672 195.915,318.672 195,319.5C 194.601,319.272 194.435,318.938 194.5,318.5 Z"/></g>
<g><path style="opacity:1" fill="#eeeeee" d="M 294.5,304.5 C 303.035,307.036 306.702,312.87 305.5,322C 306.244,328.719 304.244,334.386 299.5,339C 297.975,340.009 296.308,340.509 294.5,340.5C 294.062,340.565 293.728,340.399 293.5,340C 297.563,337.398 298.896,333.898 297.5,329.5C 298.117,329.611 298.617,329.944 299,330.5C 299.918,324.009 299.418,317.675 297.5,311.5C 296.989,308.978 295.989,306.645 294.5,304.5 Z"/></g>
<g><path style="opacity:1" fill="#578842" d="M 248.5,298.5 C 250.607,297.532 252.941,297.198 255.5,297.5C 256.057,303.614 257.723,303.947 260.5,298.5C 262.153,298.66 263.486,299.326 264.5,300.5C 263.402,301.601 263.235,302.934 264,304.5C 265.417,303.922 266.25,302.922 266.5,301.5C 268.738,302.853 270.071,304.853 270.5,307.5C 269.5,307.5 268.5,307.5 267.5,307.5C 267.5,308.5 267.5,309.5 267.5,310.5C 268.822,310.33 269.989,310.663 271,311.5C 271.464,310.906 271.631,310.239 271.5,309.5C 272.404,310.209 272.737,311.209 272.5,312.5C 270.273,314.229 269.273,316.562 269.5,319.5C 270.5,319.5 271.5,319.5 272.5,319.5C 271.976,321.306 271.309,322.972 270.5,324.5C 269.186,321.261 267.853,321.095 266.5,324C 266.639,325.301 267.305,326.134 268.5,326.5C 268.573,328.027 267.906,329.027 266.5,329.5C 262.84,326.174 261.84,326.841 263.5,331.5C 262.329,332.345 260.995,333.011 259.5,333.5C 259.167,332.833 258.833,332.167 258.5,331.5C 261.205,331.62 261.872,330.62 260.5,328.5C 257.358,327.833 254.358,327.166 251.5,326.5C 262.939,326.311 267.105,320.645 264,309.5C 259.527,304.255 254.027,303.089 247.5,306C 246.023,307.812 244.69,309.645 243.5,311.5C 243.672,310.508 243.338,309.842 242.5,309.5C 243.462,307.547 243.795,305.714 243.5,304C 242.906,303.536 242.239,303.369 241.5,303.5C 242.579,301.457 244.246,300.124 246.5,299.5C 246.694,301.912 248.027,302.912 250.5,302.5C 250.843,300.517 250.176,299.183 248.5,298.5 Z"/></g>
<g><path style="opacity:1" fill="#0b0b0b" d="M 210.5,307.5 C 221.21,305.712 225.71,310.045 224,320.5C 219.099,326.629 213.933,326.963 208.5,321.5C 205.483,316.273 206.149,311.607 210.5,307.5 Z"/></g>
<g><path style="opacity:1" fill="#ebf5e8" d="M 251.5,326.5 C 248.325,326.16 246.159,324.493 245,321.5C 243.801,318.274 243.301,314.941 243.5,311.5C 244.69,309.645 246.023,307.812 247.5,306C 254.027,303.089 259.527,304.255 264,309.5C 267.105,320.645 262.939,326.311 251.5,326.5 Z"/></g>
<g><path style="opacity:1" fill="#767676" d="M 287.5,303.5 C 287.833,304.167 288.167,304.833 288.5,305.5C 284.445,305.884 281.445,307.884 279.5,311.5C 280.5,307.167 283.167,304.5 287.5,303.5 Z"/></g>
<g><path style="opacity:1" fill="#8a8c88" d="M 252.5,309.5 C 246.65,314.777 247.484,318.777 255,321.5C 259.126,319.819 260.46,316.819 259,312.5C 257.855,311.364 256.688,310.364 255.5,309.5C 255.506,308.583 254.506,308.083 252.5,308C 262.071,308.297 264.571,312.797 260,321.5C 250.223,325.397 245.89,322.064 247,311.5C 248.338,308.918 250.171,308.251 252.5,309.5 Z"/></g>
<g><path style="opacity:1" fill="#2d2d2e" d="M 288.5,305.5 C 289.167,305.5 289.5,305.833 289.5,306.5C 288.391,307.29 287.058,307.79 285.5,308C 284.402,308.77 284.402,309.603 285.5,310.5C 282.5,310.167 281.167,311.5 281.5,314.5C 280.389,319.416 280.222,324.416 281,329.5C 281.278,330.416 281.778,331.082 282.5,331.5C 283.287,333.104 284.62,333.771 286.5,333.5C 284.924,334.143 283.59,335.143 282.5,336.5C 282.167,336.5 281.833,336.5 281.5,336.5C 279.864,335.251 278.697,333.584 278,331.5C 277.333,325.5 277.333,319.5 278,313.5C 278.278,312.584 278.778,311.918 279.5,311.5C 281.445,307.884 284.445,305.884 288.5,305.5 Z"/></g>
<g><path style="opacity:1" fill="#8caf82" d="M 241.5,303.5 C 242.239,303.369 242.906,303.536 243.5,304C 243.795,305.714 243.462,307.547 242.5,309.5C 241.5,309.5 240.5,309.5 239.5,309.5C 240.212,312.925 240.212,316.258 239.5,319.5C 237.746,313.903 238.412,308.57 241.5,303.5 Z"/></g>
<g><path style="opacity:1" fill="#0e0f0f" d="M 252.5,309.5 C 253.5,309.5 254.5,309.5 255.5,309.5C 256.688,310.364 257.855,311.364 259,312.5C 260.46,316.819 259.126,319.819 255,321.5C 247.484,318.777 246.65,314.777 252.5,309.5 Z"/></g>
<g><path style="opacity:1" fill="#b9cbb4" d="M 270.5,307.5 C 271.338,307.842 271.672,308.508 271.5,309.5C 271.631,310.239 271.464,310.906 271,311.5C 269.989,310.663 268.822,310.33 267.5,310.5C 267.5,309.5 267.5,308.5 267.5,307.5C 268.5,307.5 269.5,307.5 270.5,307.5 Z"/></g>
<g><path style="opacity:1" fill="#a6a6a7" d="M 285.5,310.5 C 285.5,311.833 285.5,313.167 285.5,314.5C 284.167,314.5 282.833,314.5 281.5,314.5C 281.167,311.5 282.5,310.167 285.5,310.5 Z"/></g>
<g><path style="opacity:1" fill="#7a7a7a" d="M 164.5,308.5 C 164.837,311.336 166.171,312.002 168.5,310.5C 168.5,312.5 168.5,314.5 168.5,316.5C 167.704,314.164 166.038,312.831 163.5,312.5C 163.232,310.901 163.566,309.568 164.5,308.5 Z"/></g>
<g><path style="opacity:1" fill="#56963a" d="M 99.5,307.5 C 101.043,308.736 102.043,310.402 102.5,312.5C 104.567,313.134 106.4,314.134 108,315.5C 110.498,318.101 109.998,319.435 106.5,319.5C 107.812,323.098 109.146,326.765 110.5,330.5C 112.89,331.922 114.89,333.756 116.5,336C 116.043,336.414 115.709,336.914 115.5,337.5C 117.705,340.577 119.372,343.91 120.5,347.5C 119.833,347.167 119.167,346.833 118.5,346.5C 115.079,340.655 111.413,334.988 107.5,329.5C 105.941,323.823 103.608,318.489 100.5,313.5C 100.483,311.435 100.15,309.435 99.5,307.5 Z"/></g>
<g><path style="opacity:1" fill="#0c0c0c" d="M 289.5,306.5 C 290.833,307.167 291.833,308.167 292.5,309.5C 292.5,309.833 292.5,310.167 292.5,310.5C 288.502,312.474 286.502,315.808 286.5,320.5C 286.86,324.273 287.693,327.939 289,331.5C 289.708,332.381 290.542,333.047 291.5,333.5C 293.752,334.957 293.419,336.457 290.5,338C 288.167,338.667 285.833,338.667 283.5,338C 282.944,337.617 282.611,337.117 282.5,336.5C 283.59,335.143 284.924,334.143 286.5,333.5C 288.017,330.505 287.017,329.339 283.5,330C 282.944,330.383 282.611,330.883 282.5,331.5C 281.778,331.082 281.278,330.416 281,329.5C 280.222,324.416 280.389,319.416 281.5,314.5C 282.833,314.5 284.167,314.5 285.5,314.5C 285.5,313.167 285.5,311.833 285.5,310.5C 284.402,309.603 284.402,308.77 285.5,308C 287.058,307.79 288.391,307.29 289.5,306.5 Z"/></g>
<g><path style="opacity:1" fill="#9d9d9d" d="M 287.5,303.5 C 290.059,303.198 292.393,303.532 294.5,304.5C 295.989,306.645 296.989,308.978 297.5,311.5C 296.637,310.537 295.97,310.537 295.5,311.5C 297.299,317.341 297.966,323.341 297.5,329.5C 296.833,330.167 296.167,330.833 295.5,331.5C 296.496,326.537 296.663,321.537 296,316.5C 295.33,313.826 294.163,311.493 292.5,309.5C 291.833,308.167 290.833,307.167 289.5,306.5C 289.5,305.833 289.167,305.5 288.5,305.5C 288.167,304.833 287.833,304.167 287.5,303.5 Z"/></g>
<g><path style="opacity:1" fill="#5a5a5a" d="M 340.5,311.5 C 341.833,313.167 341.833,314.833 340.5,316.5C 340.5,315.167 340.5,313.833 340.5,312.5C 336.5,312.167 336.5,311.833 340.5,311.5 Z"/></g>
<g><path style="opacity:1" fill="#dcf0cf" d="M 100.5,313.5 C 103.608,318.489 105.941,323.823 107.5,329.5C 105.253,325.989 103.087,322.322 101,318.5C 100.506,316.866 100.34,315.199 100.5,313.5 Z"/></g>
<g><path style="opacity:1" fill="#3e3e3e" d="M 297.5,311.5 C 299.418,317.675 299.918,324.009 299,330.5C 298.617,329.944 298.117,329.611 297.5,329.5C 297.966,323.341 297.299,317.341 295.5,311.5C 295.97,310.537 296.637,310.537 297.5,311.5 Z"/></g>
<g><path style="opacity:1" fill="#191919" d="M 335.5,319.5 C 332.297,321.529 331.964,323.862 334.5,326.5C 334.027,327.906 333.027,328.573 331.5,328.5C 332.976,326.77 332.642,325.437 330.5,324.5C 326.803,325.827 323.136,325.827 319.5,324.5C 317.651,323.407 315.984,322.074 314.5,320.5C 310.45,312.288 312.45,306.121 320.5,302C 333.058,301.261 338.058,307.094 335.5,319.5 Z"/></g>
<g><path style="opacity:1" fill="#e8e8e8" d="M 320.5,304.5 C 330.158,302.993 334.325,306.993 333,316.5C 330.367,321.732 326.201,323.565 320.5,322C 313.853,316.044 313.853,310.211 320.5,304.5 Z"/></g>
<g><path style="opacity:1" fill="#111111" d="M 318.5,315.5 C 318.5,314.167 318.5,312.833 318.5,311.5C 319.222,311.918 319.722,312.584 320,313.5C 321.845,309.205 324.512,308.538 328,311.5C 329.393,315.202 328.226,317.202 324.5,317.5C 322.307,317.281 320.307,316.615 318.5,315.5 Z"/></g>
<g><path style="opacity:1" fill="#989898" d="M 318.5,315.5 C 320.307,316.615 322.307,317.281 324.5,317.5C 328.226,317.202 329.393,315.202 328,311.5C 324.512,308.538 321.845,309.205 320,313.5C 319.722,312.584 319.222,311.918 318.5,311.5C 320.848,307.544 324.181,306.544 328.5,308.5C 331.381,312.363 331.048,315.863 327.5,319C 323.438,320.336 320.438,319.169 318.5,315.5 Z"/></g>
<g><path style="opacity:1" fill="#dee8d8" d="M 272.5,312.5 C 272.5,314.833 272.5,317.167 272.5,319.5C 271.5,319.5 270.5,319.5 269.5,319.5C 269.273,316.562 270.273,314.229 272.5,312.5 Z"/></g>
<g><path style="opacity:1" fill="#dfdfdf" d="M 292.5,310.5 C 292.539,311.583 292.873,312.583 293.5,313.5C 292.476,314.852 291.476,316.185 290.5,317.5C 289.003,321.851 289.67,325.851 292.5,329.5C 292.5,330.167 292.833,330.5 293.5,330.5C 293.715,332.179 293.048,333.179 291.5,333.5C 290.542,333.047 289.708,332.381 289,331.5C 287.693,327.939 286.86,324.273 286.5,320.5C 286.502,315.808 288.502,312.474 292.5,310.5 Z"/></g>
<g><path style="opacity:1" fill="#111111" d="M 292.5,329.5 C 289.67,325.851 289.003,321.851 290.5,317.5C 291.88,318.706 293.047,318.373 294,316.5C 294.667,320.5 294.667,324.5 294,328.5C 293.617,329.056 293.117,329.389 292.5,329.5 Z"/></g>
<g><path style="opacity:1" fill="#373737" d="M 292.5,309.5 C 294.163,311.493 295.33,313.826 296,316.5C 296.663,321.537 296.496,326.537 295.5,331.5C 294.833,331.167 294.167,330.833 293.5,330.5C 292.833,330.5 292.5,330.167 292.5,329.5C 293.117,329.389 293.617,329.056 294,328.5C 294.667,324.5 294.667,320.5 294,316.5C 293.047,318.373 291.88,318.706 290.5,317.5C 291.476,316.185 292.476,314.852 293.5,313.5C 292.873,312.583 292.539,311.583 292.5,310.5C 292.5,310.167 292.5,309.833 292.5,309.5 Z"/></g>
<g><path style="opacity:1" fill="#5a9542" d="M 139.5,300.5 C 145.047,311.25 151.38,321.583 158.5,331.5C 156.858,329.919 154.858,329.253 152.5,329.5C 153.401,325.759 152.068,323.759 148.5,323.5C 147.234,317.638 144.401,312.638 140,308.5C 139.503,305.854 139.336,303.187 139.5,300.5 Z"/></g>
<g><path style="opacity:1" fill="#e3e3e3" d="M 176.5,304.5 C 185.495,303.663 189.661,307.663 189,316.5C 185.608,322.467 180.774,323.967 174.5,321C 168.744,314.633 169.411,309.133 176.5,304.5 Z"/></g>
<g><path style="opacity:1" fill="#979797" d="M 181.5,318.5 C 182.685,317.143 183.685,315.643 184.5,314C 184.257,313.098 183.923,312.265 183.5,311.5C 184.397,310.402 185.23,310.402 186,311.5C 186.755,314.497 185.922,316.997 183.5,319C 182.563,319.692 181.897,319.525 181.5,318.5 Z"/></g>
<g><path style="opacity:1" fill="#929292" d="M 178.5,309.5 C 175.589,311.572 174.922,314.238 176.5,317.5C 172.887,315.176 172.553,312.343 175.5,309C 177.365,307.699 179.365,307.365 181.5,308C 180.263,308.232 179.263,308.732 178.5,309.5 Z"/></g>
<g><path style="opacity:1" fill="#101010" d="M 178.5,309.5 C 180.698,309.12 182.365,309.787 183.5,311.5C 183.923,312.265 184.257,313.098 184.5,314C 183.685,315.643 182.685,317.143 181.5,318.5C 179.784,318.371 178.117,318.038 176.5,317.5C 174.922,314.238 175.589,311.572 178.5,309.5 Z"/></g>
<g><path style="opacity:1" fill="#5a5b5b" d="M 166.5,323.5 C 165.599,322.71 164.932,321.71 164.5,320.5C 167.399,319.506 168.066,320.506 166.5,323.5 Z"/></g>
<g><path style="opacity:1" fill="#cecfcf" d="M 163.5,312.5 C 166.038,312.831 167.704,314.164 168.5,316.5C 168.351,317.552 168.517,318.552 169,319.5C 170.707,321.037 172.207,322.704 173.5,324.5C 172.839,325.718 172.172,327.051 171.5,328.5C 169.479,327.145 167.812,325.479 166.5,323.5C 168.066,320.506 167.399,319.506 164.5,320.5C 163.612,317.946 163.279,315.279 163.5,312.5 Z"/></g>
<g><path style="opacity:1" fill="#5c5c5c" d="M 314.5,320.5 C 315.984,322.074 317.651,323.407 319.5,324.5C 317.273,325.401 316.273,327.067 316.5,329.5C 315.5,329.167 314.833,328.5 314.5,327.5C 315.267,326.828 315.934,325.995 316.5,325C 314.963,323.89 314.297,322.39 314.5,320.5 Z"/></g>
<g><path style="opacity:1" fill="#d3d3d3" d="M 335.5,319.5 C 338.351,322.283 338.017,324.616 334.5,326.5C 331.964,323.862 332.297,321.529 335.5,319.5 Z"/></g>
<g><path style="opacity:1" fill="#bbd4b3" d="M 270.5,324.5 C 270.167,325.5 269.5,326.167 268.5,326.5C 267.305,326.134 266.639,325.301 266.5,324C 267.853,321.095 269.186,321.261 270.5,324.5 Z"/></g>
<g><path style="opacity:1" fill="#dad9da" d="M 173.5,324.5 C 176.487,324.998 179.487,325.498 182.5,326C 181.244,326.417 180.577,327.25 180.5,328.5C 176.107,328.457 175.774,328.957 179.5,330C 178.552,330.483 177.552,330.649 176.5,330.5C 175.5,330.5 174.5,330.5 173.5,330.5C 173.5,328.5 173.5,326.5 173.5,324.5 Z"/></g>
<g><path style="opacity:1" fill="#cecece" d="M 319.5,324.5 C 323.136,325.827 326.803,325.827 330.5,324.5C 332.642,325.437 332.976,326.77 331.5,328.5C 330.71,329.401 329.71,330.068 328.5,330.5C 327.5,330.5 326.5,330.5 325.5,330.5C 325.33,329.178 325.663,328.011 326.5,327C 325.552,326.517 324.552,326.351 323.5,326.5C 323.33,327.822 323.663,328.989 324.5,330C 323.207,330.49 321.873,330.657 320.5,330.5C 319.167,330.167 317.833,329.833 316.5,329.5C 316.273,327.067 317.273,325.401 319.5,324.5 Z"/></g>
<g><path style="opacity:1" fill="#4e9139" d="M 242.5,309.5 C 243.338,309.842 243.672,310.508 243.5,311.5C 243.301,314.941 243.801,318.274 245,321.5C 246.159,324.493 248.325,326.16 251.5,326.5C 254.358,327.166 257.358,327.833 260.5,328.5C 261.872,330.62 261.205,331.62 258.5,331.5C 257.791,330.596 256.791,330.263 255.5,330.5C 255.5,331.5 255.5,332.5 255.5,333.5C 252.832,333.166 250.832,331.833 249.5,329.5C 248.232,330.428 246.899,330.595 245.5,330C 244.167,329 244.167,328 245.5,327C 242.309,326.273 240.309,324.439 239.5,321.5C 239.5,320.833 239.5,320.167 239.5,319.5C 240.212,316.258 240.212,312.925 239.5,309.5C 240.5,309.5 241.5,309.5 242.5,309.5 Z"/></g>
<g><path style="opacity:1" fill="#b5d1ad" d="M 266.5,329.5 C 266.027,330.906 265.027,331.573 263.5,331.5C 261.84,326.841 262.84,326.174 266.5,329.5 Z"/></g>
<g><path style="opacity:1" fill="#818181" d="M 180.5,328.5 C 180.5,329.5 180.5,330.5 180.5,331.5C 178.901,331.768 177.568,331.434 176.5,330.5C 177.552,330.649 178.552,330.483 179.5,330C 175.774,328.957 176.107,328.457 180.5,328.5 Z"/></g>
<g><path style="opacity:1" fill="#88a580" d="M 239.5,321.5 C 240.309,324.439 242.309,326.273 245.5,327C 244.167,328 244.167,329 245.5,330C 246.899,330.595 248.232,330.428 249.5,329.5C 250.832,331.833 252.832,333.166 255.5,333.5C 256.5,333.5 257.5,333.5 258.5,333.5C 248.259,335.872 241.925,331.872 239.5,321.5 Z"/></g>
<g><path style="opacity:1" fill="#4c4c4c" d="M 328.5,330.5 C 325.833,331.833 323.167,331.833 320.5,330.5C 321.873,330.657 323.207,330.49 324.5,330C 323.663,328.989 323.33,327.822 323.5,326.5C 324.552,326.351 325.552,326.517 326.5,327C 325.663,328.011 325.33,329.178 325.5,330.5C 326.5,330.5 327.5,330.5 328.5,330.5 Z"/></g>
<g><path style="opacity:1" fill="#cacaca" d="M 286.5,333.5 C 284.62,333.771 283.287,333.104 282.5,331.5C 282.611,330.883 282.944,330.383 283.5,330C 287.017,329.339 288.017,330.505 286.5,333.5 Z"/></g>
<g><path style="opacity:1" fill="#e5e5e5" d="M 352.5,331.5 C 357.116,332.041 357.449,333.374 353.5,335.5C 352.167,336.833 352.167,338.167 353.5,339.5C 357.444,336.035 361.611,335.702 366,338.5C 367.519,345.485 364.685,349.152 357.5,349.5C 357.5,348.5 357.5,347.5 357.5,346.5C 361.314,346.349 362.981,344.349 362.5,340.5C 359.774,340.264 357.441,341.097 355.5,343C 349.498,343.993 347.332,341.493 349,335.5C 349.69,333.65 350.856,332.316 352.5,331.5 Z"/></g>
<g><path style="opacity:1" fill="#ccebc2" d="M 258.5,331.5 C 258.833,332.167 259.167,332.833 259.5,333.5C 259.167,333.5 258.833,333.5 258.5,333.5C 257.5,333.5 256.5,333.5 255.5,333.5C 255.5,332.5 255.5,331.5 255.5,330.5C 256.791,330.263 257.791,330.596 258.5,331.5 Z"/></g>
<g><path style="opacity:1" fill="#5c5c5c" d="M 297.5,329.5 C 298.896,333.898 297.563,337.398 293.5,340C 293.728,340.399 294.062,340.565 294.5,340.5C 291.696,341.638 288.696,341.805 285.5,341C 283.249,340.252 281.916,338.752 281.5,336.5C 281.833,336.5 282.167,336.5 282.5,336.5C 282.611,337.117 282.944,337.617 283.5,338C 285.833,338.667 288.167,338.667 290.5,338C 293.419,336.457 293.752,334.957 291.5,333.5C 293.048,333.179 293.715,332.179 293.5,330.5C 294.167,330.833 294.833,331.167 295.5,331.5C 296.167,330.833 296.833,330.167 297.5,329.5 Z"/></g>
<g><path style="opacity:1" fill="#e4f6d9" d="M 145.5,328.5 C 145.548,331.292 144.215,333.125 141.5,334C 144.5,334.333 147.5,334.667 150.5,335C 151.357,335.689 152.023,336.522 152.5,337.5C 149.553,338.321 146.553,338.821 143.5,339C 142.114,342.122 140.78,345.289 139.5,348.5C 138.167,347.833 137.167,346.833 136.5,345.5C 137.305,343.085 138.305,340.751 139.5,338.5C 139,338.167 138.5,337.833 138,337.5C 136.14,339.201 133.973,340.201 131.5,340.5C 131.5,339.5 131.5,338.5 131.5,337.5C 135.249,334.112 139.249,330.945 143.5,328C 144.437,327.308 145.103,327.475 145.5,328.5 Z"/></g>
<g><path style="opacity:1" fill="#54953a" d="M 145.5,328.5 C 146.451,329.919 146.784,331.585 146.5,333.5C 151.718,333.056 154.384,335.389 154.5,340.5C 150.563,340.207 146.73,340.54 143,341.5C 142.764,343.764 142.264,345.931 141.5,348C 151.007,349.08 157.674,345.247 161.5,336.5C 160.048,335.06 159.048,333.394 158.5,331.5C 163.833,336.167 168.833,341.167 173.5,346.5C 171.712,346.785 170.045,346.452 168.5,345.5C 167.664,341.659 165.331,339.659 161.5,339.5C 161.284,342.432 161.951,345.098 163.5,347.5C 161.838,350.776 161.504,354.109 162.5,357.5C 163.429,356.311 163.762,354.978 163.5,353.5C 167.332,353.587 170.665,354.587 173.5,356.5C 164.713,356.29 160.713,360.623 161.5,369.5C 159.365,369.853 158.032,369.02 157.5,367C 158.756,365.155 159.756,363.155 160.5,361C 160.167,360.5 159.833,360 159.5,359.5C 158.08,361.22 156.747,363.054 155.5,365C 154.207,365.49 152.873,365.657 151.5,365.5C 151.5,362.833 151.5,360.167 151.5,357.5C 149.46,356.481 147.46,356.481 145.5,357.5C 146.025,358.192 146.692,358.692 147.5,359C 145.096,359.508 144.429,360.675 145.5,362.5C 144.017,364.946 142.851,364.612 142,361.5C 141.028,363.305 139.861,364.972 138.5,366.5C 139.63,367.622 140.297,368.956 140.5,370.5C 138.167,368.5 135.833,366.5 133.5,364.5C 128.783,359.118 124.45,353.451 120.5,347.5C 121.496,347.414 122.329,347.748 123,348.5C 124.351,351.196 126.184,353.53 128.5,355.5C 129.192,354.975 129.692,354.308 130,353.5C 132.012,355.682 133.012,358.349 133,361.5C 137.31,362.785 141.143,361.785 144.5,358.5C 144.081,357.328 143.415,356.328 142.5,355.5C 140.614,358.159 138.281,359.159 135.5,358.5C 138.574,356.281 139.907,353.281 139.5,349.5C 138.178,349.67 137.011,349.337 136,348.5C 135.747,345.8 135.747,343.133 136,340.5C 134.301,341.406 132.467,341.739 130.5,341.5C 130.232,339.901 130.566,338.568 131.5,337.5C 131.5,338.5 131.5,339.5 131.5,340.5C 133.973,340.201 136.14,339.201 138,337.5C 138.5,337.833 139,338.167 139.5,338.5C 138.305,340.751 137.305,343.085 136.5,345.5C 137.167,346.833 138.167,347.833 139.5,348.5C 140.78,345.289 142.114,342.122 143.5,339C 146.553,338.821 149.553,338.321 152.5,337.5C 152.023,336.522 151.357,335.689 150.5,335C 147.5,334.667 144.5,334.333 141.5,334C 144.215,333.125 145.548,331.292 145.5,328.5 Z"/></g>
<g><path style="opacity:1" fill="#e8f6de" d="M 118.5,346.5 C 119.167,346.833 119.833,347.167 120.5,347.5C 124.45,353.451 128.783,359.118 133.5,364.5C 131.958,365.301 130.292,365.634 128.5,365.5C 128.245,362.984 127.411,360.65 126,358.5C 122.203,355.225 119.703,351.225 118.5,346.5 Z"/></g>
<g><path style="opacity:1" fill="#e5e5e5" d="M 343.5,341.5 C 344.995,341.415 345.995,342.081 346.5,343.5C 344.861,344.916 344.027,346.583 344,348.5C 346.667,351.167 349.333,353.833 352,356.5C 352.783,358.319 352.283,359.652 350.5,360.5C 347.349,357.85 344.349,355.016 341.5,352C 339.114,352.351 336.781,352.185 334.5,351.5C 337.522,348.147 340.522,344.813 343.5,341.5 Z"/></g>
<g><path style="opacity:1" fill="#e2f4d8" d="M 151.5,357.5 C 150.232,354.633 148.232,353.966 145.5,355.5C 144.354,354.855 143.354,354.022 142.5,353C 148.324,349.225 154.657,346.725 161.5,345.5C 160.211,351.759 158.044,357.759 155,363.5C 154.333,364.833 153.667,364.833 153,363.5C 152.809,361.292 152.309,359.292 151.5,357.5 Z"/></g>
<g><path style="opacity:1" fill="#71946b" d="M 154.5,350.5 C 157.041,351.623 157.041,352.956 154.5,354.5C 151.875,353.135 151.875,351.802 154.5,350.5 Z"/></g>
<g><path style="opacity:1" fill="#4a982c" d="M 173.5,346.5 C 178.527,349.345 183.194,352.679 187.5,356.5C 188.987,358.605 190.987,360.272 193.5,361.5C 192.609,362.59 191.609,362.59 190.5,361.5C 189.833,362.5 189.167,363.5 188.5,364.5C 184.298,364.512 181.298,362.678 179.5,359C 178.255,358.209 176.922,357.709 175.5,357.5C 174.508,357.672 173.842,357.338 173.5,356.5C 170.665,354.587 167.332,353.587 163.5,353.5C 163.762,354.978 163.429,356.311 162.5,357.5C 161.504,354.109 161.838,350.776 163.5,347.5C 161.951,345.098 161.284,342.432 161.5,339.5C 165.331,339.659 167.664,341.659 168.5,345.5C 170.045,346.452 171.712,346.785 173.5,346.5 Z"/></g>
<g><path style="opacity:1" fill="#e4f8dc" d="M 173.5,356.5 C 173.842,357.338 174.508,357.672 175.5,357.5C 177.705,359.363 179.039,361.697 179.5,364.5C 178.5,364.5 177.5,364.5 176.5,364.5C 176.426,362.589 175.426,361.422 173.5,361C 166.495,359.676 163.995,362.51 166,369.5C 167.491,371.004 169.324,371.837 171.5,372C 172.833,373 172.833,374 171.5,375C 167.643,374.91 164.31,373.41 161.5,370.5C 161.5,370.167 161.5,369.833 161.5,369.5C 160.713,360.623 164.713,356.29 173.5,356.5 Z"/></g>
<g><path style="opacity:1" fill="#eaeaea" d="M 328.5,355.5 C 335.194,354.696 338.028,357.696 337,364.5C 339.202,365.402 341.368,366.402 343.5,367.5C 342.652,368.991 341.319,369.658 339.5,369.5C 337.202,369.268 335.035,368.601 333,367.5C 332.5,367.833 332,368.167 331.5,368.5C 332.833,370.167 334.167,371.833 335.5,373.5C 334.672,374.415 333.672,375.081 332.5,375.5C 328.777,371.11 325.443,366.444 322.5,361.5C 324.188,359.146 326.188,357.146 328.5,355.5 Z"/></g>
<g><path style="opacity:1" fill="#202020" d="M 328.5,359.5 C 329.833,359.5 331.167,359.5 332.5,359.5C 332.872,362.022 332.039,364.022 330,365.5C 327.521,363.912 327.021,361.912 328.5,359.5 Z"/></g>
<g><path style="opacity:1" fill="#e0e0e0" d="M 213.5,367.5 C 213.973,366.094 214.973,365.427 216.5,365.5C 221.509,366.557 226.509,367.724 231.5,369C 277.342,374.948 315.008,360.281 344.5,325C 345.448,324.517 346.448,324.351 347.5,324.5C 346.359,327.833 344.526,330.833 342,333.5C 305.929,370.244 263.096,381.577 213.5,367.5 Z"/></g>
<g><path style="opacity:1" fill="#57973e" d="M 187.5,356.5 C 194.205,359.853 200.872,363.186 207.5,366.5C 203.857,366.522 200.524,365.522 197.5,363.5C 194.972,364.746 192.305,365.746 189.5,366.5C 189.887,367.72 190.72,368.387 192,368.5C 195.83,366.664 197.997,367.831 198.5,372C 197.551,374.306 196.551,376.639 195.5,379C 198.436,382.537 197.436,384.037 192.5,383.5C 192.5,384.833 192.5,386.167 192.5,387.5C 190.585,387.784 188.919,387.451 187.5,386.5C 188.675,386.719 189.675,386.386 190.5,385.5C 193.059,380.646 194.892,375.646 196,370.5C 192.691,369.324 191.191,370.657 191.5,374.5C 184.183,374.536 182.85,371.869 187.5,366.5C 186.672,365.585 185.672,364.919 184.5,364.5C 183.479,365.901 182.479,367.235 181.5,368.5C 181.5,367.5 181.5,366.5 181.5,365.5C 179.585,365.784 177.919,365.451 176.5,364.5C 177.5,364.5 178.5,364.5 179.5,364.5C 179.039,361.697 177.705,359.363 175.5,357.5C 176.922,357.709 178.255,358.209 179.5,359C 181.298,362.678 184.298,364.512 188.5,364.5C 189.167,363.5 189.833,362.5 190.5,361.5C 191.609,362.59 192.609,362.59 193.5,361.5C 190.987,360.272 188.987,358.605 187.5,356.5 Z"/></g>
<g><path style="opacity:1" fill="#4f863c" d="M 207.5,366.5 C 208.833,366.833 210.167,367.167 211.5,367.5C 208.871,375.07 205.871,382.404 202.5,389.5C 204.477,382.865 206.477,376.198 208.5,369.5C 208.315,368.416 207.982,367.416 207.5,366.5 Z"/></g>
<g><path style="opacity:1" fill="#4a962b" d="M 176.5,364.5 C 177.919,365.451 179.585,365.784 181.5,365.5C 181.5,366.5 181.5,367.5 181.5,368.5C 180.737,370.368 179.737,372.035 178.5,373.5C 176.989,374.502 175.322,375.169 173.5,375.5C 173.5,373.833 173.5,372.167 173.5,370.5C 167.769,370.995 165.769,368.662 167.5,363.5C 170.769,361.992 173.769,362.325 176.5,364.5 Z"/></g>
<g><path style="opacity:1" fill="#e6e6e6" d="M 310.5,366.5 C 311.873,366.343 313.207,366.51 314.5,367C 318.833,370.667 323.167,374.333 327.5,378C 326.646,379.022 325.646,379.855 324.5,380.5C 322.004,378.047 319.338,377.88 316.5,380C 316.05,382.501 315.05,384.667 313.5,386.5C 311.066,380.068 310.066,373.402 310.5,366.5 Z"/></g>
<g><path style="opacity:1" fill="#202020" d="M 314.5,372.5 C 318.165,374.374 318.165,375.707 314.5,376.5C 314.5,375.167 314.5,373.833 314.5,372.5 Z"/></g>
<g><path style="opacity:1" fill="#e7e7e7" d="M 297.5,372.5 C 305.301,372.115 307.801,375.448 305,382.5C 303.333,383.5 301.667,384.5 300,385.5C 299.504,387.035 299.67,388.535 300.5,390C 299.278,392.965 297.778,393.132 296,390.5C 294.899,385.863 293.399,381.363 291.5,377C 293.358,375.245 295.358,373.745 297.5,372.5 Z"/></g>
<g><path style="opacity:1" fill="#58963d" d="M 176.5,364.5 C 173.769,362.325 170.769,361.992 167.5,363.5C 165.769,368.662 167.769,370.995 173.5,370.5C 173.5,372.167 173.5,373.833 173.5,375.5C 175.322,375.169 176.989,374.502 178.5,373.5C 177.986,375.366 177.32,377.2 176.5,379C 177.032,381.02 178.365,381.853 180.5,381.5C 180.915,376.626 183.248,375.459 187.5,378C 187.627,380.873 187.627,383.706 187.5,386.5C 184.619,385.726 181.952,384.393 179.5,382.5C 176.226,383.749 174.726,382.416 175,378.5C 172.732,376.354 170.232,376.02 167.5,377.5C 163.304,376.975 161.304,374.641 161.5,370.5C 164.31,373.41 167.643,374.91 171.5,375C 172.833,374 172.833,373 171.5,372C 169.324,371.837 167.491,371.004 166,369.5C 163.995,362.51 166.495,359.676 173.5,361C 175.426,361.422 176.426,362.589 176.5,364.5 Z"/></g>
<g><path style="opacity:1" fill="#49972a" d="M 151.5,357.5 C 151.5,360.167 151.5,362.833 151.5,365.5C 152.873,365.657 154.207,365.49 155.5,365C 156.747,363.054 158.08,361.22 159.5,359.5C 159.833,360 160.167,360.5 160.5,361C 159.756,363.155 158.756,365.155 157.5,367C 158.032,369.02 159.365,369.853 161.5,369.5C 161.5,369.833 161.5,370.167 161.5,370.5C 161.304,374.641 163.304,376.975 167.5,377.5C 170.232,376.02 172.732,376.354 175,378.5C 174.726,382.416 176.226,383.749 179.5,382.5C 181.952,384.393 184.619,385.726 187.5,386.5C 188.919,387.451 190.585,387.784 192.5,387.5C 192.5,386.167 192.5,384.833 192.5,383.5C 197.436,384.037 198.436,382.537 195.5,379C 196.551,376.639 197.551,374.306 198.5,372C 197.997,367.831 195.83,366.664 192,368.5C 190.72,368.387 189.887,367.72 189.5,366.5C 192.305,365.746 194.972,364.746 197.5,363.5C 200.524,365.522 203.857,366.522 207.5,366.5C 207.982,367.416 208.315,368.416 208.5,369.5C 206.477,376.198 204.477,382.865 202.5,389.5C 202.737,390.791 202.404,391.791 201.5,392.5C 200.503,392.47 199.836,392.97 199.5,394C 198.577,396.94 197.577,399.773 196.5,402.5C 190.014,401.761 184.014,399.594 178.5,396C 177.207,395.51 175.873,395.343 174.5,395.5C 172.5,394.833 170.5,394.167 168.5,393.5C 164.072,390.109 159.406,386.942 154.5,384C 149.331,379.997 144.664,375.497 140.5,370.5C 140.297,368.956 139.63,367.622 138.5,366.5C 139.861,364.972 141.028,363.305 142,361.5C 142.851,364.612 144.017,364.946 145.5,362.5C 144.429,360.675 145.096,359.508 147.5,359C 146.692,358.692 146.025,358.192 145.5,357.5C 147.46,356.481 149.46,356.481 151.5,357.5 Z"/></g>
<g><path style="opacity:1" fill="#e4f7de" d="M 187.5,386.5 C 187.627,383.706 187.627,380.873 187.5,378C 183.248,375.459 180.915,376.626 180.5,381.5C 178.365,381.853 177.032,381.02 176.5,379C 177.32,377.2 177.986,375.366 178.5,373.5C 179.737,372.035 180.737,370.368 181.5,368.5C 182.479,367.235 183.479,365.901 184.5,364.5C 185.672,364.919 186.672,365.585 187.5,366.5C 182.85,371.869 184.183,374.536 191.5,374.5C 191.191,370.657 192.691,369.324 196,370.5C 194.892,375.646 193.059,380.646 190.5,385.5C 189.675,386.386 188.675,386.719 187.5,386.5 Z"/></g>
<g><path style="opacity:0.982" fill="#eae8e8" d="M 400.5,324.5 C 379.031,369.439 344.364,399.272 296.5,414C 268.247,420.695 239.913,421.195 211.5,415.5C 209.562,413.837 207.228,413.171 204.5,413.5C 178.712,406.666 156.379,394 137.5,375.5C 141.279,377.787 145.279,379.787 149.5,381.5C 150.167,382.5 150.833,383.5 151.5,384.5C 154.914,386.957 158.414,389.291 162,391.5C 162.483,392.448 162.649,393.448 162.5,394.5C 164.621,394.675 166.621,394.341 168.5,393.5C 168.414,394.496 168.748,395.329 169.5,396C 174.977,397.903 179.977,400.57 184.5,404C 188.493,404.322 191.826,405.988 194.5,409C 196.463,409.844 197.796,409.344 198.5,407.5C 214.851,412.087 231.518,414.754 248.5,415.5C 313.29,413.296 361.624,384.296 393.5,328.5C 393.369,329.239 393.536,329.906 394,330.5C 396.824,329.156 398.991,327.156 400.5,324.5 Z"/></g>
<g><path style="opacity:0.998" fill="#effae6" d="M 168.5,393.5 C 170.5,394.167 172.5,394.833 174.5,395.5C 181.157,400.116 188.491,403.45 196.5,405.5C 197.167,406.167 197.833,406.833 198.5,407.5C 197.796,409.344 196.463,409.844 194.5,409C 191.826,405.988 188.493,404.322 184.5,404C 179.977,400.57 174.977,397.903 169.5,396C 168.748,395.329 168.414,394.496 168.5,393.5 Z"/></g>
<g><path style="opacity:1" fill="#63944d" d="M 201.5,392.5 C 200.108,396.949 198.441,401.282 196.5,405.5C 188.491,403.45 181.157,400.116 174.5,395.5C 175.873,395.343 177.207,395.51 178.5,396C 184.014,399.594 190.014,401.761 196.5,402.5C 197.577,399.773 198.577,396.94 199.5,394C 199.836,392.97 200.503,392.47 201.5,392.5 Z"/></g>
<g><path style="opacity:1" fill="#e4e4e4" d="M 215.5,378.5 C 217.167,378.5 218.833,378.5 220.5,378.5C 221.607,384.811 222.607,391.144 223.5,397.5C 219.5,398.167 217.833,396.5 218.5,392.5C 216.599,392.567 214.766,392.233 213,391.5C 211.431,394.266 209.264,394.932 206.5,393.5C 209.763,388.638 212.763,383.638 215.5,378.5 Z"/></g>
<g><path style="opacity:1" fill="#272726" d="M 216.5,383.5 C 217.451,384.919 217.784,386.585 217.5,388.5C 216.325,388.719 215.325,388.386 214.5,387.5C 215.18,386.14 215.847,384.807 216.5,383.5 Z"/></g>
<g><path style="opacity:1" fill="#eaeaea" d="M 261.5,382.5 C 261.5,383.5 261.5,384.5 261.5,385.5C 259.833,385.5 258.167,385.5 256.5,385.5C 256.5,390.5 256.5,395.5 256.5,400.5C 255.167,400.5 253.833,400.5 252.5,400.5C 252.5,395.5 252.5,390.5 252.5,385.5C 250.833,385.5 249.167,385.5 247.5,385.5C 247.5,384.5 247.5,383.5 247.5,382.5C 252.167,382.5 256.833,382.5 261.5,382.5 Z"/></g>
<g><path style="opacity:1" fill="#e7e7e7" d="M 228.5,380.5 C 229.833,380.5 231.167,380.5 232.5,380.5C 232.195,385.762 232.529,390.928 233.5,396C 235.112,396.72 236.612,396.554 238,395.5C 239.195,391.249 239.695,386.915 239.5,382.5C 240.833,382.5 242.167,382.5 243.5,382.5C 244.092,388.105 243.259,393.439 241,398.5C 236.517,400.302 232.517,399.635 229,396.5C 228.501,391.177 228.334,385.844 228.5,380.5 Z"/></g>
<g><path style="opacity:1" fill="#e7e7e7" d="M 271.5,379.5 C 280.015,379.844 283.515,384.177 282,392.5C 279.61,398.093 275.443,399.926 269.5,398C 262.306,390.71 262.972,384.544 271.5,379.5 Z"/></g>
<g><path style="opacity:1" fill="#151515" d="M 271.5,383.5 C 278.57,384.407 280.237,387.907 276.5,394C 268.088,393.812 266.421,390.312 271.5,383.5 Z"/></g>
<g><path style="opacity:1" fill="#484848" d="M 261.5,382.5 C 256.833,382.5 252.167,382.5 247.5,382.5C 247.5,383.5 247.5,384.5 247.5,385.5C 246.566,384.432 246.232,383.099 246.5,381.5C 251.695,381.179 256.695,381.513 261.5,382.5 Z"/></g>
<g><path style="opacity:1" fill="#222222" d="M 297.5,376.5 C 303.652,377.307 303.985,379.307 298.5,382.5C 296.454,380.719 296.12,378.719 297.5,376.5 Z"/></g>
<g><path style="opacity:0.424" fill="#928c8d" d="M 204.5,413.5 C 207.228,413.171 209.562,413.837 211.5,415.5C 208.933,415.279 206.599,414.612 204.5,413.5 Z"/></g>
</svg>
