<svg width="162" height="162" viewBox="0 0 633 633" fill="none" xmlns="http://www.w3.org/2000/svg">
<circle cx="316.5" cy="316.5" r="314.5" stroke="#669900" stroke-width="4"/>
<circle cx="316.5" cy="316.5" r="309.5" stroke="black" stroke-width="6"/>
<path d="M321.054 345.533L338.056 373.536C347.225 383.703 365.961 404.139 367.561 404.539C369.562 405.039 466.078 409.039 482.581 400.538C495.783 393.738 500.75 376.369 501.584 368.535C508.918 336.365 523.287 270.226 522.087 263.025C520.887 255.824 480.247 229.022 460.077 216.521L394.566 218.521L352.059 237.022L338.056 253.024L327.555 270.526C326.054 273.693 323.254 280.227 324.054 281.027C324.854 281.827 328.721 285.36 330.555 287.027L331.555 291.528V299.028L317.053 303.029C316.886 306.529 316.653 314.23 317.053 317.03C317.453 319.83 319.887 326.864 321.054 330.031L334.556 336.032L321.054 345.533Z" fill="#669900"/>
<path d="M374.562 512.049C374.962 514.049 339.056 512.882 321.053 512.049H269.544L260.543 414.54L370.561 409.539C371.728 442.876 374.162 510.049 374.562 512.049Z" fill="#669900"/>
<path d="M305.388 4.5779C302.233 4.66203 286.836 5.7978 283.723 6.13432C272.07 7.39629 260.375 9.28924 249.437 11.6449C245.482 12.5283 233.283 15.5149 231.978 15.9777C231.389 16.188 229.496 16.7769 227.772 17.2817C219.652 19.6374 208.588 23.4233 203.161 25.6527C202.699 25.8631 201.016 26.5361 199.375 27.125C197.777 27.756 195.673 28.6394 194.748 29.06C193.822 29.4807 191.004 30.7426 188.437 31.8364C183.81 33.8555 167.109 42.1424 166.183 42.8996C165.931 43.1099 164.206 44.0774 162.355 45.0449C160.504 46.0545 158.695 47.1061 158.316 47.4006C157.98 47.7371 157.559 47.9895 157.433 47.9895C156.676 47.9895 140.774 58.3376 134.968 62.5442C133.117 63.9323 130.299 65.9515 128.7 67.1293C127.102 68.2651 124.662 70.2001 123.231 71.3779C121.801 72.5558 119.697 74.2384 118.52 75.0797C117.3 75.921 116.29 76.7623 116.206 76.9306C116.122 77.0988 115.533 77.6878 114.818 78.1925C109.643 82.1888 91.9322 99.3094 85.1171 106.923C80.153 112.476 76.2407 117.019 74.6421 119.08C73.8428 120.132 72.6228 121.646 71.9076 122.445C71.2345 123.287 70.2249 124.507 69.72 125.18C69.2152 125.895 67.3221 128.419 65.4711 130.859C63.6622 133.298 61.4325 136.453 60.507 137.799C59.5815 139.188 57.5622 142.174 56.0057 144.404C54.4492 146.633 53.1871 148.568 53.1871 148.694C53.1871 148.821 51.883 150.966 50.3264 153.448C44.4789 162.702 36.1914 178.14 32.3632 187.016C31.3535 189.33 29.6708 193.2 28.577 195.639C27.4832 198.079 25.7584 202.328 24.7908 205.104C23.7812 207.881 22.2667 212.045 21.4254 214.359C16.5875 227.483 10.4034 251.755 8.72065 263.996C8.63651 264.669 8.3841 266.099 8.17376 267.151C7.71101 269.212 6.23861 280.149 5.85999 284.187C5.73378 285.576 5.4393 288.394 5.22896 290.497C5.01862 292.558 4.59793 299.373 4.34552 305.641C3.79863 317.251 4.21932 333.11 5.27103 344.341C5.81792 349.81 7.62687 364.07 8.17376 367.056C8.42617 368.192 8.97306 371.221 9.43582 373.787C9.94064 376.311 10.6137 380.013 10.9082 381.99C11.2448 383.967 11.9179 387.08 12.4227 388.93C12.8854 390.781 13.5165 393.221 13.8109 394.399C15.8723 402.476 20.1212 416.61 21.4254 419.638C21.7198 420.311 22.7295 423.172 23.7391 425.948C24.7488 428.724 26.6839 433.646 28.0722 436.885C29.4604 440.124 31.059 443.91 31.6059 445.298C32.4473 447.359 34.2563 451.061 38.8417 460.189C39.0521 460.568 39.7252 461.914 40.3562 463.176C41.9548 466.331 48.6437 477.941 50.663 481.054C51.5885 482.442 52.5561 484.041 52.8506 484.63C53.3133 485.639 54.9119 487.995 60.2546 495.777C64.5035 501.918 67.6587 506.167 70.9821 510.163C72.749 512.309 74.2214 514.202 74.2214 514.286C74.2214 514.875 85.3275 527.452 92.7315 535.234C96.5598 539.273 108.297 550.21 113.135 554.248C114.775 555.594 116.164 556.814 116.29 556.982C116.837 557.697 129.289 567.33 134.337 570.948C138.839 574.187 148.599 580.623 152.89 583.273C155.077 584.619 157.391 586.049 158.022 586.47C158.653 586.933 159.242 587.269 159.368 587.269C159.494 587.269 161.345 588.279 163.491 589.541C165.636 590.761 168.539 592.359 169.927 593.116C171.316 593.832 172.746 594.631 173.082 594.841C174.008 595.43 185.787 600.983 191.382 603.465C198.45 606.577 214.31 612.635 219.148 614.023C220.325 614.36 221.63 614.822 222.092 614.991C222.555 615.201 223.775 615.579 224.827 615.874C225.878 616.168 227.519 616.673 228.487 616.968C235.975 619.365 253.223 623.362 261.847 624.75C268.494 625.801 270.093 626.012 275.519 626.769C278.759 627.232 282.755 627.736 284.354 627.863C290.454 628.409 291.547 628.494 293.609 628.704C300.76 629.419 304.757 629.545 317.588 629.461C325.455 629.419 332.648 629.251 333.574 629.125C334.499 628.998 338.201 628.704 341.777 628.451C345.353 628.241 349.728 627.863 351.453 627.652C353.178 627.442 356.964 626.937 359.867 626.601C362.77 626.264 365.504 625.843 365.967 625.717C366.387 625.549 368.407 625.17 370.384 624.876C378.251 623.614 381.995 622.941 382.794 622.604C383.257 622.394 384.982 622.015 386.58 621.763C388.221 621.511 389.904 621.132 390.366 620.922C390.829 620.711 392.344 620.333 393.732 620.038C395.12 619.786 396.466 619.407 396.677 619.239C396.929 619.071 397.855 618.818 398.78 618.65C399.706 618.482 401.304 618.103 402.356 617.767C403.408 617.43 405.469 616.799 406.984 616.337C408.498 615.916 411.611 614.906 413.925 614.149C416.239 613.392 418.973 612.509 420.025 612.172C421.077 611.836 423.853 610.826 426.209 609.943C428.565 609.017 430.752 608.302 431.089 608.302C431.425 608.302 431.93 608.008 432.225 607.671C432.519 607.335 433.024 607.04 433.361 607.04C433.992 607.04 435.254 606.535 438.745 604.979C439.671 604.558 441.648 603.675 443.163 603.044C450.651 599.889 467.773 591.35 469.287 589.962C469.624 589.625 470.128 589.373 470.339 589.373C470.549 589.373 471.853 588.7 473.242 587.858C476.481 585.881 478.416 584.745 479.846 584.03C480.477 583.694 481.108 583.231 481.277 583.021C481.403 582.768 481.95 582.432 482.412 582.221C483.927 581.548 491.373 576.627 498.062 571.915C499.24 571.074 500.628 570.065 501.217 569.686C501.806 569.307 502.521 568.634 502.816 568.256C503.11 567.835 503.573 567.499 503.783 567.499C504.204 567.499 507.906 564.806 509.42 563.418C509.883 562.955 511.314 561.904 512.576 560.978C513.838 560.095 515.1 559.17 515.31 558.917C515.562 558.665 516.951 557.403 518.465 556.141C519.98 554.879 522.336 552.818 523.724 551.556C525.112 550.336 527.636 548.022 529.319 546.508C535.04 541.334 544.548 531.953 544.548 531.49C544.548 531.238 545.81 529.808 547.408 528.294C549.848 525.896 555.696 519.249 558.514 515.59C559.061 514.917 560.66 512.94 562.132 511.173C565.203 507.429 564.951 507.766 567.012 504.695C567.938 503.391 568.821 502.297 569.032 502.297C569.2 502.297 569.368 502.087 569.368 501.834C569.368 501.582 570.21 500.32 571.261 498.974C572.313 497.67 573.154 496.408 573.154 496.24C573.154 496.071 573.785 495.146 574.585 494.178C576.141 492.201 579.885 486.565 579.885 486.144C579.885 486.018 580.558 484.966 581.358 483.83C582.157 482.737 582.83 481.643 582.83 481.517C582.83 481.348 583.293 480.591 583.84 479.876C584.387 479.119 585.522 477.268 586.322 475.712C587.163 474.113 588.215 472.346 588.678 471.757C589.182 471.126 589.561 470.411 589.561 470.117C589.561 469.822 590.108 468.855 590.739 467.972C591.412 467.088 592.464 465.195 593.095 463.807C594.778 460.147 595.409 458.885 598.311 453.417C599.742 450.683 600.92 448.243 600.92 447.906C600.92 447.612 601.593 446.055 602.392 444.415C603.191 442.816 604.075 440.839 604.369 440.04C604.622 439.241 605.253 437.769 605.799 436.801C606.304 435.791 607.062 433.983 607.44 432.805C607.819 431.585 608.408 429.986 608.744 429.229C609.081 428.514 609.333 427.673 609.333 427.336C609.333 427.042 609.586 426.411 609.88 425.948C610.175 425.485 610.974 423.382 611.647 421.321C612.32 419.218 612.993 417.325 613.161 417.114C613.288 416.862 613.582 416.021 613.75 415.221C613.919 414.422 614.213 413.539 614.381 413.328C614.676 412.95 616.401 406.935 617.368 402.896C617.579 402.013 617.915 401.003 618.126 400.583C618.504 399.91 619.514 395.997 620.313 392.085C620.566 391.034 620.902 389.898 621.07 389.561C621.281 389.225 621.743 386.827 622.122 384.303C622.543 381.737 623.006 379.382 623.216 379.003C623.384 378.624 623.805 376.479 624.099 374.165C624.394 371.894 624.73 369.791 624.899 369.58C625.067 369.328 625.361 367.729 625.53 366.005C625.698 364.28 625.992 362.64 626.161 362.429C626.371 362.177 626.75 359.148 627.002 355.699C627.297 352.207 627.675 349.01 627.885 348.548C628.432 347.244 629.105 330.712 629.105 317.798C629.105 304.421 628.432 286.711 627.885 285.449C627.675 284.987 627.254 281.748 627.002 278.298C626.708 274.807 626.329 271.778 626.161 271.568C625.992 271.315 625.698 269.717 625.572 267.992C625.403 266.267 625.109 264.459 624.899 263.996C624.73 263.533 624.31 261.472 624.057 259.369C623.763 257.307 623.384 255.288 623.174 254.952C623.006 254.615 622.543 252.133 622.122 249.483C621.743 246.833 621.281 244.435 621.112 244.225C620.944 243.973 620.65 243.047 620.523 242.122C620.187 240.355 618.757 235.139 618.168 233.709C617.999 233.246 617.158 230.217 616.275 226.978C615.433 223.739 614.55 220.795 614.381 220.458C614.213 220.08 613.919 219.196 613.75 218.397C613.582 217.64 613.204 216.546 612.867 215.915C612.53 215.284 612.278 214.485 612.278 214.148C612.278 213.77 612.026 213.139 611.689 212.676C611.395 212.213 610.974 211.162 610.806 210.362C610.637 209.563 610.343 208.68 610.175 208.469C610.006 208.217 609.628 207.292 609.333 206.366C609.039 205.441 608.66 204.473 608.492 204.263C608.324 204.01 607.945 202.875 607.651 201.739C607.356 200.561 606.767 198.963 606.346 198.163C605.968 197.364 605.295 195.934 604.916 195.008C604.495 194.083 603.738 192.485 603.233 191.433C602.686 190.381 601.845 188.488 601.34 187.226C600.541 185.207 596.923 177.72 595.24 174.607C594.904 174.018 594.02 172.335 593.305 170.821C591.454 167.119 590.613 165.563 588.93 162.828C588.131 161.566 587.247 160.052 586.953 159.463C586.658 158.874 585.565 157.023 584.513 155.341C583.461 153.658 582.325 151.765 581.989 151.134C581.652 150.503 580.937 149.409 580.39 148.652C579.885 147.937 579.465 147.222 579.465 147.096C579.465 146.97 578.413 145.413 577.151 143.689C575.889 142.006 574.837 140.45 574.837 140.323C574.837 140.155 574.374 139.44 573.785 138.683C573.196 137.926 572.734 137.168 572.734 137C572.734 136.832 571.345 134.981 569.663 132.836C567.98 130.69 566.297 128.461 565.876 127.788C565.456 127.157 564.025 125.348 562.637 123.707C561.249 122.109 560.113 120.721 560.113 120.595C560.113 120.342 559.734 119.837 554.77 114.074C548.292 106.503 544.758 102.717 537.186 95.187C529.529 87.5311 521.494 80.0855 520.232 79.3704C519.853 79.1601 518.087 77.7298 516.32 76.2155C511.314 71.9248 502.269 64.984 495.916 60.6092C494.444 59.5575 492.046 57.8749 490.616 56.9074C487.797 54.8883 485.988 53.7104 484.39 52.9532C483.801 52.6588 482.665 51.9437 481.866 51.3127C480.561 50.3452 477.575 48.5364 473.326 46.1807C472.568 45.8021 470.844 44.7925 469.455 43.9933C468.067 43.152 465.417 41.7217 463.566 40.7963C461.715 39.8709 459.906 38.9454 459.569 38.7351C459.233 38.5248 456.288 37.0945 453.049 35.5381C449.809 33.9817 446.696 32.5094 446.107 32.2149C445.518 31.9205 442.321 30.5323 438.956 29.1021C435.59 27.6719 432.477 26.3258 432.014 26.1154C431.552 25.9051 430.037 25.3162 428.649 24.8535C427.261 24.3487 425.746 23.8018 425.283 23.5915C424.821 23.3812 423.222 22.7923 421.708 22.3295C420.193 21.8248 418.594 21.2358 418.132 21.0676C415.986 20.2263 407.32 17.492 403.408 16.4404C396.256 14.5054 386.202 12.0656 380.901 11.0139C367.944 8.40586 369.206 8.61619 364.578 8.06934C362.643 7.81695 360.918 7.52249 360.75 7.43836C360.372 7.18596 345.059 5.62954 339.884 5.29301C337.823 5.16682 334.962 4.95649 333.616 4.83029C331.008 4.53584 310.562 4.36757 305.388 4.5779ZM335.846 25.19C341.062 39.9971 341.357 40.628 343.25 41.5535C344.049 41.9321 344.722 42.3948 344.722 42.5631C344.722 42.8155 341.062 42.6893 336.014 42.2686C334.542 42.1424 333.364 41.8479 333.364 41.6376C333.364 41.4273 333.742 41.259 334.163 41.259C335.677 41.259 336.308 40.7542 336.308 39.6185C336.308 38.4827 334.752 33.3086 334.247 32.8039C334.121 32.6356 331.597 32.4253 328.652 32.257L323.267 32.0046L321.795 34.9492C319.86 38.7772 319.86 39.7867 321.795 40.4598C323.982 41.259 323.604 41.8479 321.08 41.5114C319.86 41.3852 317.84 41.259 316.662 41.259C314.18 41.259 313.76 40.7122 315.695 40.0812C317.378 39.4502 318.303 37.8938 324.95 24.3066C328.063 17.9127 330.839 12.6965 331.05 12.6545C331.302 12.6545 333.448 18.2913 335.846 25.19ZM350.906 14.9681C353.304 15.3046 355.323 15.5991 355.45 15.5991C355.576 15.5991 355.66 15.7673 355.66 16.0197C355.66 16.23 354.987 16.4404 354.188 16.4404C352.463 16.4404 351.705 17.492 352.126 19.2588C352.799 22.2034 357.048 37.3469 357.343 37.8517C357.679 38.4406 358.436 37.2628 364.873 26.0313C368.196 20.2683 368.407 19.1326 366.387 18.2071C365.209 17.6603 364.957 16.6928 366.093 17.0293C366.472 17.1134 368.449 17.4499 370.51 17.7023C372.529 17.9968 374.17 18.2913 374.17 18.3754C374.17 18.4595 373.455 18.8381 372.571 19.2167C371.646 19.5532 370.552 20.3525 370.089 20.9835C369.669 21.6144 366.303 27.2933 362.601 33.561C358.941 39.8709 355.744 45.0449 355.492 45.0449C355.239 45.0449 353.346 38.9454 351.285 31.4578C349.223 24.0122 347.288 17.4079 346.994 16.819C346.699 16.23 345.858 15.4729 345.143 15.1784C343.46 14.5054 343.502 13.8323 345.269 14.1268C345.984 14.253 348.55 14.6316 350.906 14.9681ZM390.156 21.993C396.046 23.3812 401.052 24.6852 401.22 24.8535C401.599 25.19 400.673 31.1633 400.253 31.1633C400.084 31.1633 399.832 30.4061 399.706 29.4386C399.579 28.4711 399.075 27.2933 398.57 26.7464C397.518 25.6527 392.428 24.0542 391.881 24.6852C391.334 25.2321 386.37 46.3069 386.37 47.9054C386.37 49.0411 386.622 49.3777 387.842 49.9666C388.642 50.3452 389.315 50.8079 389.315 50.9341C389.315 51.1865 383.72 50.0087 379.134 48.7888C377.115 48.284 377.031 47.5268 379.008 47.8633C381.574 48.284 381.827 47.7792 384.856 35.3699C386.37 29.1862 387.632 23.928 387.632 23.6756C387.632 23.4233 386.286 22.9185 384.687 22.5819C382.037 21.951 381.616 21.951 380.48 22.5399C379.807 22.8764 378.924 23.7177 378.503 24.4328C377.704 25.821 376.947 26.1154 377.283 24.9376C378.167 21.7827 379.008 19.385 379.176 19.385C379.302 19.385 384.224 20.5628 390.156 21.993ZM253.139 22.5819C253.56 24.1384 253.77 25.4845 253.602 25.6527C253.433 25.7789 253.223 25.6527 253.139 25.3583C253.013 25.0638 252.466 24.2646 251.877 23.5915C251.078 22.5819 250.489 22.3295 249.227 22.3295C247.544 22.3295 239.971 23.928 239.467 24.3908C239.214 24.6011 241.36 34.7809 241.738 35.1595C242.117 35.5381 249.731 33.3086 250.489 32.6356C251.035 32.1308 251.33 31.3316 251.33 30.2379C251.33 27.4195 252.003 28.5132 253.013 32.9301C253.56 35.3278 254.064 37.5152 254.191 37.7676C254.569 38.9034 253.433 38.2724 252.802 37.0525C251.793 35.0754 250.741 34.9071 246.24 35.8746C244.052 36.3374 242.243 36.758 242.159 36.8421C241.822 37.1366 244.725 47.9895 245.23 48.4102C245.693 48.7888 246.702 48.7046 249.689 48.0316C255.2 46.7696 256.168 46.2228 257.388 43.6147C257.935 42.4369 258.482 41.1328 258.65 40.7122C258.776 40.3336 259.028 39.9971 259.239 39.9971C259.491 39.9971 259.028 47.1482 258.734 47.4427C258.397 47.8212 237.363 52.4064 237.237 52.154C237.111 51.9857 237.447 51.6913 237.952 51.5651C239.509 51.0603 240.392 50.0507 240.392 48.7888C240.392 47.5689 236.059 28.5973 235.344 26.7464C234.839 25.4003 233.619 24.8114 232.02 25.1059C231.305 25.2741 230.716 25.2321 230.716 25.0217C230.716 24.6432 249.773 19.9318 251.54 19.8477C252.255 19.8056 252.55 20.2683 253.139 22.5819ZM420.319 30.3641C423.979 31.7102 427.261 35.2016 428.396 38.9454C428.901 40.5018 429.28 42.5631 429.28 43.5726C429.28 46.0545 427.892 50.3452 426.293 52.7429C421.581 59.894 411.611 61.1981 405.175 55.6034C403.239 53.8787 401.178 49.7142 400.842 46.9379C400.295 42.6051 402.23 37.0945 405.469 33.7714C409.339 29.7331 415.019 28.429 420.319 30.3641ZM214.141 30.9109C212.164 32.0887 211.365 32.9721 211.365 33.8976C211.365 34.6968 216.245 48.5364 218.601 54.4255C219.358 56.3605 220.115 56.4867 223.943 55.1406C225.836 54.4676 228.066 53.5001 228.907 52.9953C230.548 51.9437 231.936 49.3777 231.978 47.2744C231.978 46.5593 232.147 45.8442 232.357 45.718C232.652 45.5076 233.493 53.3739 233.156 53.6684C233.072 53.7104 228.529 55.4351 223.018 57.4543C213.3 60.9878 210.439 61.7449 213.594 59.852C214.73 59.221 215.151 58.6741 215.151 57.917C215.151 56.655 208.041 37.1787 206.99 35.5802C206.275 34.5285 206.064 34.4444 204.297 34.6968C203.246 34.823 202.53 34.823 202.699 34.6547C203.161 34.15 214.478 29.9855 214.73 30.1958C214.857 30.322 214.604 30.6165 214.141 30.9109ZM198.534 37.3049C196.346 38.9454 196.136 39.1978 196.388 40.4177C196.641 41.7217 205.601 61.3243 206.232 61.9553C206.737 62.46 207.915 62.5021 209.388 62.1656C210.019 61.9973 210.523 61.9973 210.523 62.2077C210.523 62.7124 199.964 67.4658 199.628 67.0873C199.501 66.919 199.628 66.7087 199.964 66.5825C201.268 66.1197 202.194 64.7316 201.984 63.5958C201.731 62.5021 195.421 48.4522 193.023 43.7409L191.929 41.5956L189.868 41.7638C188.732 41.89 187.806 41.8479 187.806 41.7217C187.806 41.3432 197.945 36.716 198.744 36.6739C199.207 36.6739 199.165 36.8421 198.534 37.3049ZM442.784 39.6185L446.191 41.3011L445.939 43.6988C445.813 45.0029 445.602 50.5134 445.434 55.9399L445.14 65.7832L446.36 64.8998C447.033 64.3951 451.366 60.9878 455.993 57.3281L464.407 50.6396L467.857 52.3643C469.792 53.2898 471.348 54.2993 471.348 54.6359C471.348 55.0145 471.138 55.0565 470.549 54.72C468.993 53.9207 467.646 54.2152 466.553 55.6454C465.291 57.3281 456.204 75.5845 456.204 76.4258C456.204 76.7623 456.793 77.6036 457.55 78.2767C458.265 78.9497 458.812 79.5807 458.686 79.7069C458.602 79.791 456.12 78.6132 453.133 77.0568C450.188 75.5004 447.916 74.1122 448.042 73.9439C448.169 73.8177 448.716 73.9019 449.262 74.1543C451.45 75.1638 452.081 74.4908 455.867 67.2555C461.21 57.0757 462.22 55.0145 461.546 55.4351C461.21 55.6034 456.667 59.1789 451.408 63.3434C446.149 67.5079 441.69 70.9573 441.48 71.0414C440.933 71.2517 440.933 68.7699 441.522 56.1502C441.774 50.5134 441.9 45.6759 441.816 45.4235C441.648 44.8767 432.225 63.2593 432.225 64.1847C432.225 64.5633 432.814 65.4046 433.487 65.9935C434.202 66.6245 434.749 67.2555 434.749 67.4238C434.749 67.8024 430.878 65.9515 427.681 64.1006C425.662 62.8807 425.62 62.3759 427.597 63.091C428.481 63.3855 429.196 63.3855 429.701 63.1331C430.542 62.6704 440.512 43.6988 440.891 41.8059C441.101 40.7963 440.891 40.3336 439.755 39.2399C437.904 37.4311 438.703 37.5573 442.784 39.6185ZM182.338 48.4943C183.768 49.2515 184.483 49.9666 185.24 51.523C186.166 53.416 186.208 53.7104 185.745 55.5192C185.451 56.5709 184.946 57.7487 184.609 58.1273C184.02 58.8003 184.146 58.8424 186.418 58.8003C190.751 58.7162 193.402 61.1981 193.359 65.4467C193.317 69.8636 191.508 71.6303 181.16 77.3092C173.966 81.2213 172.115 81.9364 174.723 79.749C175.438 79.118 176.027 78.2346 176.027 77.6878C176.027 76.7203 166.099 58.2114 164.837 56.7812C164.038 55.8978 162.523 55.7296 161.303 56.4026C160.883 56.655 160.42 56.655 160.294 56.4867C160.041 56.0661 172.493 49.2094 175.186 48.284C177.92 47.3585 180.192 47.4006 182.338 48.4943ZM486.619 64.1006C491.836 66.4563 494.57 70.789 494.612 76.5941C494.654 79.3283 494.444 80.2117 493.308 82.6094C491.668 86.1429 488.723 89.2978 485.694 90.7701C483.675 91.7797 482.833 91.948 479.552 91.948C475.008 91.948 472.695 91.0225 469.624 87.9517C462.093 80.422 466.763 65.8674 477.533 63.1331C480.099 62.5021 484.053 62.9228 486.619 64.1006ZM157.601 65.3626C160.504 66.7928 163.533 69.9477 165.005 73.1447C165.973 75.2059 166.141 76.0893 166.141 79.5386C166.141 83.0721 166.015 83.8293 164.963 85.9326C163.659 88.5827 161.345 90.8122 158.401 92.2424C156.802 93.0417 155.75 93.2099 152.679 93.2099C149.356 93.2099 148.599 93.0417 146.579 91.99C143.677 90.5177 140.648 87.3628 139.133 84.25C138.081 82.1467 137.955 81.3895 137.955 77.856C137.955 74.4908 138.123 73.5233 139.007 71.7565C140.395 68.9381 143.55 65.9094 146.243 64.8578C149.44 63.5958 154.404 63.8061 157.601 65.3626ZM510.809 82.6936C517.666 88.751 519.307 91.0225 519.307 94.4719C519.307 98.5943 516.614 101.16 512.534 100.908L510.178 100.74L510.935 102.422C512.912 106.755 511.019 110.667 506.349 111.929C503.699 112.644 500.838 111.677 497.389 108.9C491.92 104.483 485.568 98.7205 486.072 98.5523C486.325 98.4681 486.872 98.6785 487.292 99.057C488.386 100.067 489.69 99.8984 491.079 98.5523C492.341 97.4165 503.194 84.9651 504.919 82.7356C506.055 81.2213 506.097 79.9172 505.003 78.9077C504.162 78.1505 503.909 77.4354 504.498 77.4354C504.667 77.4354 507.485 79.8331 510.809 82.6936ZM127.059 79.9172C125.04 82.0205 124.704 81.5157 135.978 93.9671C139.091 97.3744 141.952 100.319 142.33 100.571C142.877 100.824 143.55 100.698 144.686 100.109C145.528 99.646 146.327 99.3515 146.411 99.4356C146.705 99.7301 137.661 107.723 137.282 107.47C137.114 107.386 137.408 106.797 137.997 106.166C139.806 104.231 140.101 104.694 130.257 93.7147C127.354 90.5177 124.956 87.9938 124.872 88.0779C124.788 88.12 126.428 93.6727 128.49 100.361C130.593 107.049 132.276 112.602 132.276 112.686C132.276 113.107 129.626 112.055 119.277 107.554C113.135 104.862 108.087 102.717 108.044 102.801C107.876 102.927 112.083 107.68 118.057 114.116C122.432 118.828 123.063 119.206 124.956 117.987C127.228 116.472 126.218 117.86 122.811 120.973C120.833 122.782 119.109 124.128 118.94 123.96C118.814 123.834 119.066 123.287 119.571 122.74C120.833 121.394 120.707 120.216 119.151 118.365C115.533 114.159 106.824 104.441 105.731 103.39C104.342 102.128 102.66 101.917 101.314 102.885C99.5046 104.105 100.051 103.011 102.155 101.076C106.488 97.08 104.595 96.9117 117.342 102.422C128.279 107.134 128.532 107.218 128.279 106.124C128.153 105.493 126.513 100.235 124.704 94.4719L121.38 83.9555L124.409 81.1371C126.05 79.6228 127.564 78.4449 127.775 78.5711C127.985 78.6973 127.648 79.2863 127.059 79.9172ZM532.264 102.801C534.62 105.199 536.471 107.26 536.302 107.428C536.134 107.554 535.461 107.218 534.788 106.671C534.115 106.082 533.273 105.619 532.937 105.619C532.137 105.619 529.74 107.765 521.536 115.883C517.54 119.795 514.679 122.992 514.679 123.413C514.679 123.876 515.058 124.759 515.562 125.432C516.025 126.105 516.278 126.652 516.067 126.652C515.436 126.652 507.359 118.281 507.654 117.987C507.822 117.818 508.369 118.071 508.916 118.575C509.463 119.08 510.304 119.501 510.851 119.501C511.482 119.501 514.342 117.061 519.98 111.635C524.481 107.344 528.351 103.474 528.604 103.053C529.193 101.917 529.066 101.034 528.099 99.688C526.458 97.3324 527.973 98.5102 532.264 102.801ZM543.664 115.084C545.768 117.608 547.492 119.837 547.492 120.006C547.492 120.553 546.651 120.384 546.399 119.753C546.273 119.459 545.515 118.828 544.758 118.407C543.328 117.65 543.286 117.65 541.939 118.66C539.71 120.3 525.869 131.91 525.238 132.709C524.481 133.635 524.902 134.518 527.931 138.136C531.296 142.174 532.811 142.763 537.396 142.006C538.7 141.796 539.163 141.838 538.868 142.132C538.322 142.679 531.927 145.245 531.506 145.077C531.002 144.908 517.624 128.671 517.624 128.251C517.624 128.082 517.834 127.914 518.045 127.914C518.297 127.914 518.465 128.082 518.465 128.335C518.465 128.545 518.97 129.05 519.559 129.428C520.527 130.101 520.737 130.101 521.957 129.47C522.714 129.134 527.089 125.642 531.717 121.73C537.648 116.725 540.173 114.369 540.257 113.654C540.341 113.107 540.004 112.097 539.499 111.424C538.826 110.499 538.742 110.204 539.205 110.331C539.542 110.373 541.561 112.518 543.664 115.084ZM103.038 114.453C106.236 116.009 110.064 120.006 111.2 123.076C112.462 126.4 112.293 131.784 110.863 134.56C109.601 137.042 106.867 139.692 104.3 140.954C101.145 142.469 95.9708 142.427 92.6053 140.87C89.4502 139.398 85.8744 135.948 84.444 133.004C83.4344 130.943 83.2661 130.143 83.2661 126.862C83.2661 122.488 84.0654 120.3 86.6737 117.44C89.4923 114.285 92.3529 113.191 97.3591 113.317C100.136 113.401 101.398 113.654 103.038 114.453ZM563.773 141.249C567.012 146.086 569.789 150.209 569.915 150.503C570.252 151.008 565.456 155.004 565.035 154.541C564.867 154.415 565.287 153.658 565.876 152.859C567.559 150.671 567.349 149.494 564.32 144.951C562.848 142.721 561.501 140.828 561.333 140.702C560.912 140.45 552.12 146.255 552.12 146.801C552.12 147.18 555.233 151.681 556.453 153.027C557.379 154.079 559.188 154.289 560.534 153.574C560.954 153.322 561.417 153.322 561.543 153.49C561.838 153.953 553.803 159.505 553.298 159.211C553.088 159.042 553.382 158.454 553.971 157.823C555.612 156.14 555.401 154.752 552.919 150.966C551.741 149.157 550.648 147.685 550.521 147.685C549.806 147.685 541.182 153.91 540.93 154.584C540.635 155.509 544.968 162.071 546.735 163.417C547.535 163.964 548.881 164.343 550.942 164.511C554.308 164.805 554.223 164.89 549.722 166.152L546.651 166.951L545.263 165.016C541.561 159.884 534.409 148.863 534.62 148.652C534.746 148.526 535.335 148.905 535.882 149.494C536.471 150.125 537.312 150.629 537.733 150.629C538.448 150.629 547.955 144.488 555.822 138.977C558.641 137 559.103 135.78 557.799 133.971C557.337 133.256 557.337 132.541 557.799 132.541C557.883 132.541 560.534 136.453 563.773 141.249ZM77.5448 134.897C79.9006 136.285 81.1206 137.673 79.3958 136.958C78.9751 136.79 77.9234 136.579 77.04 136.453C75.5676 136.243 75.3152 136.369 73.6745 138.052C71.9497 139.903 70.5193 142.048 70.898 142.385C71.7393 143.1 89.366 155.004 90.2495 155.509C91.6377 156.182 92.6895 155.845 93.6991 154.373C94.0357 153.91 94.4563 153.7 94.5826 153.91C94.835 154.373 88.1461 164.259 87.7674 163.922C87.6412 163.796 87.7674 163.207 88.0619 162.702C88.3564 162.155 88.5247 161.188 88.4405 160.515C88.3143 159.463 86.9681 158.411 78.26 152.438C72.749 148.652 68.2056 145.581 68.1214 145.666C68.0794 145.75 67.3642 146.843 66.4808 148.105C64.6297 150.924 64.5035 152.691 66.0601 154.71C66.649 155.467 66.9014 156.098 66.649 156.098C66.0601 156.098 61.6008 152.733 61.6008 152.27C61.6008 151.723 74.3055 133.382 74.6841 133.382C74.8524 133.382 76.1565 134.056 77.5448 134.897ZM337.739 138.514C339.043 145.413 339.085 145.455 341.441 145.96C342.577 146.212 343.628 146.423 343.839 146.423C344.007 146.423 345.437 144.53 347.078 142.258C348.677 139.945 350.191 138.01 350.401 137.926C350.654 137.799 353.304 139.019 356.375 140.618L361.886 143.478L360.119 148.652L358.31 153.784L360.245 155.509L362.181 157.234L366.598 155.215C369.038 154.121 371.309 153.195 371.688 153.195C372.277 153.153 378.798 162.744 378.798 163.67C378.798 163.88 378.545 164.217 378.209 164.385C377.536 164.805 372.656 169.012 371.604 170.148C370.889 170.905 370.889 171.031 371.688 173.092C372.193 174.27 372.614 175.28 372.656 175.364C372.74 175.406 375.096 175.785 377.872 176.163L382.962 176.878L383.173 178.561C383.299 179.528 383.467 182.305 383.551 184.787L383.762 189.288L382.416 189.708C381.7 189.961 379.387 190.465 377.241 190.844L373.371 191.517L372.95 193.62C372.698 194.756 372.487 196.018 372.487 196.397C372.529 196.817 374.254 198.332 376.652 200.056L380.817 203.001L378.377 207.838C374.717 215.074 375.558 214.569 369.837 212.676L364.999 211.078L363.274 212.886C362.307 213.896 361.55 214.863 361.55 215.032C361.55 215.2 362.475 217.429 363.611 219.995L365.672 224.665L363.695 225.885C362.643 226.558 360.245 228.072 358.394 229.292L355.029 231.437L351.411 227.525L347.793 223.655L345.437 224.37C342.787 225.212 342.829 225.085 342.198 231.227C341.946 233.498 341.693 235.391 341.609 235.518C341.399 235.728 329.451 236.359 329.073 236.149C328.946 236.064 328.4 233.751 327.895 230.974C326.969 226.179 326.885 225.885 325.833 225.674C325.244 225.548 324.066 225.254 323.267 225.043C322.468 224.833 321.711 224.833 321.542 225.001C321.122 225.506 316.747 231.521 316.031 232.573C315.4 233.498 315.527 233.835 319.355 240.692C321.542 244.604 323.267 248.053 323.141 248.348C323.015 248.642 321.08 250.325 318.808 252.049C309.132 259.369 307.618 260.589 307.407 261.178C307.281 261.514 307.449 262.734 307.828 263.954C308.207 265.132 308.627 266.898 308.796 267.866C308.922 268.876 309.3 269.927 309.553 270.306C309.805 270.642 311.614 271.189 314.012 271.568C316.2 271.946 319.607 272.535 321.584 272.872C323.562 273.208 325.497 273.545 325.96 273.587C326.801 273.671 327.137 273.124 331.302 265.132C332.522 262.776 333.742 260.841 334.079 260.841C334.373 260.841 336.855 261.598 339.548 262.566C342.282 263.491 346.279 264.879 348.424 265.594L352.337 266.856L355.029 263.954C356.501 262.355 357.721 260.841 357.763 260.589C357.763 260.21 354.987 253.816 352.294 248.011C351.832 247.086 351.201 245.571 350.822 244.646C349.981 242.543 349.308 243.131 360.918 235.812C362.307 234.929 363.905 233.919 364.494 233.498C365.083 233.12 366.387 232.363 367.355 231.774L369.206 230.764L370.258 232.026C370.847 232.741 372.109 234.129 373.076 235.181C374.044 236.233 376.526 239.009 378.545 241.407C381.069 244.351 382.416 245.613 382.71 245.361C383.173 245.024 385.739 244.099 388.684 243.258C389.946 242.879 389.946 242.879 390.451 238.294C391.923 225.758 392.175 223.781 392.386 223.571C392.722 223.234 409.718 222.477 412.579 222.646L414.724 222.772L415.271 225.085C415.566 226.347 416.197 229.586 416.659 232.236C417.122 234.887 417.753 238.084 418.048 239.346L418.552 241.617L422.339 242.374C424.442 242.795 426.335 243.173 426.545 243.173C426.798 243.173 427.555 242.374 428.228 241.407C428.943 240.439 430.668 238.084 432.141 236.106C433.571 234.171 434.749 232.489 434.749 232.363C434.749 232.194 435.043 231.816 435.38 231.437C435.716 231.059 436.516 230.133 437.189 229.334L438.409 227.904L442.363 229.881C455.32 236.443 458.097 238.041 457.971 238.799C457.802 239.64 455.489 246.581 453.301 252.849L452.039 256.424L453.385 257.476C454.142 258.023 455.194 258.99 455.783 259.579C458.391 262.145 458.433 262.187 460.242 261.43C461.673 260.841 466.132 258.906 469.876 257.265C476.144 254.489 475.892 254.573 476.439 255.246C476.733 255.583 477.575 256.803 478.248 257.896C478.963 259.032 480.477 261.43 481.655 263.239C482.791 265.048 484.726 268.076 485.946 270.011L488.176 273.503L485.988 275.522C484.768 276.616 483.001 278.172 482.076 278.971C481.15 279.77 480.183 280.57 479.93 280.822C479.678 281.032 478.206 282.336 476.691 283.683L473.915 286.122L474.462 287.468C474.798 288.226 475.387 290.034 475.85 291.549L476.649 294.283L479.594 294.788C481.192 295.082 485.273 295.587 488.723 295.882C492.13 296.218 494.991 296.555 495.117 296.681C495.454 296.975 496.295 318.891 496.001 319.186C495.874 319.312 493.897 319.775 491.668 320.153C489.396 320.574 485.441 321.331 482.875 321.878L478.206 322.846L477.533 325.58C477.154 327.094 476.733 329.113 476.607 330.081C476.355 331.721 476.439 331.848 478.164 333.152C486.283 339.251 488.386 340.765 488.554 340.765C488.723 340.765 489.312 341.228 489.943 341.817L491.121 342.827L488.849 347.201C484.053 356.456 480.94 362.429 480.814 362.555C480.646 362.724 471.517 359.779 466.09 357.802L463.145 356.75L461.925 358.139C461.252 358.854 459.864 360.368 458.812 361.462L456.919 363.439L457.886 365.668C458.391 366.888 459.191 368.739 459.653 369.791C460.411 371.473 461.757 374.628 463.65 379.045C464.365 380.686 464.365 380.686 460.537 382.999C459.443 383.672 456.919 385.271 454.942 386.533C452.964 387.795 450.609 389.309 449.683 389.898C448.758 390.487 447.496 391.286 446.865 391.749C446.234 392.17 445.56 392.506 445.35 392.506C445.14 392.506 444.046 391.412 442.952 390.108C441.858 388.762 439.671 386.238 438.114 384.514C436.558 382.789 434.749 380.728 434.076 380.013L432.856 378.624L428.649 380.013L424.442 381.401L423.979 384.135C423.685 385.607 423.474 387.837 423.432 389.057C423.39 391.034 423.012 394.231 422.297 398.648L422.086 399.994L412.326 400.33C406.984 400.541 401.935 400.709 401.136 400.709H399.664L398.906 397.344C398.486 395.493 397.855 392.17 397.518 389.982C397.14 387.795 396.635 385.187 396.424 384.261C395.92 382.368 396.214 382.494 389.02 380.854L387.253 380.433L385.444 382.957C384.435 384.345 383.131 386.112 382.5 386.827C381.827 387.584 381.322 388.342 381.322 388.468C381.322 388.636 380.48 389.856 379.429 391.16C378.419 392.464 377.199 394.02 376.778 394.567L376.021 395.577L368.869 391.875C361.76 388.173 356.375 385.355 356.207 385.187C356.039 385.06 357.511 380.559 359.993 373.492L362.307 366.888L360.245 365.29C359.11 364.448 358.184 363.607 358.184 363.439C358.184 363.271 357.595 362.724 356.922 362.219C355.492 361.209 355.113 361.293 350.401 363.481C349.476 363.901 347.12 364.953 345.143 365.837C343.166 366.678 340.852 367.729 339.968 368.15L338.37 368.907L336.393 365.837C335.299 364.154 333.364 361.125 332.102 359.106C330.839 357.129 328.946 354.184 327.979 352.628L326.128 349.852L327.768 348.337C328.652 347.538 330.587 345.813 332.059 344.551C333.574 343.289 335.088 341.943 335.425 341.565C335.804 341.228 337.192 340.05 338.496 338.915L340.894 336.937L340.095 335.129C339.674 334.119 339.127 332.268 338.833 330.964L338.37 328.566H336.266C335.13 328.566 332.354 328.314 330.082 327.978C327.853 327.641 324.824 327.304 323.351 327.22L320.701 327.094L315.064 336.349C311.993 341.439 309.258 345.645 309.048 345.729C308.669 345.855 303.116 343.668 299.498 342.027C299.036 341.817 296.806 340.892 294.492 339.966L290.327 338.284L286.625 341.733C284.312 343.836 282.923 345.435 283.05 345.813C283.26 346.528 284.396 349.683 287.635 358.433L289.907 364.532L287.972 365.626C279.137 370.59 268.073 376.605 267.989 376.479C267.905 376.395 265.339 372.988 262.268 368.949C254.822 359.106 255.831 359.989 252.802 360.915C251.372 361.378 249.353 361.84 248.217 362.009C246.744 362.261 246.113 362.555 245.819 363.228C245.609 363.691 244.683 368.276 243.842 373.366L242.285 382.621L236.606 382.747C233.493 382.831 227.856 382.747 224.154 382.621L217.339 382.326L216.918 379.297C216.665 377.657 216.034 373.072 215.53 369.16C215.025 365.206 214.436 361.882 214.141 361.714C213.889 361.546 212.669 361.209 211.449 360.915C210.187 360.662 208.546 360.2 207.747 359.863C206.99 359.527 205.98 359.274 205.559 359.274C205.097 359.274 202.362 362.177 198.324 367.056C194.748 371.347 191.677 374.839 191.466 374.839C191.256 374.839 190.12 374.208 188.942 373.45C187.722 372.651 183.347 370.001 179.182 367.477C175.018 364.995 171.358 362.724 171.063 362.429C170.474 361.924 170.474 361.924 175.312 350.23C176.364 347.664 177.5 344.93 177.836 344.131L178.467 342.658L175.102 339.167C172.83 336.769 171.484 335.718 171.021 335.844C170.642 335.97 166.183 337.611 161.135 339.461C156.045 341.312 151.838 342.827 151.796 342.743C151.754 342.7 150.534 340.471 149.103 337.821C147.631 335.171 145.275 330.88 143.845 328.356C142.414 325.79 140.942 323.14 140.563 322.425L139.89 321.079L143.34 318.429C152.427 311.446 155.161 309.385 155.961 308.754L156.802 308.081L155.876 304.126C155.33 301.939 154.825 299.878 154.741 299.499C154.614 299.079 153.983 298.7 153.184 298.574C152.427 298.49 148.43 297.775 144.266 297.059C140.101 296.302 135.936 295.587 135.052 295.461L133.412 295.209L133.664 283.01C133.833 274.554 134.085 270.726 134.421 270.516C134.926 270.18 134.926 270.18 146.916 268.665C151.375 268.118 155.119 267.571 155.245 267.487C155.414 267.277 157.938 259.158 157.938 258.696C157.938 258.569 154.236 255.372 149.734 251.587C145.191 247.801 141.573 244.604 141.615 244.435C141.699 244.267 144.476 239.556 147.841 234.003C152.174 226.81 154.152 223.823 154.699 223.823C155.287 223.823 162.607 226.726 167.403 228.871C167.866 229.082 169.591 229.797 171.189 230.47L174.134 231.69L177.626 228.493L181.075 225.296L178.72 218.986C177.416 215.494 175.733 210.909 174.976 208.764L173.587 204.894L176.364 203.337C177.92 202.496 182.716 199.846 187.007 197.448C191.298 195.093 195 193.116 195.211 193.116C195.421 193.116 197.104 195.135 198.955 197.574C204.381 204.768 206.443 207.46 207.579 208.764L208.63 209.984L213.005 208.932C215.445 208.301 217.423 207.796 217.507 207.712C217.549 207.67 218.18 204.137 218.937 199.846C219.652 195.555 220.494 190.844 220.788 189.33L221.335 186.595L233.493 186.764C240.182 186.848 245.777 186.974 245.903 187.058C246.198 187.226 246.324 188.026 247.796 199.425C248.343 203.926 248.89 207.838 248.974 208.091C249.1 208.343 249.689 208.68 250.362 208.764C250.993 208.89 253.013 209.395 254.822 209.9L258.103 210.783L258.818 209.942C268.957 197.701 271.397 194.84 271.817 194.84C272.112 194.798 274.552 196.144 277.286 197.785C287.425 203.884 289.15 204.894 289.528 204.894C289.739 204.894 291.127 203.8 292.557 202.454L295.165 200.056L294.45 197.617C293.777 195.261 293.735 195.219 292.221 195.219C290.117 195.219 283.134 194.335 282.839 193.999C282.671 193.873 282.461 190.97 282.334 187.605L282.082 181.505L287.593 180.37C290.622 179.781 293.146 179.234 293.188 179.15C293.272 179.066 293.441 177.972 293.609 176.668L293.903 174.354L289.654 171.241C287.299 169.559 285.405 167.96 285.405 167.708C285.405 167.329 288.392 161.356 290.033 158.411C290.959 156.771 292.263 156.855 297.395 158.748C299.498 159.547 301.392 160.094 301.602 160.01C301.854 159.884 302.654 159.085 303.411 158.159L304.841 156.561L302.696 151.807C301.518 149.199 300.55 146.843 300.55 146.633C300.55 146.381 301.56 145.539 302.78 144.74C306.608 142.216 310.731 139.692 310.983 139.734C311.151 139.734 312.876 141.543 314.811 143.731C318.64 148.063 318.555 148.021 321.795 146.633C323.099 146.128 323.141 146.044 323.393 142.553C323.562 140.618 323.814 138.136 323.94 137.084L324.235 135.107L328.273 134.939C330.503 134.897 333.364 134.771 334.668 134.729L337.024 134.644L337.739 138.514ZM58.9926 158.327C58.9505 159.042 59.245 160.262 59.6236 160.935C59.9601 161.651 63.9987 166.74 68.5421 172.293C76.7455 182.305 77.4607 183.272 77.04 183.693C76.9558 183.819 70.3511 183.314 62.4001 182.599C47.3816 181.253 46.1617 181.253 45.2361 182.936C45.0679 183.272 44.6893 183.483 44.4368 183.398C44.1844 183.314 45.2361 180.959 46.7927 178.098C48.3492 175.28 49.7375 173.092 49.8637 173.176C50.032 173.261 50.074 174.102 49.9478 174.985C49.7375 176.373 49.8637 176.71 50.6209 177.089C51.5464 177.593 68.5842 179.36 70.5193 179.15C71.6131 179.024 71.4028 178.729 66.1863 172.293C59.9601 164.679 58.2774 162.828 57.5622 162.828C57.3098 162.828 56.5947 163.249 55.9636 163.712C55.3326 164.217 54.7436 164.511 54.6174 164.385C54.323 164.09 58.2353 156.939 58.6981 156.939C58.8664 156.939 59.0346 157.57 58.9926 158.327ZM582.998 173.429C587.121 182.094 587.458 184.955 584.891 188.236C582.956 190.718 578.413 191.769 575.72 190.381C573.869 189.456 571.598 186.511 570.798 184.114C570.42 182.936 569.999 181.842 569.915 181.632C569.831 181.463 567.517 182.473 564.741 183.861C559.524 186.553 558.935 187.142 559.734 189.203C560.071 190.171 559.945 191.012 559.524 190.55C559.44 190.465 558.178 188.026 556.79 185.165C554.181 179.949 553.761 178.308 555.738 180.832C556.411 181.674 557.168 182.178 557.841 182.178C559.272 182.178 578.834 172.335 579.591 171.199C580.054 170.526 580.138 170.022 579.843 169.264C579.38 168.002 579.38 167.456 579.801 167.456C580.011 167.456 581.442 170.148 582.998 173.429ZM69.8462 195.934C69.0469 197.743 67.9952 200.14 67.4483 201.318L66.4808 203.422L66.3125 201.613C66.1442 199.383 65.387 199.005 61.0118 199.005H57.9829L55.7533 204.137L53.5657 209.311L56.2581 211.919C57.7726 213.391 59.2029 214.569 59.4553 214.569C59.7498 214.569 60.507 213.938 61.2222 213.223C62.8629 211.414 62.7367 212.297 60.8015 216.63C59.245 220.08 57.8988 221.762 58.4457 219.491C58.6139 218.86 58.4457 217.934 58.0671 217.177C57.7305 216.504 53.103 211.33 47.8023 205.693C42.5017 200.056 38.2528 195.261 38.3369 195.051C38.4631 194.882 45.2782 194.756 53.4395 194.84L68.2897 195.008L69.4676 193.831C70.0987 193.2 70.7718 192.695 70.94 192.695C71.1083 192.695 70.6035 194.167 69.8462 195.934ZM564.951 198.332C566.129 199.594 567.265 199.72 583.335 200.225C589.94 200.435 595.577 200.729 595.829 200.856C596.082 201.024 593.347 203.968 589.435 207.712C575.047 221.636 574.837 221.846 574.837 223.781C574.837 224.749 574.669 225.506 574.501 225.506C574.08 225.506 570.125 215.368 570.42 215.074C570.504 214.948 571.009 215.368 571.514 215.957C571.976 216.588 572.734 217.093 573.154 217.093C573.617 217.093 575.174 215.999 576.604 214.611L579.212 212.171L577.824 208.427C577.025 206.366 576.099 204.01 575.72 203.211L575.047 201.739L571.808 201.613C567.517 201.444 566.676 201.907 566.97 204.095C567.096 204.978 567.012 205.735 566.844 205.735C566.507 205.735 563.479 198.374 563.479 197.617C563.479 197.07 563.983 197.322 564.951 198.332ZM604.243 227.189C606.599 236.527 606.473 238.883 603.612 241.575C600.667 244.309 596.839 243.931 593.684 240.607L591.707 238.504L587.71 243.426C583.167 249.021 582.409 250.367 582.409 252.891C582.409 254.026 582.241 254.531 582.031 254.321C581.4 253.648 579.885 247.254 580.264 246.749C580.432 246.539 582.788 243.636 585.48 240.355C590.192 234.55 590.318 234.298 589.94 232.994C589.729 232.236 589.561 231.563 589.561 231.521C589.561 231.269 579.927 234.087 579.17 234.592C578.371 235.097 578.203 235.602 578.203 237.158C578.203 238.252 578.034 238.967 577.866 238.715C577.319 238.168 574.711 227.735 574.921 227.147C575.005 226.852 575.468 227.357 575.931 228.24C576.436 229.334 577.067 229.965 577.656 230.049C578.876 230.217 599.531 224.791 600.835 223.992C601.593 223.487 601.761 222.982 601.761 221.426C601.761 220.29 601.929 219.617 602.14 219.827C602.308 220.08 603.275 223.361 604.243 227.189ZM611.605 259.621C612.699 265.889 613.54 271.105 613.414 271.189C613.161 271.442 608.576 272.577 607.777 272.619C606.767 272.619 607.23 271.862 608.492 271.357C610.427 270.558 611.142 268.833 610.806 265.721C610.679 264.29 610.385 262.902 610.217 262.608C609.964 262.187 607.314 262.524 598.227 264.164C585.396 266.436 584.723 266.688 585.018 269.128C585.186 270.684 584.639 271.021 584.302 269.549C584.092 268.623 582.409 259.116 582.409 258.864C582.409 258.78 582.578 258.738 582.746 258.738C582.914 258.738 583.335 259.411 583.629 260.21C583.966 261.135 584.513 261.766 585.102 261.935C586.153 262.187 608.492 258.401 609.081 257.854C609.291 257.686 609.207 256.34 608.913 254.784C608.282 251.502 606.851 249.904 604.453 249.904C602.097 249.904 602.813 249.147 605.463 248.852C606.767 248.684 608.071 248.516 608.282 248.432C608.534 248.348 608.913 248.263 609.165 248.263C609.417 248.221 610.427 252.975 611.605 259.621ZM23.655 262.734C27.6936 263.449 29.3342 264.206 26.8101 264.206C21.3412 264.206 16.7557 269.759 18.8592 273.797C20.2054 276.405 22.4771 277.078 24.7908 275.564C25.506 275.143 27.7777 272.703 29.8391 270.222C31.9846 267.656 34.3825 265.3 35.308 264.753C39.8093 262.229 45.2782 264.837 46.4141 270.095C46.961 272.703 46.5403 275.017 44.7734 278.509C43.301 281.411 43.2589 281.79 44.2265 282.547C44.6472 282.841 44.8575 283.178 44.7313 283.346C44.4789 283.556 39.6831 282.841 36.0652 282.042C34.4245 281.705 35.0135 281.032 36.9066 281.032C41.3238 280.99 44.3948 277.962 44.6893 273.208C44.8575 270.726 44.7734 270.474 43.5955 269.296C40.6927 266.394 38.7155 267.151 33.2466 273.377C28.4087 278.887 26.9363 279.939 23.9495 279.939C21.2571 279.939 19.4061 278.929 17.9337 276.742C16.9661 275.269 16.7978 274.554 16.7978 272.241C16.7978 269.885 17.0082 269.002 18.2281 266.646C19.6164 263.954 19.6585 263.786 18.9854 263.028C18.144 262.103 18.0599 261.514 18.8171 261.809C19.0695 261.893 21.2571 262.313 23.655 262.734ZM609.922 278.551C614.592 279.855 616.864 284.44 615.475 289.824C614.802 292.516 614.928 293.652 615.938 293.652C616.275 293.652 616.485 293.904 616.401 294.157C616.19 294.788 606.809 295.797 606.809 295.209C606.809 295.04 607.146 294.788 607.566 294.62C609.964 293.82 612.026 292.516 612.741 291.381C614.844 287.973 614.634 284.566 612.236 282.547C609.207 279.981 606.893 281.663 603.654 288.857C600.877 295.082 599.784 296.639 597.554 297.775C593.894 299.667 589.603 298.195 587.458 294.367C586.322 292.39 586.111 288.857 586.785 284.271C587.121 281.958 587.121 281.832 586.238 281.579C584.555 281.159 585.354 280.738 588.425 280.444C590.066 280.275 592.253 280.065 593.263 279.939C594.231 279.77 595.03 279.855 595.03 280.023C595.03 280.233 593.936 280.906 592.59 281.537C591.033 282.252 589.856 283.22 589.182 284.145C586.322 288.436 588.341 294.914 592.506 294.914C595.114 294.914 596.418 293.442 599.447 287.174C602.644 280.486 604.285 278.761 608.071 278.13C608.197 278.088 609.039 278.298 609.922 278.551ZM21.6357 286.88C21.6357 287.09 21.0047 287.384 20.2474 287.511C17.9337 287.931 16.8819 289.446 16.5033 292.895C16.3351 294.578 16.293 296.008 16.4192 296.134C16.7557 296.47 39.8093 297.522 40.861 297.228C41.5341 297.059 41.9548 296.47 42.3334 295.209L42.8803 293.442L43.0065 295.755C43.2169 298.994 42.67 305.851 42.2072 305.851C41.9969 305.851 41.8286 305.22 41.8286 304.421C41.8286 301.56 41.7445 301.56 25.8846 300.803C20.7102 300.551 16.3771 300.467 16.2509 300.593C16.1247 300.677 16.0406 302.191 15.9985 303.916C15.9564 307.408 16.5033 308.417 18.9433 309.3C21.0047 310.058 20.7102 310.647 18.4385 310.31C17.3447 310.184 15.9144 310.058 15.1992 310.058H13.9372L14.2316 302.57C14.3578 298.49 14.6102 293.189 14.7785 290.792L15.0309 286.501H18.3123C20.1633 286.501 21.6357 286.669 21.6357 286.88ZM42.4176 311.993C42.5438 313.086 42.67 314.769 42.67 315.779V317.587L36.3597 322.719C30.2597 327.641 30.0494 327.893 30.0494 329.408V330.964L33.3307 330.796C41.45 330.417 42.3334 330.081 42.3334 327.599C42.3334 325.243 43.0065 325.748 43.2589 328.23C43.7217 332.773 43.8479 338.242 43.5534 338.242C43.3431 338.242 43.0907 337.695 42.9644 337.022C42.6279 335.423 41.6183 334.456 40.1879 334.456C39.5569 334.456 35.5604 334.624 31.2694 334.876C16.1668 335.676 16.1668 335.676 16.1668 338.494C16.1668 340.934 15.4095 340.092 15.1151 337.274C14.9468 335.844 14.8206 332.016 14.7785 328.777C14.6944 323.182 14.7365 322.803 15.7461 321.037C17.1764 318.471 18.6068 317.503 21.2991 317.335C24.4543 317.125 26.5577 318.345 27.946 321.289C28.5349 322.509 29.208 323.392 29.5025 323.308C30.3439 323.014 38.7155 316.031 39.8934 314.643C40.4824 313.928 41.1134 312.624 41.2396 311.698C41.6183 309.511 42.081 309.637 42.4176 311.993ZM44.1003 340.85C44.2265 341.607 44.6472 343.92 44.9837 346.024C45.3203 348.085 45.6148 350.062 45.6148 350.314C45.6148 351.282 44.9837 350.861 44.4789 349.599C44.1424 348.716 43.7217 348.337 43.0486 348.337C41.7024 348.337 36.3597 351.66 36.3597 352.502C36.3597 353.217 37.4955 360.578 37.8321 362.051C38.0004 362.766 38.6314 363.102 40.7348 363.649C45.4886 364.827 46.4561 364.532 46.4561 361.966C46.4561 361.42 46.6665 360.957 46.8768 360.957C47.1292 360.957 47.2975 360.999 47.2975 361.041C47.2975 361.125 47.592 362.766 47.9285 364.743C48.6858 368.949 48.6858 369.791 48.1389 369.791C47.9285 369.791 47.7182 369.538 47.7182 369.244C47.7182 367.603 45.6989 366.804 33.7935 363.733C27.2308 362.051 20.8364 360.41 19.6164 360.116C18.3123 359.821 17.4709 359.4 17.555 359.106C17.6392 358.854 22.8136 355.488 29.0398 351.66C41.7865 343.794 43.0907 342.785 43.0907 340.808C43.0907 339.083 43.8479 339.125 44.1003 340.85ZM588.509 346.613C588.636 347.286 589.182 348.211 589.687 348.674C590.192 349.136 595.829 352.67 602.182 356.54C614.381 363.944 614.676 364.154 614.255 364.575C614.129 364.743 607.861 366.467 600.415 368.402C592.927 370.338 586.406 372.23 585.859 372.567C585.312 372.904 584.681 373.661 584.429 374.25C583.798 375.638 583.125 375.554 583.419 374.081C583.545 373.45 583.84 371.431 584.092 369.58C584.681 365.121 584.891 364.322 585.354 364.322C585.565 364.322 585.775 364.953 585.859 365.668C585.985 366.846 586.153 367.098 587.205 367.183C587.836 367.267 589.687 367.014 591.286 366.636C593.6 366.047 594.231 365.752 594.399 364.995C594.735 363.355 595.871 354.942 595.787 354.815C595.114 354.184 589.603 351.282 589.014 351.282C588.551 351.282 588.005 351.829 587.626 352.754C587.037 354.226 585.985 354.857 586.364 353.469C586.448 353.091 586.785 351.114 587.037 349.052C587.542 345.309 588.047 344.467 588.509 346.613ZM33.7935 372.946C36.4438 374.292 38.4631 378.288 38.4631 382.074C38.4631 384.009 38.3369 384.009 44.3106 382.579C49.5271 381.359 50.4526 380.728 50.1582 378.414C49.8637 375.722 50.7892 377.11 51.5885 380.559C52.0512 382.368 52.6402 384.976 52.9768 386.28C53.6078 389.015 53.2712 389.435 52.2195 387.248C51.5464 385.818 51.0416 385.607 49.1906 385.733C47.3816 385.902 28.4929 390.529 27.4412 391.118C26.3894 391.623 26.2632 391.917 26.2632 393.642C26.2632 394.82 26.095 395.451 25.8846 395.198C25.4639 394.736 23.066 384.766 22.6874 381.737C22.1826 377.909 23.9495 374.165 26.8943 372.904C28.577 372.146 32.3211 372.188 33.7935 372.946ZM611.773 378.498C611.647 378.919 611.016 381.485 610.385 384.177C609.165 389.099 608.492 390.403 608.492 387.753C608.492 385.986 607.861 385.355 606.052 385.355C604.874 385.355 587.71 388.047 586.406 388.468C586.027 388.552 595.913 396.082 601.004 399.573C603.444 401.256 604.033 401.256 605.168 399.657C605.673 398.984 606.262 398.521 606.431 398.606C606.809 398.858 604.622 407.229 604.201 407.229C603.991 407.229 603.864 406.808 603.864 406.261C603.864 405.757 603.486 404.789 603.065 404.158C602.644 403.485 597.302 399.279 591.202 394.736C581.82 387.795 578.918 385.355 580.011 385.355C581.778 385.355 608.955 380.517 609.628 380.097C610.133 379.76 610.637 379.087 610.806 378.624C611.142 377.615 612.026 377.489 611.773 378.498ZM61.8953 413.202C63.9987 418.839 65.5973 423.592 65.5132 423.803C65.387 424.013 64.9663 423.635 64.6297 422.961C63.8725 421.489 63.3677 421.111 62.1477 421.111C60.7174 421.111 40.6927 428.724 39.6831 429.65C38.8417 430.449 38.7997 431.122 39.5569 433.057C39.6831 433.436 39.641 433.73 39.3886 433.73C39.01 433.73 31.6901 414.885 31.5639 413.581C31.5218 413.034 36.7804 410.468 37.2011 410.847C37.2852 410.973 36.6962 411.688 35.8128 412.487C34.6769 413.539 34.2563 414.254 34.2563 415.179C34.2563 416.483 36.9486 424.392 37.6217 425.065C37.9583 425.401 47.5499 422.12 47.9285 421.531C48.2651 421.026 45.2361 413.791 44.4789 413.202C44.1003 412.95 42.9224 412.697 41.8707 412.697C40.819 412.697 40.1459 412.529 40.3983 412.361C40.819 411.94 48.854 408.912 49.443 408.912C50.2002 408.912 49.7795 409.585 48.5596 410.3C47.8865 410.72 47.1713 411.52 47.0451 412.066C46.7927 413.076 47.5499 415.894 49.0223 419.302L49.7795 421.069L51.1678 420.522C51.925 420.227 54.365 419.26 56.6367 418.418C58.8664 417.577 60.8015 416.61 60.9277 416.273C61.1801 415.6 58.6981 408.743 57.5622 407.019C56.7209 405.715 55.2064 404.873 52.9768 404.495C49.3589 403.822 50.4947 403.107 55.1223 403.064L58.1091 403.022L61.8953 413.202ZM574.122 409.458C573.912 411.015 574.038 411.351 574.879 411.898C576.772 413.118 596.881 421.111 597.175 420.816C597.764 420.185 599.237 416.021 599.237 415.011C599.237 414.422 598.606 413.244 597.764 412.319C596.965 411.436 596.292 410.594 596.292 410.468C596.292 410.342 597.596 410.847 599.237 411.562C600.835 412.319 602.182 413.076 602.182 413.244C602.182 413.623 593.81 434.235 593.558 434.529C593.263 434.782 587.71 432.637 587.584 432.216C587.5 432.006 588.257 431.879 589.267 431.963C590.739 432.09 591.328 431.921 592.38 431.038C593.684 429.944 595.745 425.401 595.156 424.896C594.273 424.139 573.617 416.063 572.607 416.063C571.724 416.063 571.261 416.399 570.714 417.325C569.957 418.671 569.116 419.049 569.536 417.829C571.429 412.95 573.827 407.355 574.038 407.481C574.206 407.565 574.206 408.449 574.122 409.458ZM243.547 452.744C250.951 473.356 257.893 492.79 258.986 495.861L260.964 501.456H250.699H240.476L237.91 493.758C236.48 489.551 235.176 485.849 235.007 485.555C234.713 485.134 230.885 485.05 217.254 485.134L199.838 485.26L197.062 493.253L194.285 501.245L185.156 501.372L176.027 501.456L176.49 500.32C177.247 498.301 206.359 418.881 207.032 416.988L207.663 415.221H218.853H230.085L243.547 452.744ZM309.595 444.878C314.98 461.073 319.481 474.029 319.607 473.692C319.902 472.935 336.687 422.162 337.991 418.04L338.917 415.221H352.757H366.598V458.339V501.456H357.132H347.667L347.625 469.149V436.885L344.975 444.457C343.544 448.621 338.622 463.134 334.037 476.763L325.665 501.456L318.471 501.372L311.278 501.245L300.466 469.486C294.534 452.029 289.57 437.516 289.444 437.306C289.36 437.053 289.234 451.398 289.234 469.149L289.192 501.456H280.568H271.944V458.339V415.221L285.91 415.306L299.877 415.432L309.595 444.878ZM433.907 416.231C444.214 419.091 450.819 425.443 453.301 434.866C454.437 439.115 454.521 446.602 453.511 450.556C451.66 457.876 447.117 463.471 440.554 466.499C434.496 469.318 432.772 469.57 418.468 469.78L405.721 469.991V485.723V501.456H396.046H386.37V458.296V415.179L408.793 415.306C428.733 415.474 431.467 415.558 433.907 416.231ZM72.4545 437.6C75.0627 442.943 77.082 447.444 76.9138 447.57C76.7876 447.696 76.1986 447.149 75.6096 446.392C74.6841 445.214 74.3476 445.046 73.2538 445.256C72.5807 445.382 67.4063 447.78 61.7691 450.556C51.6726 455.52 51.5044 455.604 51.5044 456.866C51.5044 457.581 51.7147 458.549 51.925 459.012C52.2616 459.601 52.2195 459.811 51.8409 459.811C51.2519 459.769 45.741 448.621 46.1196 448.243C46.2037 448.117 46.9189 448.79 47.7182 449.757C48.854 451.187 49.2747 451.44 50.2002 451.272C50.8313 451.145 55.7112 448.916 61.096 446.308C69.1731 442.396 70.94 441.386 71.1504 440.545C71.3186 439.83 70.8138 438.4 69.4256 435.623C67.0277 430.786 65.8918 429.818 62.1477 429.608C60.6753 429.482 59.4974 429.271 59.4974 429.103C59.4974 428.724 63.7463 427.967 66.2283 427.883L67.7428 427.841L72.4545 437.6ZM574.08 430.828C577.572 431.585 580.769 433.436 583.167 436.044C589.351 442.816 587.584 453.585 579.591 457.666C573.827 460.61 566.634 459.222 561.628 454.216C553.971 446.56 557.294 433.73 567.643 430.954C570.125 430.281 571.345 430.239 574.08 430.828ZM81.7516 454.889C84.2337 459.264 85.1171 461.83 83.0978 459.054C82.4668 458.128 81.7937 457.708 81.0785 457.708C80.0268 457.708 64.0408 466.625 60.8436 468.981C59.6236 469.865 59.4553 470.201 59.6236 471.337C59.7077 472.052 59.9181 472.977 60.1284 473.356C60.2967 473.777 60.2546 474.113 60.0443 474.113C59.5395 474.113 53.6499 463.891 53.9443 463.428C54.0285 463.26 54.6174 463.681 55.1643 464.396C55.7533 465.153 56.5947 465.7 57.1415 465.7C58.1933 465.7 77.5027 454.679 78.3441 453.585C78.891 452.912 78.8489 452.449 78.1758 450.136C77.671 448.285 78.891 449.925 81.7516 454.889ZM551.952 454.174C551.026 455.52 551.11 456.572 552.246 457.581C553.592 458.843 569.957 469.822 571.135 470.285C572.271 470.706 574.164 469.907 574.585 468.855C574.711 468.476 575.005 468.266 575.258 468.434C575.763 468.729 571.472 475.333 570.756 475.375C570.504 475.375 565.119 474.534 558.809 473.524C552.457 472.473 547.24 471.715 547.156 471.8C547.03 471.884 549.722 476.511 553.13 482.021C556.495 487.574 559.272 492.327 559.272 492.58C559.272 493.379 555.023 499.352 554.602 499.142C554.434 499.016 554.56 498.385 554.939 497.754C556.243 495.482 555.738 494.978 545.557 488.037C540.299 484.461 535.587 481.475 535.04 481.348C534.367 481.222 533.736 481.517 532.979 482.316C532.39 482.989 531.801 483.41 531.675 483.283C531.38 482.989 537.817 473.272 538.322 473.272C538.826 473.272 538.742 473.608 537.985 474.744C536.639 476.763 537.312 477.436 546.104 483.452C555.654 489.888 555.696 489.93 555.401 489.425C555.275 489.215 552.204 484.167 548.544 478.193C544.926 472.22 542.066 467.214 542.192 467.088C542.402 466.878 566.213 470.538 567.601 470.958C567.854 471.084 568.106 471.084 568.106 471C568.106 470.58 550.353 458.97 549.764 458.97C549.386 458.97 548.586 459.516 547.913 460.232C545.726 462.587 546.273 460.947 549.049 456.824C550.606 454.553 552.036 452.828 552.246 452.954C552.415 453.038 552.288 453.627 551.952 454.174ZM87.1785 466.92C88.0619 467.383 89.5343 468.56 90.4598 469.57C92.6895 472.01 100.893 483.746 100.556 484.083C100.43 484.209 99.8411 483.83 99.2942 483.241C97.4853 481.264 97.6115 481.222 85.7482 489.467C81.8358 492.201 78.2179 494.809 77.7131 495.272C76.6193 496.282 76.4931 497.586 77.3765 498.764C78.0917 499.689 78.1758 500.194 77.6289 500.194C77.2082 500.194 70.4352 490.645 68.5842 487.448C66.1021 483.199 66.2704 479.245 69.0049 476.595C70.1407 475.501 70.8138 475.207 72.6648 475.039C74.2214 474.912 75.3152 475.081 76.2407 475.543C77.7131 476.301 77.7131 476.301 77.2082 473.987C75.9041 468.476 81.9199 464.228 87.1785 466.92ZM536.681 491.865C540.131 493.505 543.748 497.207 544.926 500.404C546.946 505.746 545.894 511.299 542.066 515.464C539.457 518.282 536.765 519.334 532.137 519.334C528.772 519.334 528.057 519.207 525.911 518.114C523.009 516.641 519.222 512.771 517.918 509.995C516.53 507.008 516.614 501.245 518.045 498.301C519.433 495.482 522.588 492.454 525.28 491.402C528.52 490.14 533.357 490.35 536.681 491.865ZM108.002 492.79C112.63 494.978 115.617 499.815 115.575 505.031C115.533 510.079 113.261 514.286 108.802 517.441C101.608 522.615 92.0164 520.638 87.8936 513.192C86.7157 511.089 86.6316 510.584 86.6316 506.714C86.6316 503.096 86.7578 502.255 87.6412 500.614C89.8709 496.366 93.3205 493.379 97.5694 492.033C100.598 491.066 105.016 491.402 108.002 492.79ZM509.252 509.701C507.527 511.888 507.654 512.098 517.624 522.488C525.322 530.523 525.785 530.86 527.846 529.219C528.435 528.756 529.024 528.504 529.151 528.714C529.487 529.261 517.876 539.819 515.647 540.997C510.472 543.732 504.793 541.123 504.793 536.034C504.793 534.94 504.961 533.636 505.129 533.131C505.466 532.206 505.466 532.206 503.867 532.837C501.512 533.846 498.567 533.426 496.926 531.911C493.855 529.009 493.687 525.181 496.421 521.184C497.683 519.334 509.589 508.018 509.925 508.354C510.051 508.481 509.757 509.07 509.252 509.701ZM127.438 512.982C129.836 515.043 131.729 516.894 131.603 517.062C131.477 517.272 130.846 517.02 130.173 516.557C129.373 515.926 128.658 515.716 127.985 515.884C127.144 516.095 118.309 525.812 114.06 531.196C113.303 532.164 113.303 532.164 114.271 531.785C114.818 531.575 120.16 529.135 126.134 526.316C132.15 523.54 137.198 521.353 137.366 521.437C137.492 521.563 136.062 527.158 134.127 533.93C132.192 540.661 130.677 546.255 130.762 546.34C131.056 546.676 144.097 531.112 144.35 530.144C144.518 529.429 144.266 528.84 143.424 527.957C142.835 527.326 142.457 526.695 142.667 526.569C143.088 526.316 150.492 532.584 150.197 532.921C150.071 533.047 149.272 532.795 148.472 532.332C147.337 531.743 146.832 531.659 146.243 531.995C145.528 532.458 139.68 539.02 133.706 546.171C130.299 550.21 129.92 551.387 131.519 553.07C132.024 553.617 132.318 554.164 132.15 554.29C131.687 554.753 125.755 549.326 125.882 548.611C125.966 548.233 127.438 542.974 129.163 536.917C130.888 530.86 132.276 525.812 132.276 525.685C132.276 525.601 127.27 527.831 121.17 530.649L110.106 535.823L107.203 533.383C105.605 532.037 104.258 530.733 104.174 530.481C103.964 529.85 104.763 529.976 105.352 530.691C105.983 531.448 107.876 531.533 108.802 530.775C109.18 530.523 112.714 526.485 116.669 521.857C124.283 512.94 124.83 511.972 123.021 510.416C122.137 509.658 121.885 508.859 122.6 509.112C122.811 509.154 124.998 510.92 127.438 512.982ZM488.597 528.251C488.597 528.462 488.092 529.051 487.545 529.598C485.694 531.322 485.483 530.986 493.392 540.997C501.596 551.472 502.311 552.061 504.414 550.462C505.34 549.747 505.971 549.663 505.76 550.21C505.55 550.841 496.505 557.866 496.253 557.613C496.127 557.487 496.421 556.982 496.926 556.435C498.609 554.627 498.188 553.701 492.635 546.592C483.59 535.108 483.38 534.898 482.202 534.772C481.571 534.687 480.604 534.94 480.015 535.361C479.426 535.739 478.921 535.865 478.921 535.613C478.921 535.15 487.713 527.999 488.302 527.957C488.47 527.957 488.597 528.083 488.597 528.251ZM476.355 538.515C475.345 539.483 475.093 539.946 475.303 540.787C475.597 541.881 486.409 558.665 487.881 560.221C488.849 561.273 490.279 561.441 491.541 560.684C491.962 560.389 492.509 560.305 492.677 560.516C492.845 560.684 492.719 560.978 492.341 561.189C492.004 561.399 489.522 562.998 486.914 564.722C484.263 566.447 482.034 567.793 481.908 567.667C481.781 567.583 482.328 566.868 483.043 566.11C483.801 565.353 484.39 564.26 484.39 563.755C484.39 562.451 472.358 544.026 471.264 543.689C470.213 543.353 463.482 547.896 462.177 549.831C461.378 551.009 461.21 551.766 461.294 553.911C461.378 556.604 461.084 557.697 460.663 556.267C460.284 555.005 458.728 549.242 458.728 549.074C458.728 549.032 462.851 546.255 467.899 542.932C476.565 537.169 479.299 535.781 476.355 538.515ZM163.028 540.24C165.763 541.502 168.455 544.11 169.759 546.802C170.558 548.401 170.769 549.452 170.769 552.565C170.769 555.931 170.642 556.646 169.465 559.085C167.614 562.955 165.552 565.101 162.229 566.741C159.747 567.961 159.032 568.13 155.834 568.13C152.763 568.13 151.922 567.961 149.861 566.952C146.832 565.479 143.929 562.282 142.961 559.38C142.541 558.118 142.204 555.931 142.204 554.248C142.204 551.808 142.414 550.799 143.508 548.485C147.294 540.366 155.666 536.833 163.028 540.24ZM453.89 552.944C452.67 554.122 452.418 554.627 452.67 555.384C452.796 555.931 455.236 560.978 458.055 566.657L463.145 576.963L464.617 576.921C465.417 576.921 466.426 576.753 466.847 576.585C467.226 576.374 467.562 576.416 467.562 576.627C467.562 577.005 448.716 586.428 447.958 586.428C447.453 586.428 444.719 581.38 445.014 581.044C445.182 580.917 445.897 581.422 446.654 582.137C448.547 583.988 449.767 583.862 455.068 581.38L459.527 579.277L457.213 574.355C455.951 571.663 454.815 569.349 454.689 569.223C454.353 568.887 447.832 572.252 446.865 573.262C446.149 574.019 446.065 574.524 446.276 575.912C446.402 576.837 446.36 577.594 446.191 577.594C445.729 577.594 441.732 569.223 442.027 568.887C442.195 568.761 442.868 569.223 443.541 569.98C444.214 570.696 445.098 571.284 445.518 571.284C446.528 571.284 453.68 567.877 453.68 567.414C453.68 567.246 452.544 564.806 451.156 562.03C449.178 558.076 448.421 556.982 447.79 556.982C446.528 556.982 439.755 560.516 438.619 561.736C437.946 562.409 437.483 563.713 437.147 565.564C436.894 567.078 436.558 568.34 436.389 568.34C436.137 568.34 435.043 561.147 435.296 560.936C435.632 560.6 454.437 551.598 454.858 551.556C455.152 551.514 454.731 552.187 453.89 552.944ZM188.69 555.762C191.466 557.193 193.696 558.539 193.696 558.749C193.696 559.001 193.359 559.043 192.981 558.875C191.298 558.16 190.078 558.202 189.405 558.959C188.774 559.674 178.131 579.782 178.131 580.286C178.131 580.707 183.137 583.063 184.02 583.063C185.198 583.063 187.26 581.969 187.722 581.128C187.933 580.749 188.311 580.497 188.564 580.581C188.816 580.665 188.269 582.011 187.344 583.61L185.661 586.47L175.691 581.338C170.222 578.52 165.552 576.038 165.342 575.87C164.879 575.449 167.193 570.233 167.824 570.233C168.076 570.233 168.16 570.401 168.076 570.653C167.992 570.864 167.95 571.789 167.95 572.673C167.908 574.566 168.665 575.491 171.736 577.258C173.966 578.52 174.05 578.562 174.639 577.763C176.111 575.785 185.282 557.361 185.282 556.393C185.282 555.72 184.82 555.005 183.936 554.29C181.664 552.481 183.431 553.07 188.69 555.762ZM421.287 566.615C421.287 566.826 420.614 567.414 419.772 567.877C418.384 568.718 418.258 568.929 418.468 570.191C418.847 572.504 425.83 591.518 426.63 592.401C427.219 593.074 427.723 593.201 428.943 592.99C432.141 592.485 430.374 593.453 424.358 595.598C416.323 598.459 414.472 598.669 411.485 597.239C406.521 594.799 405.595 588.405 409.718 584.787C411.022 583.652 415.776 581.801 417.374 581.801C417.711 581.801 417.921 581.548 417.837 581.254C417.711 581.002 416.912 578.688 416.028 576.206C414.219 571.032 413.336 570.065 411.19 570.78C410.517 571.032 409.844 571.074 409.718 570.864C409.592 570.696 410.98 569.98 412.789 569.349C414.556 568.718 417.164 567.751 418.552 567.246C421.581 566.11 421.287 566.152 421.287 566.615ZM215.319 578.099C215.445 584.199 215.698 590.971 215.866 593.159C216.119 596.902 216.203 597.239 217.381 598.333C218.054 598.964 218.559 599.595 218.432 599.679C218.138 600.015 207.831 595.851 207.663 595.346C207.579 595.051 208.126 595.009 209.219 595.136C210.776 595.346 210.944 595.262 211.365 594.21C211.828 592.948 211.449 573.514 210.944 573.177C210.776 573.093 207.495 576.332 203.666 580.371C196.178 588.279 195.715 588.994 197.693 590.55C198.282 591.013 198.618 591.518 198.408 591.644C197.903 591.939 190.331 588.994 190.331 588.489C190.331 588.279 191.046 588.111 191.929 588.111C193.402 588.153 193.906 587.69 203.75 577.594C209.388 571.831 214.268 567.078 214.52 567.078C214.899 567.078 215.109 570.065 215.319 578.099ZM230.464 573.43C235.428 574.818 236.522 575.491 233.871 575.491C231.81 575.491 231.432 576.416 231.936 580.371C232.147 582.137 232.483 583.736 232.694 583.904C232.862 584.072 235.26 584.83 237.994 585.629L243 587.017L244.22 585.587C247.754 581.422 248.175 579.908 246.071 578.94C243.968 577.973 245.104 577.678 247.88 578.478C249.437 578.94 251.414 579.487 252.298 579.74C254.064 580.202 254.022 580.96 252.255 580.96C251.624 580.96 250.699 581.254 250.194 581.591C249.731 581.927 245.314 587.143 240.392 593.159C235.47 599.174 231.305 604.096 231.095 604.096C230.632 604.096 230.506 603.254 229.034 590.004C227.435 575.617 227.225 574.481 225.626 573.304C224.364 572.378 223.943 571.453 224.995 571.831C225.29 571.958 227.772 572.673 230.464 573.43ZM401.977 574.481C401.515 574.818 400.926 575.785 400.715 576.669C400.463 577.51 400 583.988 399.622 591.055C398.906 604.39 398.78 605.778 398.233 605.778C398.023 605.778 393.858 601.361 388.936 595.977C378.84 584.998 377.62 583.904 375.474 583.904C374.633 583.904 374.17 583.736 374.423 583.568C375.264 582.768 384.435 579.698 384.813 580.076C385.024 580.286 384.856 580.581 384.309 580.749C383.047 581.128 382.373 582.516 383.047 583.399C385.066 586.049 387.338 588.531 387.758 588.531C388.011 588.531 390.451 587.732 393.143 586.765L398.065 585.04L398.275 581.843C398.528 577.51 398.191 576.753 396.046 576.753C395.12 576.753 394.363 576.627 394.363 576.416C394.363 575.954 402.524 573.093 402.735 573.514C402.819 573.724 402.482 574.145 401.977 574.481ZM372.487 583.063C372.487 583.273 372.025 583.483 371.436 583.483C370.342 583.483 368.701 584.787 368.701 585.671C368.701 587.017 370.847 607.713 371.057 608.597C371.394 609.816 372.403 610.405 374.212 610.405C375.011 610.405 375.432 610.574 375.222 610.784C374.675 611.205 365.336 612.088 361.003 612.088C355.786 612.088 352.841 609.985 352.421 606.031C352.084 603.128 353.43 600.604 356.039 599.174C357.216 598.543 358.184 597.87 358.184 597.702C358.184 597.155 351.032 589.162 349.35 587.816C348.424 587.101 346.91 586.386 345.984 586.218C343.25 585.755 344.049 585.292 348.046 584.956L351.79 584.661L353.262 586.302C362.896 597.113 362.517 596.734 363.99 596.692C364.747 596.65 365.42 596.566 365.546 596.482C365.63 596.398 365.42 593.958 365.125 591.055C364.452 585.25 363.99 584.325 361.423 584.325C358.773 584.325 360.918 583.694 365.041 583.231C370.805 582.6 372.487 582.558 372.487 583.063ZM340.095 585.923C340.095 586.134 339.337 586.596 338.412 586.975C336.813 587.564 336.729 587.732 336.729 589.373C336.729 590.803 340.01 612.509 340.305 612.845C340.473 613.013 344.932 612.088 346.11 611.625C347.414 611.078 348.508 609.312 348.508 607.671C348.508 607.082 348.677 606.619 348.887 606.619C349.266 606.619 349.77 609.606 349.77 611.836V613.182L338.412 614.991C332.144 616 326.969 616.757 326.885 616.673C326.717 616.463 325.791 611.667 325.791 610.952C325.791 610.658 326.002 610.405 326.212 610.405C326.464 610.405 326.633 610.7 326.633 611.078C326.633 611.415 327.222 612.298 327.937 613.013C329.199 614.275 329.241 614.317 332.438 614.023C334.205 613.897 335.762 613.644 335.93 613.434C336.098 613.266 335.341 607.755 334.247 601.235C332.102 588.111 332.017 587.816 329.283 588.279C328.526 588.363 327.895 588.321 327.895 588.111C327.895 587.69 328.105 587.648 335.257 586.47C337.823 586.049 339.926 585.671 340.01 585.629C340.053 585.629 340.095 585.755 340.095 585.923ZM312.918 587.101C315.274 587.942 316.578 587.858 316.831 586.849C317.378 584.703 317.798 586.47 317.798 591.055C317.798 593.832 317.63 596.103 317.462 596.103C317.293 596.103 316.915 595.22 316.62 594.168C315.569 590.214 312.708 587.942 308.754 587.942C304.673 587.942 302.023 590.635 303.074 593.747C303.663 595.598 304.547 596.356 309.973 599.51C317.462 603.927 319.397 606.998 317.462 611.331C315.569 615.622 310.352 617.304 305.304 615.159C303.411 614.402 302.317 614.486 302.023 615.453C301.349 617.514 300.971 615.916 300.971 611.247C300.971 608.47 301.139 606.199 301.307 606.199C301.518 606.199 301.896 607.166 302.191 608.344C303.621 613.813 310.436 616.379 313.633 612.677C314.727 611.457 314.98 610.027 314.433 608.681C313.928 607.503 310.226 604.727 306.86 603.044C301.434 600.31 299.204 597.66 299.204 594C299.288 587.816 305.683 584.577 312.918 587.101Z" fill="black"/>
<path d="M326.759 24.8534C325.328 27.8821 324.319 30.4061 324.487 30.4902C324.866 30.7426 333.321 30.9529 333.448 30.7005C333.574 30.4902 329.956 20.1 329.619 19.7214C329.493 19.5532 328.189 21.8668 326.759 24.8534Z" fill="black"/>
<path d="M413.464 31.7525C411.319 32.72 409.089 35.286 407.532 38.525C403.199 47.6532 404.63 55.225 411.024 57.0759C413.085 57.6648 413.506 57.6648 415.568 57.0759C419.564 55.8981 422.972 51.0185 424.486 44.288C425.706 38.8195 424.696 34.9915 421.373 32.6779C419.27 31.2056 415.61 30.7849 413.464 31.7525Z" fill="black"/>
<path d="M172.872 50.9347C171.736 51.3975 170.221 52.2388 169.506 52.7856L168.244 53.8373L170.348 57.8335C173.629 64.1433 173.25 63.8488 176.363 62.2083C177.836 61.4932 179.687 60.105 180.528 59.2216C181.874 57.7073 182.001 57.4128 181.832 55.4778C181.58 53.1642 180.444 51.6078 178.256 50.6823C176.49 49.9252 175.396 49.9672 172.872 50.9347Z" fill="black"/>
<path d="M180.025 62.2076C178.889 62.6282 177.122 63.4696 176.154 64.1005L174.43 65.1942L177.164 70.2842C178.679 73.0605 180.151 75.332 180.445 75.332C181.287 75.332 183.937 74.1121 185.746 72.9343C187.976 71.462 189.07 69.5691 189.07 67.2134C189.07 64.9839 187.639 62.9648 185.41 62.0393C183.643 61.2822 182.591 61.3242 180.025 62.2076Z" fill="black"/>
<path d="M480.939 65.2365C477.574 66.2461 473.577 70.2844 471.095 75.2061C469.791 77.73 469.454 78.9499 469.328 81.2635C469.076 85.1756 470.338 87.4051 473.661 89.0456C476.648 90.4758 479.256 90.3076 482.159 88.5408C485.903 86.2272 490.699 78.992 491.372 74.6592C492.255 68.728 486.492 63.5539 480.939 65.2365Z" fill="black"/>
<path d="M146.159 66.7506C142.92 68.1388 140.984 70.9572 140.984 74.2803C140.984 80.8005 147.379 89.3398 153.437 90.9803C158.611 92.3264 163.954 87.2786 163.281 81.6418C162.734 76.9305 157.012 69.1063 152.679 67.0871C150.239 65.9514 148.262 65.8252 146.159 66.7506Z" fill="black"/>
<path d="M505.886 87.9941C503.993 90.0974 502.479 92.0745 502.479 92.3689C502.479 93.2102 506.223 96.3651 508.326 97.3326C509.883 98.0057 510.429 98.0478 511.692 97.6692C515.52 96.5334 516.992 92.5792 514.931 89.0457C513.921 87.321 510.472 84.1661 509.588 84.1661C509.42 84.1661 507.737 85.8908 505.886 87.9941Z" fill="black"/>
<path d="M499.955 94.6819C499.618 95.1025 497.936 97.1217 496.211 99.0987L493.098 102.716L495.159 104.82C497.767 107.512 499.787 108.563 502.311 108.563C504.035 108.563 504.456 108.353 505.886 106.923C507.485 105.324 507.78 104.525 507.527 101.833C507.359 99.898 505.844 97.7526 502.858 95.2708C500.88 93.6302 500.796 93.5882 499.955 94.6819Z" fill="black"/>
<path d="M89.4926 117.23C87.0947 118.66 85.4961 121.394 85.4961 124.129C85.4961 127.115 86.9264 129.765 90.4181 133.215C96.0553 138.809 102.113 140.618 106.068 137.884C109.475 135.528 110.779 130.691 108.97 126.947C107.246 123.413 101.23 118.113 97.3594 116.767C94.5829 115.8 91.554 115.968 89.4926 117.23Z" fill="black"/>
<path d="M328.021 157.823C319.354 159.337 311.361 165.605 307.491 173.976C305.64 178.014 305.009 181.253 305.093 186.133C305.219 193.031 307.281 198.794 311.488 203.758C325.16 219.953 350.569 216.252 359.193 196.775C362.98 188.194 361.675 176.584 356.122 169.138C352.168 163.796 345.731 159.463 339.884 158.159C337.023 157.528 330.713 157.318 328.021 157.823Z" fill="black"/>
<path d="M289.402 216.167C288.771 217.724 287.467 220.753 286.583 222.94L284.9 226.894L288.434 230.344L291.926 233.835L298.573 231.395C302.233 230.049 305.346 228.871 305.472 228.703C305.64 228.577 305.388 228.198 304.967 227.862C304.21 227.315 304.252 227.104 305.724 222.688C306.566 220.122 307.281 217.808 307.281 217.471C307.239 217.135 306.439 216.21 305.472 215.368L303.663 213.812L299.12 215.873C296.638 217.009 294.366 217.934 294.071 217.934C293.819 217.934 293.23 217.303 292.767 216.546C292.347 215.831 291.673 214.779 291.295 214.274C290.58 213.349 290.538 213.349 289.402 216.167Z" fill="black"/>
<path d="M224.827 241.912C222.639 242.374 220.494 242.921 220.115 243.174C219.695 243.384 219.106 243.594 218.769 243.594C218.18 243.594 211.323 246.875 210.944 247.338C210.818 247.506 209.767 248.222 208.547 248.979C206.149 250.535 200.469 256.214 198.45 259.201C189.91 271.568 188.648 287.805 195.127 301.392C197.987 307.366 203.162 313.507 208.547 317.335C211.449 319.396 216.75 322.257 217.717 322.257C218.054 322.257 218.517 322.425 218.727 322.593C219.274 323.056 221.63 323.729 225.879 324.613C228.487 325.159 230.464 325.243 234.713 325.033C240.098 324.781 243.127 324.192 248.091 322.299C258.566 318.387 267.863 309.09 272.028 298.406C280.4 276.826 269.672 252.386 248.175 244.141C243.253 242.248 242.243 241.996 238.079 241.491C232.82 240.902 229.455 241.028 224.827 241.912Z" fill="black"/>
<path d="M401.01 265.468C391.292 267.025 383.005 271.315 376.274 278.382C370.595 284.229 367.944 288.857 364.705 298.363C361.592 307.45 360.919 313.128 362.181 320.364C364.326 332.563 372.824 343.626 384.646 349.599C388.558 351.534 394.111 353.595 397.939 354.479C402.777 355.615 411.78 355.531 416.66 354.353C421.582 353.091 426.546 350.945 430.669 348.211C434.497 345.645 440.428 339.756 442.784 336.138C453.301 320.153 453.301 300.383 442.784 284.398C440.428 280.78 434.497 274.891 430.669 272.325C426.588 269.633 421.582 267.403 416.87 266.267C413 265.3 404.628 264.879 401.01 265.468Z" fill="black"/>
<path d="M329.829 287.889C329.703 289.067 329.577 292.096 329.577 294.536V298.995L326.758 299.458C325.16 299.752 320.574 300.341 316.536 300.846C312.497 301.308 309.132 301.771 309.048 301.855C308.963 301.939 308.627 303.201 308.29 304.632C307.954 306.104 307.407 308.039 307.07 308.922C305.976 311.699 305.472 311.026 312.96 317.209C315.274 319.144 317.503 320.995 317.924 321.374C318.765 322.089 318.765 321.668 317.966 308.123L317.756 304.295L319.354 303.832C320.238 303.58 321.92 303.243 323.056 303.117C324.949 302.865 332.774 301.266 336.098 300.467C337.191 300.173 337.402 299.878 337.654 298.28C337.822 297.228 338.201 295.461 338.538 294.283L339.084 292.222L336.771 290.498C335.467 289.572 333.447 288.1 332.269 287.216L330.124 285.66L329.829 287.889Z" fill="black"/>
<path d="M576.225 178.098C573.365 179.528 571.051 180.874 571.051 181.127C571.051 181.337 571.429 182.347 571.892 183.314C573.827 187.605 578.918 187.984 582.325 184.113C583.629 182.599 583.882 181.758 583.713 179.655C583.587 178.561 582.031 175.448 581.61 175.49C581.484 175.49 579.044 176.668 576.225 178.098Z" fill="black"/>
<path d="M44.3516 198.922C44.3516 199.384 51.8818 207.418 52.3446 207.418C52.6391 207.418 56.257 199.426 56.0466 199.216C55.668 198.922 44.3516 198.585 44.3516 198.922Z" fill="black"/>
<path d="M577.823 204.137C578.328 205.357 579.085 207.376 579.548 208.554L580.431 210.783L582.366 209.143C583.418 208.217 585.395 206.367 586.741 204.979L589.223 202.497L587.583 202.245C586.699 202.076 583.965 201.95 581.483 201.95H576.939L577.823 204.137Z" fill="black"/>
<path d="M596.503 229.586C593.516 230.386 590.992 231.101 590.908 231.185C590.866 231.227 591.202 232.321 591.665 233.625C592.675 236.359 594.736 238.378 596.882 238.757C600.037 239.388 603.865 236.359 603.865 233.246C603.865 231.816 602.687 228.03 602.266 228.072C602.098 228.072 599.532 228.787 596.503 229.586Z" fill="black"/>
<path d="M19.9527 322.3C17.2182 323.393 15.9141 326.001 16.3768 329.408L16.6713 331.511H18.6065C19.7002 331.511 22.4347 331.385 24.7485 331.217L28.8712 330.964L28.5767 328.819C27.9036 323.646 24.0333 320.701 19.9527 322.3Z" fill="black"/>
<path d="M29.5461 355.994C26.8117 357.677 24.582 359.149 24.582 359.275C24.582 359.485 34.9309 362.219 35.7723 362.219C36.1088 362.219 36.0667 360.999 35.6461 358.308C34.7626 352.335 35.2254 352.503 29.5461 355.994Z" fill="black"/>
<path d="M596.671 360.537C596.125 364.491 596.125 365.164 596.629 365.164C597.597 365.164 607.651 362.514 607.651 362.261C607.651 362.051 598.48 356.373 597.597 355.994C597.429 355.952 597.008 357.971 596.671 360.537Z" fill="black"/>
<path d="M28.156 377.616C25.4215 379.046 24.2857 381.149 24.7905 384.051C25.2953 387.122 25.3374 387.164 31.7318 385.608L37.411 384.262L37.2848 382.621C37.0745 380.308 36.149 378.499 34.7187 377.658C33.2042 376.775 29.8387 376.733 28.156 377.616Z" fill="black"/>
<path d="M211.154 451.902C207.746 461.914 204.843 470.369 204.717 470.622C204.591 471.042 207.283 471.168 217.38 471.168H230.253L224.153 452.996C220.787 442.985 217.885 434.529 217.716 434.235C217.548 433.94 214.814 441.26 211.154 451.902Z" fill="black"/>
<path d="M406.059 430.617C405.849 430.786 405.723 436.507 405.723 443.321V455.688L415.945 455.52C427.136 455.31 428.566 455.057 431.469 452.66C432.31 451.945 433.53 450.304 434.203 449C435.213 446.897 435.381 446.098 435.381 442.774C435.381 439.451 435.213 438.652 434.203 436.549C432.941 434.067 430.964 432.342 428.019 431.206C426.378 430.575 406.606 430.029 406.059 430.617Z" fill="black"/>
<path d="M564.615 434.782C562.553 435.497 561.207 436.759 560.113 438.989C557.673 444.036 560.66 449.337 568.106 453.038C572.482 455.184 576.478 456.025 579.002 455.268C583.924 453.754 586.322 448.243 584.05 443.532C582.41 440.166 576.604 436.212 571.22 434.782C568.233 434.025 566.718 434.025 564.615 434.782Z" fill="black"/>
<path d="M82.4683 471.589C80.7435 473.104 79.9442 475.249 80.3228 477.184C80.7435 478.993 82.3 482.022 83.7724 483.704L84.9504 485.092L89.662 481.811C94.9206 478.151 94.8365 478.404 92.6068 474.828C89.8303 470.327 85.4972 468.939 82.4683 471.589Z" fill="black"/>
<path d="M72.4973 479.371C69.1739 481.18 68.8374 485.849 71.8242 489.72C74.0539 492.664 74.0539 492.664 78.5552 489.509C80.7848 487.953 82.72 486.48 82.8883 486.27C83.2669 485.597 79.5228 480.339 78.0924 479.456C76.578 478.614 74.0118 478.53 72.4973 479.371Z" fill="black"/>
<path d="M523.639 494.347C521.073 495.609 519.601 498.007 519.39 501.204C519.138 504.779 520.4 507.135 524.481 510.963C530.16 516.263 535.334 517.862 539.289 515.59C542.907 513.445 544.379 509.659 543.117 505.789C541.224 500.068 532.726 493.464 527.173 493.464C526.205 493.464 524.607 493.842 523.639 494.347Z" fill="black"/>
<path d="M99.8409 495.44C97.0223 496.829 91.1327 502.634 89.8706 505.284C88.4824 508.144 88.6086 511.299 90.2072 513.697C93.5727 518.829 99.8409 518.703 106.193 513.402C112.293 508.313 114.439 502.634 111.872 498.259C109.559 494.305 104.51 493.127 99.8409 495.44Z" fill="black"/>
<path d="M502.606 517.02C501.386 517.946 499.913 519.544 499.324 520.554C496.001 526.233 501.259 531.743 507.275 528.799C509.126 527.915 513.123 524.34 512.912 523.751C512.702 523.204 505.382 515.338 505.088 515.338C504.919 515.338 503.826 516.095 502.606 517.02Z" fill="black"/>
<path d="M511.396 527.915C508.073 531.196 507.442 532.962 508.704 535.613C510.681 539.693 514.888 540.029 519.221 536.496C522.502 533.804 522.46 533.593 518.464 529.345C516.529 527.326 514.762 525.601 514.467 525.517C514.173 525.433 512.784 526.526 511.396 527.915Z" fill="black"/>
<path d="M156.338 541.502C154.277 542.217 151.29 545.036 149.06 548.485C144.391 555.594 144.391 561.315 149.018 564.68C151.416 566.447 154.571 566.699 157.264 565.437C160.924 563.629 165.509 557.655 166.939 552.818C167.865 549.705 167.781 547.812 166.687 545.624C164.836 541.965 160.293 540.156 156.338 541.502Z" fill="black"/>
<path d="M414.767 583.862C410.728 585.713 410.518 591.013 414.346 594.378C415.818 595.64 416.155 595.767 418.09 595.598C419.268 595.514 420.74 595.094 421.329 594.715L422.423 594L420.488 588.531C418.3 582.39 418.174 582.306 414.767 583.862Z" fill="black"/>
<path d="M232.652 585.965C232.568 586.176 233.83 597.155 234.041 597.744C234.083 597.912 241.613 588.826 241.655 588.531C241.655 588.153 232.821 585.629 232.652 585.965Z" fill="black"/>
<path d="M393.311 588.363C391.25 589.12 389.357 589.835 389.147 589.919C388.936 590.004 390.619 592.107 392.933 594.589L397.098 599.132L397.392 596.271C397.897 590.761 397.981 586.849 397.518 586.891C397.308 586.891 395.415 587.564 393.311 588.363Z" fill="black"/>
<path d="M360.875 599.006C357.51 600.52 356.248 603.507 357.552 606.872C358.604 609.649 360.16 610.49 363.736 610.322C365.292 610.238 366.639 610.069 366.807 609.943C367.017 609.691 366.428 602.708 365.923 599.553C365.755 598.333 365.587 598.207 364.157 598.207C363.315 598.207 361.843 598.585 360.875 599.006Z" fill="black"/>
</svg>
