<svg width="82" height="82" viewBox="0 0 82 82" fill="none" xmlns="http://www.w3.org/2000/svg">
<circle cx="40.5464" cy="40.7114" r="39.6914" stroke="#669900" stroke-width="0.504819"/>
<circle cx="40.5464" cy="40.7114" r="39.0604" stroke="black" stroke-width="0.757229"/>
<path d="M41.1226 44.3748L43.2685 47.9088C44.4255 49.192 46.7902 51.7711 46.9921 51.8216C47.2446 51.8847 59.4254 52.3895 61.5081 51.3167C63.1743 50.4584 63.8012 48.2664 63.9064 47.2777C64.8321 43.2178 66.6455 34.8706 66.494 33.9619C66.3426 33.0531 61.2136 29.6705 58.668 28.0928L50.4002 28.3452L45.0356 30.6802L43.2685 32.6997L41.9431 34.9085C41.7537 35.3082 41.4003 36.1328 41.5013 36.2338C41.6023 36.3347 42.0903 36.7807 42.3218 36.9911L42.448 37.559V38.5057L40.6177 39.0105C40.5967 39.4523 40.5672 40.4242 40.6177 40.7776C40.6682 41.131 40.9754 42.0187 41.1226 42.4184L42.8267 43.1757L41.1226 44.3748Z" fill="#669900"/>
<path d="M47.8761 65.3894C47.9266 65.6418 43.3951 65.4946 41.123 65.3894H34.6224L33.4863 53.0832L47.3712 52.4521C47.5185 56.6594 47.8256 65.137 47.8761 65.3894Z" fill="#669900"/>
<path d="M39.1463 1.34482C38.7481 1.35544 36.805 1.49878 36.4121 1.54125C34.9414 1.70051 33.4654 1.93941 32.085 2.23671C31.586 2.3482 30.0463 2.72513 29.8817 2.78352C29.8074 2.81007 29.5685 2.88439 29.3508 2.9481C28.3261 3.2454 26.9298 3.72319 26.2449 4.00456C26.1865 4.03111 25.9741 4.11605 25.767 4.19037C25.5653 4.27001 25.2998 4.38149 25.183 4.43458C25.0662 4.48767 24.7105 4.64694 24.3866 4.78497C23.8026 5.03979 21.6948 6.08564 21.578 6.1812C21.5462 6.20774 21.3285 6.32985 21.0949 6.45195C20.8613 6.57936 20.633 6.71209 20.5852 6.74925C20.5427 6.79172 20.4896 6.82357 20.4737 6.82357C20.3781 6.82357 18.3712 8.12955 17.6386 8.66044C17.405 8.83563 17.0492 9.09046 16.8475 9.23911C16.6457 9.38245 16.3378 9.62666 16.1573 9.7753C15.9768 9.92395 15.7113 10.1363 15.5626 10.2425C15.4087 10.3487 15.2813 10.4548 15.2706 10.4761C15.26 10.4973 15.1857 10.5716 15.0954 10.6353C14.4424 11.1397 12.2072 13.3004 11.3471 14.2613C10.7206 14.9621 10.2269 15.5354 10.0251 15.7956C9.92422 15.9283 9.77026 16.1194 9.68 16.2203C9.59505 16.3264 9.46763 16.4804 9.40392 16.5653C9.34021 16.6556 9.10129 16.9741 8.86768 17.282C8.63939 17.59 8.358 17.9881 8.24119 18.158C8.12439 18.3332 7.86954 18.7101 7.6731 18.9915C7.47666 19.2729 7.31738 19.5171 7.31738 19.533C7.31738 19.5489 7.1528 19.8197 6.95635 20.1329C6.21837 21.3009 5.17245 23.2492 4.6893 24.3694C4.56188 24.6614 4.34951 25.1498 4.21147 25.4577C4.07343 25.7656 3.85575 26.3018 3.73364 26.6522C3.60622 27.0026 3.41508 27.5282 3.3089 27.8201C2.69833 29.4765 1.91787 32.5397 1.7055 34.0846C1.69489 34.1696 1.66303 34.3501 1.63648 34.4828C1.57808 34.7429 1.39226 36.1232 1.34448 36.6329C1.32855 36.8081 1.29138 37.1638 1.26484 37.4292C1.23829 37.6893 1.1852 38.5494 1.15334 39.3404C1.08432 40.8056 1.13741 42.8071 1.27015 44.2245C1.33917 44.9147 1.56746 46.7144 1.63648 47.0913C1.66834 47.2347 1.73736 47.6169 1.79576 47.9408C1.85947 48.2593 1.94442 48.7265 1.98159 48.976C2.02406 49.2255 2.10901 49.6184 2.17272 49.8519C2.23112 50.0855 2.31076 50.3935 2.34792 50.5421C2.60808 51.5614 3.14431 53.3452 3.3089 53.7274C3.34606 53.8124 3.47349 54.1734 3.60091 54.5238C3.72833 54.8741 3.97255 55.4953 4.14776 55.9041C4.32297 56.3128 4.52472 56.7906 4.59374 56.9658C4.69992 57.226 4.92822 57.6931 5.50693 58.8452C5.53347 58.893 5.61842 59.0628 5.69806 59.2221C5.89981 59.6203 6.74398 61.0855 6.99883 61.4784C7.11563 61.6536 7.23774 61.8553 7.27491 61.9296C7.33331 62.057 7.53506 62.3543 8.20934 63.3365C8.74557 64.1116 9.14376 64.6478 9.5632 65.1521C9.78618 65.4229 9.97201 65.6618 9.97201 65.6724C9.97201 65.7467 11.3737 67.3341 12.3081 68.3162C12.7912 68.8258 14.2725 70.2061 14.8831 70.7158C15.0901 70.8857 15.2653 71.0396 15.2813 71.0609C15.3503 71.1511 16.9218 72.3669 17.5589 72.8234C18.127 73.2322 19.3588 74.0445 19.9003 74.3789C20.1764 74.5488 20.4684 74.7293 20.548 74.7824C20.6277 74.8408 20.702 74.8833 20.7179 74.8833C20.7339 74.8833 20.9675 75.0107 21.2382 75.1699C21.509 75.3239 21.8753 75.5256 22.0506 75.6212C22.2258 75.7114 22.4063 75.8123 22.4487 75.8389C22.5656 75.9132 24.0521 76.614 24.7583 76.9272C25.6502 77.32 27.6518 78.0845 28.2624 78.2597C28.411 78.3022 28.5756 78.3606 28.634 78.3818C28.6924 78.4084 28.8464 78.4561 28.9791 78.4933C29.1119 78.5305 29.3189 78.5942 29.441 78.6313C30.3861 78.9339 32.5629 79.4383 33.6513 79.6135C34.4901 79.7462 34.6919 79.7727 35.3768 79.8683C35.7856 79.9267 36.29 79.9904 36.4917 80.0063C37.2616 80.0753 37.3996 80.086 37.6597 80.1125C38.5623 80.2027 39.0667 80.2187 40.686 80.2081C41.6789 80.2027 42.5867 80.1815 42.7035 80.1656C42.8203 80.1497 43.2876 80.1125 43.7388 80.0806C44.1901 80.0541 44.7423 80.0063 44.96 79.9798C45.1776 79.9532 45.6555 79.8895 46.0218 79.8471C46.3882 79.8046 46.7333 79.7515 46.7917 79.7356C46.8448 79.7143 47.0996 79.6666 47.3491 79.6294C48.342 79.4701 48.8145 79.3852 48.9154 79.3427C48.9738 79.3162 49.1914 79.2684 49.3932 79.2365C49.6003 79.2047 49.8126 79.1569 49.871 79.1304C49.9294 79.1038 50.1206 79.056 50.2958 79.0189C50.471 78.987 50.6409 78.9392 50.6674 78.918C50.6993 78.8968 50.8161 78.8649 50.9329 78.8437C51.0497 78.8224 51.2514 78.7747 51.3842 78.7322C51.5169 78.6897 51.777 78.6101 51.9682 78.5517C52.1593 78.4986 52.5522 78.3712 52.8442 78.2756C53.1362 78.1801 53.4813 78.0686 53.614 78.0261C53.7468 77.9836 54.0972 77.8562 54.3945 77.7447C54.6918 77.6279 54.9679 77.5377 55.0104 77.5377C55.0529 77.5377 55.1166 77.5005 55.1537 77.4581C55.1909 77.4156 55.2546 77.3784 55.2971 77.3784C55.3767 77.3784 55.536 77.3147 55.9767 77.1183C56.0935 77.0652 56.343 76.9537 56.5341 76.8741C57.4792 76.4759 59.64 75.3982 59.8312 75.223C59.8737 75.1806 59.9374 75.1487 59.9639 75.1487C59.9905 75.1487 60.155 75.0638 60.3302 74.9576C60.7391 74.7081 60.9833 74.5647 61.1638 74.4745C61.2434 74.432 61.3231 74.3736 61.3443 74.3471C61.3602 74.3152 61.4293 74.2727 61.4877 74.2462C61.6788 74.1613 62.6185 73.5401 63.4627 72.9455C63.6114 72.8393 63.7866 72.7119 63.8609 72.6642C63.9352 72.6164 64.0255 72.5314 64.0627 72.4837C64.0998 72.4306 64.1582 72.3881 64.1848 72.3881C64.2379 72.3881 64.7051 72.0483 64.8962 71.8731C64.9546 71.8147 65.1351 71.682 65.2944 71.5652C65.4537 71.4537 65.613 71.3369 65.6395 71.3051C65.6714 71.2732 65.8466 71.114 66.0377 70.9547C66.2288 70.7954 66.5261 70.5353 66.7014 70.376C66.8766 70.2221 67.1951 69.9301 67.4075 69.739C68.1295 69.086 69.3294 67.9021 69.3294 67.8437C69.3294 67.8118 69.4887 67.6313 69.6905 67.4402C69.9984 67.1376 70.7364 66.2988 71.0921 65.837C71.1611 65.752 71.3629 65.5025 71.5487 65.2795C71.9363 64.807 71.9044 64.8495 72.1646 64.462C72.2814 64.2974 72.3929 64.1593 72.4194 64.1593C72.4407 64.1593 72.4619 64.1328 72.4619 64.101C72.4619 64.0691 72.5681 63.9098 72.7008 63.7399C72.8335 63.5754 72.9397 63.4161 72.9397 63.3949C72.9397 63.3736 73.0194 63.2568 73.1202 63.1347C73.3167 62.8852 73.7892 62.1738 73.7892 62.1207C73.7892 62.1048 73.8741 61.9721 73.975 61.8288C74.0759 61.6907 74.1608 61.5527 74.1608 61.5368C74.1608 61.5155 74.2192 61.42 74.2883 61.3297C74.3573 61.2342 74.5006 61.0006 74.6015 60.8041C74.7077 60.6024 74.8404 60.3794 74.8988 60.3051C74.9625 60.2255 75.0103 60.1352 75.0103 60.0981C75.0103 60.0609 75.0793 59.9388 75.159 59.8273C75.2439 59.7158 75.3767 59.4769 75.4563 59.3017C75.6687 58.8399 75.7483 58.6806 76.1147 57.9904C76.2952 57.6454 76.4438 57.3375 76.4438 57.295C76.4438 57.2578 76.5288 57.0614 76.6296 56.8543C76.7305 56.6526 76.842 56.4031 76.8792 56.3022C76.911 56.2014 76.9907 56.0155 77.0597 55.8934C77.1234 55.766 77.219 55.5377 77.2668 55.3891C77.3145 55.2351 77.3889 55.0334 77.4313 54.9378C77.4738 54.8476 77.5057 54.7414 77.5057 54.6989C77.5057 54.6618 77.5375 54.5821 77.5747 54.5238C77.6119 54.4654 77.7127 54.1999 77.7977 53.9398C77.8826 53.6743 77.9676 53.4354 77.9888 53.4089C78.0047 53.377 78.0419 53.2709 78.0631 53.17C78.0844 53.0691 78.1215 52.9576 78.1428 52.9311C78.18 52.8833 78.3976 52.1241 78.5197 51.6145C78.5463 51.503 78.5888 51.3756 78.6153 51.3225C78.6631 51.2376 78.7905 50.7438 78.8914 50.2501C78.9232 50.1174 78.9657 49.9741 78.987 49.9316C79.0135 49.8891 79.0719 49.5865 79.1197 49.268C79.1728 48.9441 79.2312 48.6468 79.2577 48.5991C79.279 48.5513 79.3321 48.2805 79.3692 47.9885C79.4064 47.7019 79.4489 47.4364 79.4701 47.4099C79.4913 47.378 79.5285 47.1763 79.5497 46.9586C79.571 46.741 79.6081 46.5339 79.6294 46.5074C79.6559 46.4755 79.7037 46.0933 79.7356 45.6579C79.7727 45.2173 79.8205 44.8138 79.8471 44.7554C79.9161 44.5909 80.001 42.5045 80.001 40.8747C80.001 39.1864 79.9161 36.9514 79.8471 36.7921C79.8205 36.7337 79.7674 36.325 79.7356 35.8896C79.6984 35.449 79.6506 35.0668 79.6294 35.0402C79.6081 35.0084 79.571 34.8066 79.555 34.589C79.5338 34.3713 79.4966 34.143 79.4701 34.0846C79.4489 34.0262 79.3958 33.7661 79.3639 33.5006C79.3267 33.2405 79.279 32.9857 79.2524 32.9432C79.2312 32.9007 79.1728 32.5875 79.1197 32.2531C79.0719 31.9186 79.0135 31.616 78.9923 31.5894C78.971 31.5576 78.9339 31.4408 78.9179 31.324C78.8755 31.101 78.6949 30.4427 78.6206 30.2622C78.5994 30.2038 78.4932 29.8216 78.3817 29.4128C78.2755 29.004 78.164 28.6324 78.1428 28.5899C78.1215 28.5422 78.0844 28.4307 78.0631 28.3298C78.0419 28.2342 77.9941 28.0962 77.9517 28.0166C77.9092 27.9369 77.8773 27.8361 77.8773 27.7936C77.8773 27.7458 77.8455 27.6662 77.803 27.6078C77.7658 27.5494 77.7127 27.4167 77.6915 27.3158C77.6703 27.2149 77.6331 27.1034 77.6119 27.0769C77.5906 27.0451 77.5428 26.9283 77.5057 26.8115C77.4685 26.6947 77.4207 26.5726 77.3995 26.546C77.3783 26.5142 77.3305 26.3708 77.2933 26.2275C77.2561 26.0788 77.1818 25.8771 77.1287 25.7762C77.0809 25.6754 76.996 25.4949 76.9482 25.3781C76.8951 25.2613 76.7995 25.0595 76.7358 24.9268C76.6668 24.7941 76.5606 24.5552 76.4969 24.3959C76.396 24.1411 75.9394 23.1961 75.7271 22.8033C75.6846 22.7289 75.5731 22.5166 75.4829 22.3255C75.2492 21.8583 75.1431 21.6619 74.9307 21.3168C74.8298 21.1575 74.7183 20.9664 74.6812 20.8921C74.644 20.8177 74.5059 20.5842 74.3732 20.3718C74.2405 20.1595 74.0971 19.9206 74.0547 19.8409C74.0122 19.7613 73.9219 19.6233 73.8529 19.5277C73.7892 19.4374 73.7361 19.3472 73.7361 19.3313C73.7361 19.3153 73.6034 19.1189 73.4441 18.9012C73.2848 18.6889 73.1521 18.4925 73.1521 18.4765C73.1521 18.4553 73.0937 18.3651 73.0194 18.2695C72.945 18.1739 72.8866 18.0784 72.8866 18.0571C72.8866 18.0359 72.7114 17.8023 72.4991 17.5316C72.2867 17.2608 72.0743 16.9794 72.0212 16.8945C71.9681 16.8149 71.7876 16.5866 71.6124 16.3795C71.4372 16.1778 71.2939 16.0026 71.2939 15.9867C71.2939 15.9548 71.2461 15.8911 70.6196 15.1638C69.802 14.2082 69.356 13.7304 68.4003 12.7801C67.434 11.8139 66.42 10.8742 66.2607 10.784C66.2129 10.7574 65.9899 10.5769 65.7669 10.3858C65.1351 9.84432 63.9936 8.96836 63.1919 8.41623C63.0061 8.28351 62.7035 8.07116 62.523 7.94905C62.1673 7.69423 61.939 7.54558 61.7372 7.45002C61.6629 7.41286 61.5195 7.32261 61.4186 7.24297C61.2541 7.12087 60.8771 6.89259 60.3409 6.59529C60.2453 6.54751 60.0276 6.4201 59.8524 6.31923C59.6772 6.21305 59.3427 6.03255 59.1091 5.91576C58.8755 5.79896 58.6472 5.68217 58.6047 5.65562C58.5623 5.62908 58.1906 5.44858 57.7818 5.25215C57.373 5.05572 56.9801 4.86991 56.9058 4.83275C56.8315 4.79559 56.428 4.62039 56.0032 4.43989C55.5785 4.25939 55.1856 4.08951 55.1272 4.06296C55.0688 4.03642 54.8776 3.96209 54.7024 3.9037C54.5272 3.83999 54.3361 3.77097 54.2777 3.74443C54.2193 3.71788 54.0176 3.64356 53.8264 3.58516C53.6353 3.52146 53.4335 3.44713 53.3751 3.4259C53.1044 3.31972 52.0107 2.97464 51.5169 2.84192C50.6143 2.59771 49.3454 2.2898 48.6764 2.15708C47.0412 1.82793 47.2005 1.85447 46.6165 1.78546C46.3722 1.7536 46.1546 1.71644 46.1333 1.70582C46.0855 1.67397 44.153 1.47754 43.4999 1.43507C43.2398 1.41914 42.8787 1.3926 42.7088 1.37667C42.3797 1.33951 39.7994 1.31828 39.1463 1.34482ZM42.9902 3.94617C43.6486 5.81489 43.6857 5.89452 43.9247 6.01132C44.0255 6.0591 44.1105 6.11749 44.1105 6.13873C44.1105 6.17058 43.6486 6.15466 43.0115 6.10157C42.8257 6.08564 42.677 6.04848 42.677 6.02193C42.677 5.99539 42.7248 5.97415 42.7779 5.97415C42.969 5.97415 43.0486 5.91045 43.0486 5.76711C43.0486 5.62377 42.8522 4.97078 42.7885 4.90707C42.7726 4.88584 42.454 4.85929 42.0824 4.83806L41.4028 4.8062L41.2169 5.17782C40.9727 5.66093 40.9727 5.78834 41.2169 5.87329C41.493 5.97415 41.4452 6.04848 41.1267 6.00601C40.9727 5.99008 40.7179 5.97415 40.5692 5.97415C40.256 5.97415 40.2029 5.90514 40.4471 5.82551C40.6595 5.74587 40.7763 5.54944 41.6151 3.83468C42.008 3.02773 42.3584 2.36943 42.385 2.36412C42.4168 2.36412 42.6876 3.07551 42.9902 3.94617ZM44.8909 2.65611C45.1936 2.69858 45.4484 2.73574 45.4643 2.73574C45.4803 2.73574 45.4909 2.75698 45.4909 2.78883C45.4909 2.81538 45.4059 2.84192 45.3051 2.84192C45.0874 2.84192 44.9918 2.97464 45.0449 3.19762C45.1299 3.56924 45.6661 5.48043 45.7033 5.54414C45.7457 5.61846 45.8413 5.46981 46.6536 4.05234C47.0731 3.32503 47.0996 3.18169 46.8448 3.06489C46.6961 2.99588 46.6642 2.87377 46.8076 2.91625C46.8554 2.92686 47.1049 2.96933 47.3651 3.00119C47.6199 3.03835 47.827 3.07551 47.827 3.08613C47.827 3.09675 47.7367 3.14453 47.6252 3.19231C47.5084 3.23478 47.3704 3.33565 47.312 3.41528C47.2589 3.49491 46.8341 4.21161 46.3669 5.00263C45.905 5.79896 45.5015 6.45195 45.4697 6.45195C45.4378 6.45195 45.1989 5.68217 44.9387 4.73719C44.6786 3.79752 44.4344 2.96403 44.3972 2.8897C44.36 2.81538 44.2538 2.71982 44.1636 2.68266C43.9512 2.59771 43.9565 2.51277 44.1795 2.54993C44.2698 2.56586 44.5936 2.61364 44.8909 2.65611ZM49.8445 3.54269C50.5878 3.71788 51.2196 3.88246 51.2408 3.9037C51.2886 3.94617 51.1718 4.70003 51.1187 4.70003C51.0975 4.70003 51.0656 4.60447 51.0497 4.48236C51.0338 4.36026 50.97 4.21161 50.9063 4.14259C50.7736 4.00456 50.1312 3.80283 50.0622 3.88246C49.9931 3.95147 49.3666 6.61122 49.3666 6.81296C49.3666 6.95629 49.3985 6.99877 49.5525 7.07309C49.6533 7.12087 49.7383 7.17927 49.7383 7.19519C49.7383 7.22705 49.0322 7.0784 48.4535 6.92444C48.1986 6.86073 48.188 6.76518 48.4375 6.80765C48.7614 6.86073 48.7932 6.79703 49.1755 5.23091C49.3666 4.45051 49.5259 3.7869 49.5259 3.75505C49.5259 3.72319 49.356 3.65949 49.1543 3.61702C48.8198 3.53738 48.7667 3.53738 48.6234 3.61171C48.5384 3.65418 48.4269 3.76036 48.3738 3.85061C48.2729 4.0258 48.1774 4.06296 48.2198 3.91431C48.3313 3.51615 48.4375 3.21354 48.4588 3.21354C48.4747 3.21354 49.0959 3.36219 49.8445 3.54269ZM32.5523 3.61702C32.6053 3.81344 32.6319 3.98333 32.6107 4.00456C32.5894 4.02049 32.5629 4.00456 32.5523 3.9674C32.5363 3.93024 32.4673 3.82937 32.393 3.74443C32.2921 3.61702 32.2178 3.58516 32.0585 3.58516C31.8461 3.58516 30.8905 3.7869 30.8267 3.8453C30.7949 3.87184 31.0657 5.15659 31.1134 5.20437C31.1612 5.25215 32.1222 4.97078 32.2178 4.88584C32.2868 4.82213 32.324 4.72126 32.324 4.58323C32.324 4.22754 32.4089 4.36557 32.5363 4.923C32.6053 5.2256 32.6691 5.50166 32.685 5.53352C32.7328 5.67686 32.5894 5.59722 32.5098 5.44327C32.3824 5.19375 32.2496 5.17251 31.6815 5.29462C31.4055 5.35302 31.1772 5.4061 31.1665 5.41672C31.1241 5.45388 31.4904 6.82357 31.5541 6.87666C31.6125 6.92444 31.7399 6.91382 32.1169 6.82888C32.8124 6.66962 32.9345 6.6006 33.0885 6.27145C33.1575 6.1228 33.2265 5.95823 33.2478 5.90514C33.2637 5.85736 33.2955 5.81489 33.3221 5.81489C33.3539 5.81489 33.2955 6.7174 33.2584 6.75456C33.2159 6.80234 30.5613 7.381 30.5454 7.34915C30.5294 7.32792 30.5719 7.29075 30.6356 7.27483C30.8321 7.21112 30.9435 7.08371 30.9435 6.92444C30.9435 6.77048 30.3967 4.37618 30.3064 4.14259C30.2427 3.97271 30.0888 3.89839 29.887 3.93555C29.7967 3.95678 29.7224 3.95147 29.7224 3.92493C29.7224 3.87715 32.1275 3.28256 32.3505 3.27194C32.4408 3.26663 32.4779 3.32503 32.5523 3.61702ZM53.6512 4.59916C54.1131 4.76904 54.5272 5.20968 54.6706 5.68217C54.7343 5.87859 54.7821 6.13873 54.7821 6.26614C54.7821 6.57936 54.6069 7.12087 54.4051 7.42347C53.8105 8.32598 52.5522 8.49056 51.7399 7.78448C51.4957 7.56681 51.2355 7.04124 51.193 6.69085C51.124 6.14404 51.3682 5.44858 51.777 5.02918C52.2655 4.51952 52.9822 4.35495 53.6512 4.59916ZM27.6306 4.66817C27.381 4.81682 27.2802 4.92831 27.2802 5.0451C27.2802 5.14597 27.896 6.89259 28.1934 7.63583C28.2889 7.88004 28.3845 7.89596 28.8676 7.72608C29.1065 7.64114 29.3879 7.51903 29.4941 7.45533C29.7012 7.32261 29.8764 6.99877 29.8817 6.73332C29.8817 6.64307 29.9029 6.55282 29.9295 6.53689C29.9666 6.51035 30.0728 7.50311 30.0304 7.54027C30.0197 7.54558 29.4463 7.76324 28.7508 8.01807C27.5244 8.46401 27.1634 8.55957 27.5616 8.32067C27.7049 8.24104 27.758 8.17203 27.758 8.07647C27.758 7.9172 26.8607 5.45919 26.728 5.25746C26.6377 5.12473 26.6112 5.11412 26.3882 5.14597C26.2555 5.1619 26.1652 5.1619 26.1865 5.14066C26.2449 5.07696 27.673 4.55138 27.7049 4.57792C27.7208 4.59385 27.689 4.63101 27.6306 4.66817ZM25.6608 5.47512C25.3848 5.68217 25.3582 5.71402 25.3901 5.86798C25.4219 6.03255 26.5528 8.50648 26.6324 8.58612C26.6961 8.64982 26.8448 8.65513 27.0306 8.61266C27.1103 8.59143 27.174 8.59143 27.174 8.61797C27.174 8.68168 25.8414 9.28158 25.7989 9.2338C25.783 9.21256 25.7989 9.18602 25.8414 9.17009C26.0059 9.1117 26.1227 8.9365 26.0962 8.79316C26.0643 8.65513 25.268 6.88197 24.9653 6.28738L24.8273 6.01662L24.5671 6.03786C24.4238 6.05379 24.307 6.04848 24.307 6.03255C24.307 5.98477 25.5865 5.4008 25.6874 5.39549C25.7458 5.39549 25.7405 5.41672 25.6608 5.47512ZM56.4864 5.76711L56.9164 5.97946L56.8845 6.28207C56.8686 6.44664 56.8421 7.1421 56.8208 7.82695L56.7837 9.06922L56.9376 8.95774C57.0226 8.89403 57.5694 8.46401 58.1535 8.00214L59.2153 7.15803L59.6507 7.3757C59.8949 7.49249 60.0913 7.6199 60.0913 7.66237C60.0913 7.71015 60.0648 7.71546 59.9905 7.67299C59.794 7.57212 59.6241 7.60929 59.4861 7.78979C59.3268 8.00214 58.18 10.3062 58.18 10.4124C58.18 10.4548 58.2543 10.561 58.3499 10.646C58.4402 10.7309 58.5092 10.8105 58.4932 10.8265C58.4826 10.8371 58.1694 10.6884 57.7924 10.492C57.4208 10.2956 57.1341 10.1204 57.15 10.0991C57.1659 10.0832 57.235 10.0938 57.304 10.1257C57.5801 10.2531 57.6597 10.1682 58.1375 9.25503C58.8118 7.97029 58.9392 7.71015 58.8543 7.76324C58.8118 7.78448 58.2384 8.23573 57.5747 8.76131C56.9111 9.28689 56.3483 9.72221 56.3218 9.73283C56.2527 9.75938 56.2527 9.44615 56.3271 7.85349C56.3589 7.1421 56.3749 6.53158 56.3642 6.49973C56.343 6.43072 55.1537 8.75069 55.1537 8.86749C55.1537 8.91527 55.2281 9.02144 55.313 9.09577C55.4033 9.1754 55.4723 9.25503 55.4723 9.27627C55.4723 9.32405 54.9838 9.09046 54.5803 8.85687C54.3255 8.70291 54.3202 8.63921 54.5697 8.72946C54.6812 8.76662 54.7715 8.76662 54.8352 8.73477C54.9414 8.67637 56.1997 6.28207 56.2474 6.04317C56.274 5.91576 56.2474 5.85736 56.1041 5.71933C55.8705 5.49105 55.9714 5.50697 56.4864 5.76711ZM23.6168 6.88728C23.7973 6.98284 23.8876 7.07309 23.9831 7.26952C24.0999 7.50842 24.1052 7.54558 24.0468 7.77386C24.0097 7.90658 23.946 8.05523 23.9035 8.10301C23.8292 8.18795 23.8451 8.19326 24.1318 8.18795C24.6786 8.17733 25.0131 8.49056 25.0078 9.02675C25.0025 9.58418 24.7742 9.80716 23.4681 10.5239C22.5602 11.0176 22.3266 11.1078 22.6558 10.8318C22.7461 10.7521 22.8204 10.6406 22.8204 10.5716C22.8204 10.4495 21.5674 8.11363 21.4081 7.93313C21.3073 7.82164 21.1161 7.8004 20.9622 7.88535C20.9091 7.9172 20.8507 7.9172 20.8347 7.89596C20.8029 7.84288 22.3744 6.97753 22.7142 6.86073C23.0593 6.74394 23.346 6.74925 23.6168 6.88728ZM62.0186 8.85687C62.6769 9.15417 63.022 9.70098 63.0273 10.4336C63.0327 10.7787 63.0061 10.8902 62.8628 11.1928C62.6557 11.6387 62.2841 12.0369 61.9018 12.2227C61.6469 12.3501 61.5408 12.3713 61.1266 12.3713C60.5532 12.3713 60.2612 12.2545 59.8737 11.867C58.9233 10.9167 59.5126 9.07984 60.8718 8.73477C61.1957 8.65513 61.6947 8.70822 62.0186 8.85687ZM20.4949 9.01614C20.8613 9.19664 21.2435 9.5948 21.4294 9.99828C21.5515 10.2584 21.5727 10.3699 21.5727 10.8052C21.5727 11.2512 21.5568 11.3467 21.4241 11.6122C21.2595 11.9466 20.9675 12.228 20.5958 12.4085C20.3941 12.5094 20.2613 12.5306 19.8738 12.5306C19.4543 12.5306 19.3588 12.5094 19.1039 12.3766C18.7376 12.1908 18.3553 11.7927 18.1642 11.3998C18.0315 11.1344 18.0155 11.0388 18.0155 10.5929C18.0155 10.1682 18.0368 10.0461 18.1483 9.82308C18.3235 9.46739 18.7217 9.08515 19.0614 8.95243C19.4649 8.79316 20.0914 8.81971 20.4949 9.01614ZM65.0714 11.2034C65.9368 11.9679 66.1439 12.2545 66.1439 12.6899C66.1439 13.2101 65.8041 13.534 65.2891 13.5021L64.9918 13.4809L65.0873 13.6932C65.3369 14.2401 65.098 14.7338 64.5086 14.8931C64.1741 14.9833 63.8131 14.8612 63.3778 14.5108C62.6876 13.9534 61.8859 13.2261 61.9496 13.2048C61.9814 13.1942 62.0504 13.2208 62.1035 13.2685C62.2416 13.396 62.4062 13.3747 62.5814 13.2048C62.7406 13.0615 64.1104 11.4901 64.3281 11.2087C64.4715 11.0176 64.4768 10.853 64.3387 10.7256C64.2325 10.63 64.2007 10.5398 64.275 10.5398C64.2963 10.5398 64.652 10.8424 65.0714 11.2034ZM16.6404 10.853C16.3856 11.1184 16.3431 11.0547 17.766 12.6262C18.1589 13.0562 18.5199 13.4278 18.5677 13.4597C18.6367 13.4915 18.7217 13.4756 18.865 13.4013C18.9712 13.3429 19.0721 13.3057 19.0827 13.3163C19.1198 13.3535 17.9784 14.3622 17.9306 14.3303C17.9093 14.3197 17.9465 14.2454 18.0208 14.1657C18.2491 13.9215 18.2863 13.9799 17.0439 12.5943C16.6776 12.1908 16.375 11.8723 16.3643 11.8829C16.3537 11.8882 16.5608 12.589 16.8209 13.4331C17.0864 14.2772 17.2988 14.978 17.2988 14.9886C17.2988 15.0417 16.9643 14.909 15.6582 14.3409C14.8831 14.0012 14.246 13.7304 14.2406 13.741C14.2194 13.757 14.7503 14.3569 15.5042 15.1691C16.0564 15.7637 16.136 15.8115 16.375 15.6575C16.6617 15.4664 16.5342 15.6416 16.1042 16.0345C15.8547 16.2627 15.637 16.4326 15.6157 16.4114C15.5998 16.3955 15.6317 16.3264 15.6954 16.2574C15.8547 16.0875 15.8387 15.9389 15.6423 15.7053C15.1857 15.1744 14.0867 13.9481 13.9486 13.8154C13.7734 13.6561 13.5611 13.6295 13.3912 13.7516C13.1629 13.9056 13.2319 13.7676 13.4974 13.5234C14.0442 13.019 13.8053 12.9978 15.414 13.6932C16.7944 14.2878 16.8263 14.2985 16.7944 14.1604C16.7785 14.0808 16.5714 13.4172 16.3431 12.6899L15.9237 11.3627L16.3059 11.007C16.513 10.8158 16.7041 10.6672 16.7307 10.6831C16.7572 10.699 16.7148 10.7734 16.6404 10.853ZM67.7791 13.741C68.0764 14.0436 68.3101 14.3038 68.2888 14.325C68.2676 14.3409 68.1826 14.2985 68.0977 14.2294C68.0127 14.1551 67.9066 14.0967 67.8641 14.0967C67.7632 14.0967 67.4606 14.3675 66.4253 15.3921C65.9209 15.8858 65.5599 16.2893 65.5599 16.3424C65.5599 16.4008 65.6076 16.5123 65.6714 16.5972C65.7298 16.6821 65.7616 16.7512 65.7351 16.7512C65.6554 16.7512 64.6361 15.6947 64.6732 15.6575C64.6945 15.6363 64.7635 15.6681 64.8325 15.7319C64.9015 15.7956 65.0077 15.8486 65.0767 15.8486C65.1564 15.8486 65.5174 15.5407 66.2288 14.8559C66.7969 14.3144 67.2854 13.826 67.3172 13.7729C67.3916 13.6295 67.3756 13.5181 67.2535 13.3482C67.0465 13.0509 67.2376 13.1995 67.7791 13.741ZM69.2179 15.2912C69.4834 15.6097 69.7011 15.8911 69.7011 15.9124C69.7011 15.9814 69.5949 15.9601 69.563 15.8805C69.5471 15.8433 69.4515 15.7637 69.356 15.7106C69.1755 15.6151 69.1702 15.6151 69.0003 15.7425C68.7189 15.9495 66.9721 17.4148 66.8925 17.5156C66.7969 17.6324 66.85 17.7439 67.2323 18.2005C67.657 18.7101 67.8481 18.7845 68.4269 18.6889C68.5914 18.6623 68.6498 18.6677 68.6127 18.7048C68.5437 18.7738 67.7367 19.0977 67.6836 19.0764C67.6199 19.0552 65.9315 17.006 65.9315 16.9529C65.9315 16.9317 65.9581 16.9104 65.9846 16.9104C66.0165 16.9104 66.0377 16.9317 66.0377 16.9635C66.0377 16.9901 66.1014 17.0538 66.1757 17.1015C66.2978 17.1865 66.3244 17.1865 66.4784 17.1069C66.5739 17.0644 67.1261 16.6237 67.7101 16.13C68.4587 15.4983 68.7773 15.201 68.7879 15.1107C68.7985 15.0417 68.756 14.9143 68.6923 14.8293C68.6074 14.7126 68.5968 14.6754 68.6552 14.6913C68.6976 14.6966 68.9525 14.9674 69.2179 15.2912ZM13.6088 15.2116C14.0123 15.408 14.4955 15.9124 14.6388 16.2999C14.7981 16.7193 14.7769 17.3988 14.5964 17.7492C14.4371 18.0624 14.092 18.3969 13.7681 18.5562C13.3699 18.7473 12.7169 18.742 12.2922 18.5456C11.894 18.3597 11.4427 17.9244 11.2622 17.5528C11.1347 17.2927 11.1135 17.1918 11.1135 16.7777C11.1135 16.2256 11.2144 15.9495 11.5435 15.5885C11.8993 15.1903 12.2603 15.0523 12.8921 15.0682C13.2425 15.0789 13.4018 15.1107 13.6088 15.2116ZM71.7558 18.5933C72.1646 19.2039 72.515 19.7241 72.5309 19.7613C72.5734 19.825 71.9681 20.3293 71.915 20.2709C71.8938 20.255 71.9469 20.1595 72.0212 20.0586C72.2336 19.7825 72.207 19.6339 71.8248 19.0605C71.639 18.7791 71.4691 18.5402 71.4478 18.5243C71.3947 18.4925 70.2851 19.2251 70.2851 19.2941C70.2851 19.3419 70.678 19.9099 70.8319 20.0798C70.9488 20.2125 71.177 20.2391 71.3469 20.1488C71.4 20.117 71.4584 20.117 71.4744 20.1382C71.5115 20.1966 70.4975 20.8974 70.4338 20.8602C70.4072 20.839 70.4444 20.7647 70.5187 20.685C70.7258 20.4727 70.6992 20.2975 70.386 19.8197C70.2373 19.5914 70.0993 19.4056 70.0833 19.4056C69.9931 19.4056 68.9047 20.1913 68.8728 20.2762C68.8357 20.393 69.3825 21.2212 69.6055 21.3911C69.7064 21.4601 69.8763 21.5079 70.1364 21.5291C70.5612 21.5663 70.5506 21.5769 69.9825 21.7362L69.5949 21.8371L69.4197 21.5928C68.9525 20.9452 68.0499 19.5542 68.0764 19.5277C68.0924 19.5118 68.1667 19.5595 68.2357 19.6339C68.3101 19.7135 68.4162 19.7772 68.4693 19.7772C68.5596 19.7772 69.7595 19.0021 70.7523 18.3067C71.108 18.0571 71.1664 17.9032 71.0018 17.6749C70.9434 17.5846 70.9434 17.4944 71.0018 17.4944C71.0125 17.4944 71.3469 17.9881 71.7558 18.5933ZM10.3914 17.7917C10.6888 17.9669 10.8427 18.1421 10.625 18.0518C10.572 18.0306 10.4392 18.004 10.3277 17.9881C10.1419 17.9616 10.11 17.9775 9.90299 18.1899C9.68531 18.4235 9.50479 18.6942 9.55258 18.7367C9.65876 18.8269 11.8833 20.3293 11.9948 20.393C12.17 20.478 12.3028 20.4355 12.4302 20.2497C12.4727 20.1913 12.5258 20.1648 12.5417 20.1913C12.5735 20.2497 11.7294 21.4973 11.6816 21.4548C11.6657 21.4389 11.6816 21.3646 11.7188 21.3009C11.7559 21.2318 11.7772 21.1097 11.7665 21.0248C11.7506 20.8921 11.5807 20.7594 10.4817 20.0055C9.78618 19.5277 9.21278 19.1401 9.20217 19.1508C9.19686 19.1614 9.1066 19.2994 8.99511 19.4587C8.7615 19.8144 8.74557 20.0373 8.94201 20.2922C9.01634 20.3877 9.0482 20.4674 9.01634 20.4674C8.94201 20.4674 8.37923 20.0427 8.37923 19.9843C8.37923 19.9152 9.98263 17.6006 10.0304 17.6006C10.0516 17.6006 10.2162 17.6855 10.3914 17.7917ZM43.2292 18.2483C43.3937 19.1189 43.399 19.1242 43.6964 19.1879C43.8397 19.2198 43.9724 19.2463 43.999 19.2463C44.0202 19.2463 44.2007 19.0074 44.4078 18.7207C44.6096 18.4288 44.8007 18.1846 44.8272 18.1739C44.8591 18.158 45.1936 18.312 45.5812 18.5137L46.2767 18.8747L46.0537 19.5277L45.8254 20.1754L46.0696 20.393L46.3138 20.6107L46.8713 20.3559C47.1792 20.2178 47.4659 20.1011 47.5137 20.1011C47.588 20.0957 48.411 21.3062 48.411 21.423C48.411 21.4495 48.3791 21.492 48.3367 21.5132C48.2517 21.5663 47.6358 22.0972 47.5031 22.2405C47.4128 22.3361 47.4128 22.352 47.5137 22.6121C47.5774 22.7608 47.6305 22.8882 47.6358 22.8988C47.6464 22.9041 47.9438 22.9519 48.2942 22.9997L48.9366 23.0899L48.9631 23.3023C48.9791 23.4244 49.0003 23.7748 49.0109 24.088L49.0375 24.6561L48.8676 24.7092C48.7773 24.741 48.4853 24.8047 48.2145 24.8525L47.7261 24.9374L47.673 25.2029C47.6411 25.3462 47.6146 25.5055 47.6146 25.5533C47.6199 25.6063 47.8376 25.7975 48.1402 26.0151L48.6658 26.3868L48.3579 26.9973C47.896 27.9104 48.0022 27.8467 47.2801 27.6078L46.6695 27.4061L46.4519 27.6343C46.3298 27.7617 46.2342 27.8839 46.2342 27.9051C46.2342 27.9263 46.351 28.2077 46.4943 28.5315L46.7545 29.1208L46.505 29.2748C46.3722 29.3597 46.0696 29.5508 45.836 29.7048L45.4113 29.9755L44.9547 29.4818L44.4981 28.9934L44.2007 29.0837C43.8663 29.1898 43.8716 29.1739 43.7919 29.949C43.7601 30.2357 43.7282 30.4746 43.7176 30.4905C43.6911 30.5171 42.1832 30.5967 42.1354 30.5701C42.1195 30.5595 42.0505 30.2675 41.9868 29.9172C41.87 29.3119 41.8594 29.2748 41.7266 29.2482C41.6523 29.2323 41.5036 29.1951 41.4028 29.1686C41.3019 29.1421 41.2063 29.1421 41.1851 29.1633C41.132 29.227 40.5798 29.9862 40.4896 30.1189C40.4099 30.2357 40.4259 30.2782 40.909 31.1435C41.1851 31.6372 41.4028 32.0726 41.3868 32.1097C41.3709 32.1469 41.1267 32.3592 40.84 32.5769C39.6189 33.5006 39.4277 33.6546 39.4012 33.7289C39.3853 33.7714 39.4065 33.9253 39.4543 34.0793C39.5021 34.228 39.5552 34.4509 39.5764 34.573C39.5923 34.7004 39.6401 34.8332 39.672 34.8809C39.7038 34.9234 39.9321 34.9924 40.2347 35.0402C40.5108 35.088 40.9409 35.1623 41.1904 35.2048C41.4399 35.2473 41.6842 35.2897 41.7426 35.295C41.8487 35.3057 41.8912 35.2366 42.4168 34.228C42.5708 33.9307 42.7248 33.6864 42.7672 33.6864C42.8044 33.6864 43.1177 33.782 43.4575 33.9041C43.8026 34.0209 44.3069 34.1961 44.5777 34.2863L45.0715 34.4456L45.4113 34.0793C45.5971 33.8776 45.751 33.6864 45.7564 33.6546C45.7564 33.6068 45.4059 32.7999 45.0662 32.0672C45.0078 31.9504 44.9281 31.7593 44.8803 31.6425C44.7741 31.3771 44.6892 31.4514 46.1546 30.5277C46.3298 30.4162 46.5315 30.2888 46.6058 30.2357C46.6802 30.1879 46.8448 30.0923 46.9669 30.018L47.2005 29.8906L47.3332 30.0499C47.4075 30.1401 47.5668 30.3153 47.6889 30.448C47.811 30.5808 48.1243 30.9311 48.3791 31.2337C48.6977 31.6054 48.8676 31.7646 48.9047 31.7328C48.9631 31.6903 49.287 31.5735 49.6587 31.4673C49.8179 31.4196 49.8179 31.4196 49.8816 30.8409C50.0675 29.2589 50.0993 29.0093 50.1259 28.9828C50.1683 28.9403 52.3133 28.8448 52.6743 28.866L52.9451 28.8819L53.0141 29.1739C53.0513 29.3332 53.1309 29.742 53.1893 30.0764C53.2477 30.4109 53.3273 30.8143 53.3645 30.9736L53.4282 31.2603L53.9061 31.3559C54.1715 31.4089 54.4104 31.4567 54.437 31.4567C54.4688 31.4567 54.5644 31.3559 54.6494 31.2337C54.7396 31.1116 54.9573 30.8143 55.1431 30.5648C55.3236 30.3206 55.4723 30.1083 55.4723 30.0923C55.4723 30.0711 55.5095 30.0233 55.5519 29.9755C55.5944 29.9278 55.6953 29.811 55.7802 29.7101L55.9342 29.5296L56.4333 29.7791C58.0685 30.6073 58.4189 30.809 58.403 30.9046C58.3818 31.0108 58.0897 31.8867 57.8137 32.6778L57.6544 33.129L57.8243 33.2617C57.9198 33.3308 58.0526 33.4529 58.1269 33.5272C58.4561 33.851 58.4614 33.8563 58.6897 33.7608C58.8702 33.6864 59.433 33.4422 59.9055 33.2352C60.6966 32.8848 60.6647 32.8954 60.7338 32.9804C60.7709 33.0228 60.8771 33.1768 60.9621 33.3148C61.0523 33.4582 61.2434 33.7608 61.3921 33.9891C61.5354 34.2173 61.7797 34.5996 61.9336 34.8438L62.215 35.2844L61.939 35.5392C61.785 35.6773 61.562 35.8737 61.4452 35.9746C61.3284 36.0754 61.2063 36.1763 61.1744 36.2082C61.1426 36.2347 60.9567 36.3993 60.7656 36.5692L60.4152 36.8771L60.4842 37.047C60.5267 37.1425 60.601 37.3708 60.6594 37.5619L60.7603 37.907L61.1319 37.9707C61.3337 38.0079 61.8487 38.0716 62.2841 38.1087C62.7141 38.1512 63.0751 38.1937 63.0911 38.2096C63.1335 38.2468 63.2397 41.0127 63.2026 41.0498C63.1866 41.0658 62.9371 41.1242 62.6557 41.1719C62.369 41.225 61.8699 41.3206 61.5461 41.3896L60.9567 41.5117L60.8718 41.8568C60.824 42.0479 60.7709 42.3027 60.755 42.4248C60.7231 42.6319 60.7338 42.6478 60.9514 42.8124C61.9761 43.5822 62.2416 43.7733 62.2628 43.7733C62.2841 43.7733 62.3584 43.8317 62.438 43.906L62.5867 44.0334L62.3 44.5856C61.6947 45.7535 61.3018 46.5074 61.2859 46.5233C61.2647 46.5445 60.1126 46.1729 59.4277 45.9234L59.056 45.7907L58.9021 45.9659C58.8171 46.0561 58.6419 46.2472 58.5092 46.3853L58.2703 46.6348L58.3924 46.9161C58.4561 47.0701 58.557 47.3037 58.6154 47.4364C58.7109 47.6488 58.8808 48.0469 59.1197 48.6044C59.21 48.8114 59.21 48.8114 58.7269 49.1034C58.5888 49.1883 58.2703 49.3901 58.0207 49.5493C57.7712 49.7086 57.4739 49.8997 57.3571 49.9741C57.2403 50.0484 57.081 50.1492 57.0013 50.2076C56.9217 50.2607 56.8368 50.3032 56.8102 50.3032C56.7837 50.3032 56.6456 50.1652 56.5076 50.0006C56.3695 49.8307 56.0935 49.5122 55.897 49.2945C55.7006 49.0769 55.4723 48.8167 55.3873 48.7265L55.2334 48.5513L54.7024 48.7265L54.1715 48.9017L54.1131 49.2467C54.076 49.4325 54.0494 49.7139 54.0441 49.8679C54.0388 50.1174 53.991 50.5209 53.9007 51.0783L53.8742 51.2482L52.6425 51.2907C51.9682 51.3172 51.3311 51.3384 51.2302 51.3384H51.0444L50.9488 50.9137C50.8957 50.6801 50.8161 50.2607 50.7736 49.9847C50.7258 49.7086 50.6621 49.3795 50.6356 49.2627C50.5718 49.0238 50.609 49.0397 49.7011 48.8326L49.4781 48.7796L49.2498 49.0981C49.1224 49.2733 48.9578 49.4963 48.8782 49.5865C48.7932 49.6821 48.7295 49.7776 48.7295 49.7936C48.7295 49.8148 48.6234 49.9687 48.4906 50.1333C48.3632 50.2979 48.2092 50.4943 48.1561 50.5633L48.0606 50.6907L47.158 50.2236C46.2607 49.7564 45.5812 49.4007 45.5599 49.3795C45.5387 49.3635 45.7245 48.7955 46.0377 47.9036L46.3298 47.0701L46.0696 46.8684C45.9263 46.7622 45.8094 46.656 45.8094 46.6348C45.8094 46.6135 45.7351 46.5445 45.6502 46.4808C45.4697 46.3534 45.4219 46.364 44.8272 46.6401C44.7104 46.6932 44.4131 46.8259 44.1636 46.9374C43.914 47.0436 43.622 47.1763 43.5105 47.2294L43.3088 47.3249L43.0593 46.9374C42.9212 46.725 42.677 46.3428 42.5177 46.088C42.3584 45.8384 42.1195 45.4668 41.9974 45.2704L41.7638 44.92L41.9709 44.7289C42.0824 44.628 42.3266 44.4104 42.5124 44.2511C42.7035 44.0918 42.8947 43.9219 42.9371 43.8742C42.9849 43.8317 43.1601 43.683 43.3247 43.5397L43.6273 43.2902L43.5265 43.0619C43.4734 42.9345 43.4044 42.7009 43.3672 42.5363L43.3088 42.2337H43.0433C42.9 42.2337 42.5496 42.2019 42.2629 42.1594C41.9815 42.1169 41.5992 42.0745 41.4134 42.0638L41.0789 42.0479L40.3675 43.2159C39.9799 43.8582 39.6348 44.3891 39.6082 44.3997C39.5605 44.4157 38.8596 44.1396 38.403 43.9326C38.3446 43.906 38.0633 43.7892 37.7712 43.6724L37.2456 43.4601L36.7784 43.8954C36.4864 44.1608 36.3112 44.3626 36.3271 44.4104C36.3537 44.5006 36.497 44.8988 36.9058 46.003L37.1925 46.7728L36.9483 46.9108C35.8334 47.5373 34.437 48.2964 34.4264 48.2805C34.4158 48.2699 34.0919 47.8399 33.7044 47.3302C32.7646 46.088 32.892 46.1994 32.5098 46.3162C32.3293 46.3746 32.0744 46.433 31.9311 46.4543C31.7452 46.4861 31.6656 46.5233 31.6284 46.6082C31.6019 46.6666 31.4851 47.2453 31.3789 47.8877L31.1825 49.0556L30.4657 49.0715C30.0728 49.0822 29.3614 49.0715 28.8942 49.0556L28.0341 49.0185L27.981 48.6362C27.9491 48.4292 27.8695 47.8505 27.8058 47.3568C27.7421 46.8577 27.6677 46.4383 27.6306 46.4171C27.5987 46.3959 27.4448 46.3534 27.2908 46.3162C27.1315 46.2844 26.9244 46.226 26.8236 46.1835C26.728 46.141 26.6006 46.1092 26.5475 46.1092C26.4891 46.1092 26.144 46.4755 25.6343 47.0913C25.183 47.6328 24.7954 48.0735 24.7689 48.0735C24.7423 48.0735 24.599 47.9938 24.4503 47.8983C24.2964 47.7974 23.7442 47.463 23.2186 47.1444C22.693 46.8312 22.2311 46.5445 22.1939 46.5074C22.1196 46.4437 22.1196 46.4437 22.7301 44.9678C22.8629 44.6439 23.0062 44.2989 23.0487 44.198L23.1283 44.0122L22.7036 43.5716C22.4169 43.269 22.247 43.1362 22.1886 43.1522C22.1408 43.1681 21.578 43.3751 20.9409 43.6087C20.2985 43.8423 19.7676 44.0334 19.7623 44.0228C19.757 44.0175 19.603 43.7361 19.4225 43.4017C19.2367 43.0672 18.9393 42.5257 18.7588 42.2072C18.5783 41.8833 18.3925 41.5489 18.3447 41.4586L18.2597 41.2887L18.6951 40.9543C19.8419 40.073 20.187 39.8129 20.2879 39.7332L20.3941 39.6483L20.2773 39.1493C20.2082 38.8732 20.1445 38.6131 20.1339 38.5653C20.118 38.5122 20.0383 38.4644 19.9375 38.4485C19.8419 38.4379 19.3375 38.3476 18.8119 38.2574C18.2863 38.1618 17.7607 38.0716 17.6492 38.0556L17.4421 38.0238L17.474 36.4842C17.4952 35.4171 17.5271 34.934 17.5695 34.9075C17.6333 34.865 17.6333 34.865 19.1464 34.6739C19.7092 34.6049 20.1817 34.5359 20.1976 34.5252C20.2189 34.4987 20.5374 33.4741 20.5374 33.4157C20.5374 33.3998 20.0702 32.9963 19.5021 32.5185C18.9287 32.0407 18.4721 31.6372 18.4774 31.616C18.488 31.5948 18.8385 31.0002 19.2632 30.2994C19.81 29.3916 20.0596 29.0146 20.1286 29.0146C20.2029 29.0146 21.1267 29.381 21.732 29.6517C21.7904 29.6783 22.0081 29.7685 22.2098 29.8534L22.5815 30.0074L23.0221 29.6039L23.4575 29.2005L23.1602 28.4041C22.9956 27.9635 22.7832 27.3848 22.6877 27.1141L22.5125 26.6257L22.8629 26.4292C23.0593 26.323 23.6646 25.9886 24.2061 25.686C24.7477 25.3887 25.2149 25.1392 25.2414 25.1392C25.268 25.1392 25.4803 25.394 25.7139 25.7019C26.3988 26.6097 26.659 26.9495 26.8023 27.1141L26.9351 27.268L27.4872 27.1353C27.7952 27.0557 28.0447 26.992 28.0553 26.9813C28.0606 26.976 28.1403 26.5301 28.2358 25.9886C28.3261 25.4471 28.4323 24.8525 28.4694 24.6614L28.5385 24.3163L30.0728 24.3375C30.917 24.3481 31.6231 24.3641 31.6391 24.3747C31.6762 24.3959 31.6922 24.4968 31.878 25.9355C31.947 26.5035 32.016 26.9973 32.0266 27.0291C32.0426 27.061 32.1169 27.1034 32.2018 27.1141C32.2815 27.13 32.5363 27.1937 32.7646 27.2574L33.1787 27.3689L33.269 27.2627C34.5485 25.7178 34.8565 25.3568 34.9096 25.3568C34.9467 25.3515 35.2547 25.5214 35.5998 25.7285C36.8793 26.4982 37.097 26.6257 37.1448 26.6257C37.1713 26.6257 37.3465 26.4876 37.527 26.3177L37.8562 26.0151L37.7659 25.7072C37.681 25.4099 37.6757 25.4046 37.4845 25.4046C37.2191 25.4046 36.3377 25.2931 36.3006 25.2507C36.2793 25.2347 36.2528 24.8684 36.2369 24.4437L36.205 23.6739L36.9005 23.5306C37.2828 23.4563 37.6013 23.3872 37.6067 23.3766C37.6173 23.366 37.6385 23.228 37.6597 23.0634L37.6969 22.7714L37.1607 22.3786C36.8634 22.1662 36.6244 21.9645 36.6244 21.9326C36.6244 21.8848 37.0014 21.131 37.2085 20.7594C37.3253 20.5523 37.4899 20.5629 38.1376 20.8018C38.403 20.9027 38.642 20.9717 38.6685 20.9611C38.7004 20.9452 38.8012 20.8443 38.8968 20.7275L39.0773 20.5258L38.8065 19.9259C38.6579 19.5967 38.5358 19.2994 38.5358 19.2729C38.5358 19.241 38.6632 19.1348 38.8172 19.034C39.3003 18.7154 39.8206 18.3969 39.8525 18.4022C39.8737 18.4022 40.0914 18.6305 40.3356 18.9066C40.8188 19.4534 40.8081 19.4481 41.2169 19.2729C41.3815 19.2092 41.3868 19.1985 41.4187 18.7579C41.4399 18.5137 41.4718 18.2005 41.4877 18.0678L41.5249 17.8182L42.0346 17.797C42.316 17.7917 42.677 17.7758 42.8416 17.7705L43.1389 17.7598L43.2292 18.2483ZM8.05006 20.7487C8.04475 20.839 8.08191 20.9929 8.1297 21.0779C8.17217 21.1681 8.68186 21.8105 9.25526 22.5113C10.2906 23.7748 10.3808 23.8969 10.3277 23.95C10.3171 23.9659 9.48356 23.9022 8.48011 23.812C6.58471 23.6421 6.43074 23.6421 6.31393 23.8544C6.2927 23.8969 6.24491 23.9234 6.21306 23.9128C6.1812 23.9022 6.31393 23.6049 6.51038 23.2439C6.70682 22.8882 6.88202 22.6121 6.89795 22.6228C6.91919 22.6334 6.9245 22.7396 6.90857 22.851C6.88202 23.0262 6.89795 23.0687 6.99352 23.1165C7.11032 23.1802 9.26057 23.4032 9.50479 23.3766C9.64283 23.3607 9.61629 23.3235 8.95794 22.5113C8.17217 21.5504 7.9598 21.3168 7.86954 21.3168C7.83769 21.3168 7.74743 21.3699 7.66779 21.4283C7.58815 21.492 7.51382 21.5291 7.4979 21.5132C7.46073 21.476 7.95449 20.5735 8.01289 20.5735C8.03413 20.5735 8.05537 20.6532 8.05006 20.7487ZM74.1821 22.6546C74.7024 23.7482 74.7449 24.1092 74.421 24.5233C74.1768 24.8366 73.6034 24.9693 73.2636 24.7941C73.03 24.6773 72.7433 24.3057 72.6424 24.0031C72.5946 23.8544 72.5415 23.7164 72.5309 23.6898C72.5203 23.6686 72.2283 23.796 71.8779 23.9712C71.2195 24.311 71.1452 24.3853 71.2461 24.6454C71.2885 24.7675 71.2726 24.8737 71.2195 24.8153C71.2089 24.8047 71.0496 24.4968 70.8744 24.1358C70.5452 23.4775 70.4922 23.2704 70.7417 23.589C70.8266 23.6952 70.9222 23.7589 71.0072 23.7589C71.1877 23.7589 73.6565 22.5166 73.752 22.3732C73.8104 22.2883 73.8211 22.2246 73.7839 22.129C73.7255 21.9698 73.7255 21.9008 73.7786 21.9008C73.8051 21.9008 73.9856 22.2405 74.1821 22.6546ZM9.41985 25.4949C9.31897 25.7231 9.18624 26.0257 9.11722 26.1744L8.99511 26.4398L8.97387 26.2116C8.95263 25.9302 8.85707 25.8824 8.3049 25.8824H7.92264L7.64125 26.5301L7.36517 27.1831L7.70496 27.5122C7.89609 27.698 8.07661 27.8467 8.10846 27.8467C8.14563 27.8467 8.24119 27.7671 8.33145 27.6768C8.53851 27.4485 8.52258 27.56 8.27836 28.1068C8.08191 28.5422 7.91202 28.7545 7.98104 28.4678C8.00228 28.3882 7.98104 28.2714 7.93326 28.1758C7.89078 28.0909 7.30676 27.4379 6.6378 26.7265C5.96883 26.0151 5.4326 25.4099 5.44322 25.3834C5.45915 25.3621 6.31924 25.3462 7.34924 25.3568L9.2234 25.3781L9.37206 25.2294C9.4517 25.1498 9.53665 25.0861 9.55789 25.0861C9.57912 25.0861 9.51541 25.2719 9.41985 25.4949ZM71.9044 25.7975C72.0531 25.9567 72.1964 25.9727 74.2246 26.0364C75.0581 26.0629 75.7696 26.1001 75.8014 26.116C75.8333 26.1372 75.4882 26.5089 74.9944 26.9813C73.1786 28.7386 73.1521 28.7651 73.1521 29.0093C73.1521 29.1314 73.1309 29.227 73.1096 29.227C73.0565 29.227 72.5575 27.9476 72.5946 27.9104C72.6052 27.8945 72.6689 27.9476 72.7327 28.0219C72.7911 28.1015 72.8866 28.1652 72.9397 28.1652C72.9981 28.1652 73.1946 28.0272 73.3751 27.852L73.7043 27.5441L73.529 27.0716C73.4282 26.8115 73.3114 26.5142 73.2636 26.4133L73.1786 26.2275L72.7698 26.2116C72.2283 26.1903 72.1221 26.2487 72.1593 26.5248C72.1752 26.6363 72.1646 26.7318 72.1433 26.7318C72.1009 26.7318 71.7186 25.8028 71.7186 25.7072C71.7186 25.6382 71.7823 25.6701 71.9044 25.7975ZM76.8633 29.4394C77.1606 30.6179 77.1446 30.9152 76.7836 31.255C76.412 31.6001 75.9288 31.5523 75.5306 31.1329L75.2811 30.8674L74.7767 31.4886C74.2033 32.1947 74.1078 32.3645 74.1078 32.6831C74.1078 32.8264 74.0865 32.8901 74.06 32.8636C73.9803 32.7786 73.7892 31.9717 73.837 31.908C73.8582 31.8814 74.1555 31.5151 74.4953 31.101C75.09 30.3684 75.1059 30.3366 75.0581 30.172C75.0316 30.0764 75.0103 29.9915 75.0103 29.9862C75.0103 29.9543 73.7945 30.31 73.6989 30.3737C73.5981 30.4374 73.5768 30.5011 73.5768 30.6976C73.5768 30.8356 73.5556 30.9258 73.5344 30.894C73.4653 30.825 73.1362 29.5084 73.1627 29.434C73.1733 29.3969 73.2317 29.4606 73.2901 29.5721C73.3538 29.7101 73.4335 29.7897 73.5078 29.8004C73.6618 29.8216 76.2686 29.1367 76.4332 29.0359C76.5288 28.9722 76.55 28.9085 76.55 28.712C76.55 28.5687 76.5712 28.4838 76.5978 28.5103C76.619 28.5422 76.7411 28.9562 76.8633 29.4394ZM77.7924 33.5325C77.9304 34.3235 78.0366 34.9818 78.0207 34.9924C77.9888 35.0243 77.4101 35.1676 77.3092 35.1729C77.1818 35.1729 77.2402 35.0774 77.3995 35.0137C77.6437 34.9128 77.734 34.6951 77.6915 34.3023C77.6756 34.1218 77.6384 33.9466 77.6172 33.9094C77.5853 33.8563 77.2508 33.8988 76.104 34.1058C74.4847 34.3925 74.3998 34.4244 74.4369 34.7323C74.4582 34.9287 74.3891 34.9712 74.3467 34.7854C74.3201 34.6686 74.1078 33.4688 74.1078 33.4369C74.1078 33.4263 74.129 33.421 74.1502 33.421C74.1715 33.421 74.2246 33.5059 74.2617 33.6068C74.3042 33.7236 74.3732 33.8032 74.4475 33.8245C74.5803 33.8563 77.3995 33.3785 77.4738 33.3095C77.5004 33.2883 77.4897 33.1184 77.4526 32.922C77.3729 32.5079 77.1924 32.3061 76.8898 32.3061C76.5925 32.3061 76.6827 32.2106 77.0172 32.1734C77.1818 32.1522 77.3464 32.1309 77.3729 32.1203C77.4048 32.1097 77.4526 32.0991 77.4844 32.0991C77.5163 32.0938 77.6437 32.6937 77.7924 33.5325ZM3.59029 33.9253C4.09998 34.0156 4.30704 34.1112 3.98848 34.1112C3.29828 34.1112 2.71957 34.8119 2.98503 35.3216C3.15493 35.6507 3.44163 35.7357 3.73364 35.5446C3.8239 35.4915 4.1106 35.1835 4.37075 34.8703C4.64152 34.5465 4.94415 34.2492 5.06095 34.1802C5.62904 33.8616 6.31924 34.1908 6.46259 34.8544C6.53161 35.1835 6.47852 35.4755 6.25553 35.9162C6.06971 36.2825 6.0644 36.3303 6.18651 36.4258C6.2396 36.463 6.26615 36.5055 6.25022 36.5267C6.21837 36.5532 5.61311 36.463 5.15652 36.3621C4.94946 36.3196 5.02379 36.2347 5.2627 36.2347C5.82017 36.2294 6.20775 35.8472 6.24491 35.2473C6.26615 34.934 6.25553 34.9022 6.10687 34.7535C5.74054 34.3872 5.491 34.4828 4.8008 35.2685C4.19023 35.964 4.00441 36.0967 3.62745 36.0967C3.28766 36.0967 3.05405 35.9693 2.86823 35.6932C2.74612 35.5074 2.72488 35.4171 2.72488 35.1251C2.72488 34.8279 2.75143 34.7164 2.9054 34.4191C3.0806 34.0793 3.08591 34.0581 3.00096 33.9625C2.89478 33.8457 2.88416 33.7714 2.97972 33.8086C3.01158 33.8192 3.28766 33.8723 3.59029 33.9253ZM77.58 35.9215C78.1693 36.0861 78.456 36.6647 78.2808 37.3443C78.1959 37.684 78.2118 37.8274 78.3392 37.8274C78.3817 37.8274 78.4082 37.8592 78.3976 37.8911C78.3711 37.9707 77.1871 38.0981 77.1871 38.0238C77.1871 38.0026 77.2296 37.9707 77.2827 37.9495C77.5853 37.8486 77.8455 37.684 77.9357 37.5407C78.2012 37.1107 78.1746 36.6806 77.872 36.4258C77.4897 36.102 77.1977 36.3143 76.7889 37.2222C76.4385 38.0079 76.3005 38.2043 76.0191 38.3476C75.5572 38.5865 75.0156 38.4007 74.7449 37.9176C74.6015 37.6681 74.575 37.2222 74.6599 36.6435C74.7024 36.3515 74.7024 36.3356 74.5909 36.3037C74.3785 36.2506 74.4794 36.1975 74.867 36.1604C75.074 36.1391 75.3501 36.1126 75.4775 36.0967C75.5997 36.0754 75.7005 36.0861 75.7005 36.1073C75.7005 36.1338 75.5625 36.2188 75.3926 36.2984C75.1962 36.3887 75.0475 36.5108 74.9625 36.6276C74.6015 37.1691 74.8564 37.9866 75.382 37.9866C75.7111 37.9866 75.8757 37.8008 76.258 37.0098C76.6615 36.1657 76.8686 35.948 77.3464 35.8684C77.3623 35.8631 77.4685 35.8896 77.58 35.9215ZM3.33544 36.9726C3.33544 36.9992 3.25581 37.0363 3.16024 37.0523C2.86823 37.1054 2.7355 37.2965 2.68772 37.7318C2.66648 37.9442 2.66117 38.1247 2.6771 38.1406C2.71957 38.1831 5.62904 38.3158 5.76177 38.2786C5.84672 38.2574 5.89981 38.1831 5.9476 38.0238L6.01662 37.8008L6.03254 38.0928C6.05909 38.5016 5.99007 39.3669 5.93167 39.3669C5.90512 39.3669 5.88389 39.2873 5.88389 39.1864C5.88389 38.8254 5.87327 38.8254 3.87168 38.7299C3.21864 38.698 2.67179 38.6874 2.65586 38.7033C2.63993 38.7139 2.62931 38.9051 2.62401 39.1227C2.6187 39.5634 2.68772 39.6908 2.99565 39.8023C3.25581 39.8978 3.21864 39.9721 2.93194 39.9297C2.7939 39.9137 2.61339 39.8978 2.52313 39.8978H2.36385L2.40102 38.9528C2.41694 38.4379 2.4488 37.769 2.47004 37.4664L2.50189 36.9249H2.91601C3.14962 36.9249 3.33544 36.9461 3.33544 36.9726ZM5.95821 40.142C5.97414 40.2801 5.99007 40.4924 5.99007 40.6198V40.8481L5.19368 41.4958C4.42384 42.1169 4.39729 42.1488 4.39729 42.3399V42.5363L4.81142 42.5151C5.8361 42.4673 5.9476 42.4248 5.9476 42.1116C5.9476 41.8143 6.03254 41.878 6.0644 42.1913C6.1228 42.7646 6.13873 43.4548 6.10156 43.4548C6.07502 43.4548 6.04316 43.3857 6.02723 43.3008C5.98476 43.0991 5.85734 42.977 5.67682 42.977C5.59719 42.977 5.09281 42.9982 4.55126 43.0301C2.64524 43.1309 2.64524 43.1309 2.64524 43.4866C2.64524 43.7945 2.54968 43.6884 2.51251 43.3327C2.49127 43.1522 2.47535 42.669 2.47004 42.2603C2.45942 41.5542 2.46473 41.5064 2.59215 41.2834C2.77266 40.9596 2.95318 40.8375 3.29297 40.8163C3.69116 40.7897 3.95663 40.9437 4.13183 41.3153C4.20616 41.4692 4.29111 41.5807 4.32827 41.5701C4.43446 41.533 5.491 40.6517 5.63966 40.4765C5.71399 40.3862 5.79363 40.2217 5.80956 40.1049C5.85734 39.8288 5.91574 39.8447 5.95821 40.142ZM6.17058 43.7839C6.18651 43.8795 6.2396 44.1715 6.28208 44.4369C6.32455 44.697 6.36172 44.9466 6.36172 44.9784C6.36172 45.1005 6.28208 45.0474 6.21837 44.8882C6.17589 44.7767 6.1228 44.7289 6.03785 44.7289C5.86796 44.7289 5.19368 45.1483 5.19368 45.2545C5.19368 45.3447 5.33703 46.2738 5.37951 46.4596C5.40074 46.5498 5.48038 46.5923 5.74584 46.6613C6.34579 46.81 6.4679 46.7728 6.4679 46.449C6.4679 46.3799 6.49445 46.3216 6.521 46.3216C6.55285 46.3216 6.57409 46.3269 6.57409 46.3322C6.57409 46.3428 6.61125 46.5498 6.65373 46.7993C6.74929 47.3302 6.74929 47.4364 6.68027 47.4364C6.65373 47.4364 6.62718 47.4046 6.62718 47.3674C6.62718 47.1604 6.37234 47.0595 4.86982 46.6719C4.04158 46.4596 3.23457 46.2525 3.0806 46.2154C2.91601 46.1782 2.80983 46.1251 2.82045 46.088C2.83107 46.0561 3.4841 45.6314 4.26987 45.1483C5.87858 44.1555 6.04316 44.0281 6.04316 43.7786C6.04316 43.5609 6.13873 43.5662 6.17058 43.7839ZM74.8776 44.5112C74.8935 44.5962 74.9625 44.713 75.0263 44.7714C75.09 44.8298 75.8014 45.2757 76.6031 45.7641C78.1428 46.6985 78.18 46.725 78.1269 46.7781C78.1109 46.7993 77.3199 47.017 76.3801 47.2612C75.4351 47.5054 74.6121 47.7443 74.5431 47.7868C74.4741 47.8293 74.3945 47.9248 74.3626 47.9992C74.283 48.1743 74.198 48.1637 74.2352 47.9779C74.2511 47.8983 74.2883 47.6435 74.3201 47.4099C74.3945 46.8471 74.421 46.7463 74.4794 46.7463C74.5059 46.7463 74.5325 46.8259 74.5431 46.9161C74.559 47.0648 74.5803 47.0966 74.713 47.1073C74.7926 47.1179 75.0263 47.086 75.228 47.0382C75.52 46.9639 75.5997 46.9268 75.6209 46.8312C75.6634 46.6242 75.8067 45.5624 75.7961 45.5465C75.7111 45.4668 75.0156 45.1005 74.9413 45.1005C74.8829 45.1005 74.8139 45.1695 74.7661 45.2863C74.6918 45.4721 74.559 45.5518 74.6068 45.3766C74.6174 45.3288 74.6599 45.0793 74.6918 44.8191C74.7555 44.3467 74.8192 44.2405 74.8776 44.5112ZM4.86982 47.8346C5.2043 48.0045 5.45915 48.5088 5.45915 48.9866C5.45915 49.2308 5.44322 49.2308 6.19713 49.0503C6.85548 48.8964 6.97228 48.8167 6.93512 48.5247C6.89795 48.185 7.01476 48.3602 7.11563 48.7955C7.17403 49.0238 7.24836 49.3529 7.29084 49.5175C7.37047 49.8626 7.328 49.9157 7.19527 49.6396C7.11032 49.4591 7.04661 49.4325 6.813 49.4485C6.58471 49.4697 4.20085 50.0537 4.06812 50.128C3.93539 50.1917 3.91946 50.2289 3.91946 50.4465C3.91946 50.5952 3.89823 50.6748 3.87168 50.643C3.81859 50.5846 3.51596 49.3264 3.46818 48.9441C3.40447 48.461 3.62745 47.9885 3.9991 47.8293C4.21147 47.7337 4.68399 47.739 4.86982 47.8346ZM77.8136 48.5353C77.7977 48.5884 77.718 48.9123 77.6384 49.252C77.4844 49.8732 77.3995 50.0378 77.3995 49.7033C77.3995 49.4803 77.3199 49.4007 77.0916 49.4007C76.9429 49.4007 74.7767 49.7405 74.6121 49.7936C74.5644 49.8042 75.812 50.7545 76.4544 51.1951C76.7624 51.4074 76.8367 51.4074 76.9801 51.2057C77.0438 51.1208 77.1181 51.0624 77.1393 51.073C77.1871 51.1048 76.911 52.1613 76.8579 52.1613C76.8314 52.1613 76.8155 52.1082 76.8155 52.0392C76.8155 51.9755 76.7677 51.8534 76.7146 51.7738C76.6615 51.6888 75.9872 51.1579 75.2174 50.5846C74.0334 49.7086 73.6671 49.4007 73.8051 49.4007C74.0281 49.4007 77.4579 48.7902 77.5428 48.7371C77.6066 48.6946 77.6703 48.6097 77.6915 48.5513C77.734 48.4239 77.8455 48.4079 77.8136 48.5353ZM8.4164 52.9152C8.68186 53.6266 8.88361 54.2265 8.87299 54.253C8.85707 54.2795 8.80397 54.2318 8.7615 54.1468C8.66593 53.961 8.60222 53.9132 8.44825 53.9132C8.26774 53.9132 5.74054 54.8741 5.61311 54.9909C5.50693 55.0918 5.50162 55.1767 5.59719 55.421C5.61311 55.4687 5.6078 55.5059 5.57595 55.5059C5.52817 55.5059 4.60436 53.1275 4.58843 52.9629C4.58312 52.8939 5.24677 52.5701 5.29987 52.6179C5.31049 52.6338 5.23616 52.724 5.12466 52.8249C4.98131 52.9576 4.92822 53.0479 4.92822 53.1647C4.92822 53.3293 5.26801 54.3273 5.35296 54.4123C5.39543 54.4547 6.60594 54.0406 6.65373 53.9663C6.6962 53.9026 6.31393 52.9895 6.21837 52.9152C6.17058 52.8833 6.02193 52.8515 5.88919 52.8515C5.75646 52.8515 5.67152 52.8302 5.70337 52.809C5.75646 52.7559 6.77053 52.3737 6.84486 52.3737C6.94043 52.3737 6.88733 52.4586 6.73336 52.5489C6.64842 52.6019 6.55816 52.7028 6.54223 52.7718C6.51038 52.8992 6.60594 53.2549 6.79177 53.685L6.88733 53.9079L7.06254 53.8389C7.1581 53.8017 7.46604 53.6796 7.75274 53.5735C8.03413 53.4673 8.27836 53.3452 8.29428 53.3027C8.32614 53.2178 8.01289 52.3524 7.86954 52.1348C7.76336 51.9702 7.57223 51.864 7.29084 51.8162C6.83424 51.7313 6.97759 51.641 7.56161 51.6357L7.93856 51.6304L8.4164 52.9152ZM73.0618 52.4427C73.0353 52.6391 73.0512 52.6816 73.1574 52.7506C73.3963 52.9045 75.9341 53.9132 75.9713 53.8761C76.0456 53.7964 76.2315 53.2709 76.2315 53.1434C76.2315 53.0691 76.1518 52.9205 76.0456 52.8037C75.9448 52.6922 75.8598 52.586 75.8598 52.5701C75.8598 52.5542 76.0244 52.6179 76.2315 52.7081C76.4332 52.8037 76.6031 52.8992 76.6031 52.9205C76.6031 52.9683 75.5466 55.5696 75.5147 55.6068C75.4775 55.6386 74.7767 55.3679 74.7608 55.3148C74.7502 55.2882 74.8457 55.2723 74.9732 55.2829C75.159 55.2988 75.2333 55.2776 75.366 55.1661C75.5306 55.0281 75.7908 54.4547 75.7165 54.391C75.605 54.2955 72.9981 53.2762 72.8707 53.2762C72.7592 53.2762 72.7008 53.3186 72.6318 53.4354C72.5362 53.6053 72.43 53.6531 72.4831 53.4991C72.722 52.8833 73.0247 52.1772 73.0512 52.1932C73.0725 52.2038 73.0725 52.3153 73.0618 52.4427ZM31.3417 57.9055C32.2762 60.5068 33.1522 62.9595 33.2902 63.3471L33.5398 64.0532H32.2443H30.9542L30.6303 63.0816C30.4498 62.5508 30.2852 62.0836 30.264 62.0464C30.2268 61.9933 29.7437 61.9827 28.0235 61.9933L25.8254 62.0093L25.475 63.0179L25.1246 64.0266L23.9725 64.0426L22.8204 64.0532L22.8788 63.9098C22.9744 63.655 26.6484 53.6319 26.7333 53.393L26.813 53.17H28.2252H29.6428L31.3417 57.9055ZM39.6773 56.9127C40.3568 58.9567 40.9249 60.5918 40.9409 60.5493C40.978 60.4538 43.0964 54.046 43.261 53.5257L43.3778 53.17H45.1246H46.8713V58.6116V64.0532H45.6767H44.4821L44.4768 59.976V55.9041L44.1423 56.8597C43.9618 57.3852 43.3406 59.2168 42.7619 60.9369L41.7054 64.0532L40.7975 64.0426L39.8896 64.0266L38.5252 60.0184C37.7766 57.8153 37.1501 55.9837 37.1341 55.9571C37.1235 55.9253 37.1076 57.7356 37.1076 59.976L37.1023 64.0532H36.0139H34.9255V58.6116V53.17L36.6882 53.1806L38.4508 53.1965L39.6773 56.9127ZM55.3661 53.2974C56.6669 53.6584 57.5004 54.46 57.8137 55.6492C57.957 56.1854 57.9676 57.1304 57.8402 57.6294C57.6066 58.5532 57.0332 59.2593 56.205 59.6415C55.4404 59.9972 55.2228 60.029 53.4176 60.0556L51.8089 60.0821V62.0677V64.0532H50.5878H49.3666V58.6063V53.1647L52.1965 53.1806C54.7131 53.2018 55.0582 53.2125 55.3661 53.2974ZM9.74902 55.9943C10.0782 56.6685 10.333 57.2366 10.3118 57.2525C10.2959 57.2684 10.2215 57.1994 10.1472 57.1039C10.0304 56.9552 9.98794 56.934 9.84989 56.9605C9.76495 56.9764 9.11191 57.2791 8.40047 57.6294C7.12625 58.2559 7.10501 58.2665 7.10501 58.4258C7.10501 58.516 7.13156 58.6381 7.1581 58.6965C7.20058 58.7708 7.19527 58.7974 7.14749 58.7974C7.07316 58.7921 6.37765 57.3852 6.42543 57.3375C6.43605 57.3215 6.5263 57.4065 6.62718 57.5286C6.77053 57.7091 6.82362 57.7409 6.94043 57.7197C7.02006 57.7038 7.63594 57.4224 8.31552 57.0932C9.3349 56.5995 9.55789 56.4721 9.58443 56.3659C9.60567 56.2757 9.54196 56.0952 9.36675 55.7448C9.06413 55.1343 8.92078 55.0122 8.44825 54.9856C8.26243 54.9697 8.11377 54.9432 8.11377 54.9219C8.11377 54.8741 8.65 54.7786 8.96325 54.768L9.15438 54.7627L9.74902 55.9943ZM73.0565 55.1396C73.4972 55.2351 73.9007 55.4687 74.2033 55.7979C74.9838 56.6526 74.7608 58.0117 73.752 58.5266C73.0247 58.8983 72.1168 58.7231 71.485 58.0913C70.5187 57.1251 70.9381 55.5059 72.2442 55.1555C72.5575 55.0706 72.7114 55.0653 73.0565 55.1396ZM10.9224 58.1763C11.2356 58.7284 11.3471 59.0522 11.0923 58.7018C11.0126 58.585 10.9277 58.5319 10.8374 58.5319C10.7047 58.5319 8.68717 59.6574 8.28367 59.9547C8.1297 60.0662 8.10846 60.1087 8.1297 60.252C8.14032 60.3423 8.16686 60.4591 8.19341 60.5068C8.21465 60.5599 8.20934 60.6024 8.18279 60.6024C8.11908 60.6024 7.37578 59.3124 7.41295 59.254C7.42357 59.2327 7.4979 59.2858 7.56692 59.3761C7.64125 59.4716 7.74743 59.5406 7.81645 59.5406C7.94918 59.5406 10.3861 58.1497 10.4923 58.0117C10.5613 57.9267 10.556 57.8683 10.4711 57.5764C10.4074 57.3428 10.5613 57.5498 10.9224 58.1763ZM70.2639 58.086C70.1471 58.2559 70.1577 58.3886 70.301 58.516C70.4709 58.6753 72.5362 60.0609 72.6849 60.1193C72.8282 60.1724 73.0671 60.0715 73.1202 59.9388C73.1362 59.891 73.1733 59.8645 73.2052 59.8857C73.2689 59.9229 72.7274 60.7564 72.6371 60.7617C72.6052 60.7617 71.9257 60.6555 71.1293 60.5281C70.3276 60.3954 69.6692 60.2998 69.6586 60.3104C69.6427 60.321 69.9825 60.905 70.4125 61.6005C70.8373 62.3012 71.1877 62.9011 71.1877 62.933C71.1877 63.0339 70.6514 63.7877 70.5983 63.7612C70.5771 63.7453 70.593 63.6656 70.6408 63.586C70.8054 63.2993 70.7417 63.2356 69.4569 62.3596C68.7932 61.9084 68.1986 61.5315 68.1295 61.5155C68.0446 61.4996 67.965 61.5368 67.8694 61.6376C67.7951 61.7226 67.7207 61.7757 67.7048 61.7597C67.6676 61.7226 68.4799 60.4962 68.5437 60.4962C68.6074 60.4962 68.5968 60.5387 68.5012 60.682C68.3313 60.9369 68.4162 61.0218 69.5259 61.781C70.7311 62.5932 70.7364 62.5985 70.6992 62.5348C70.6833 62.5083 70.2957 61.8712 69.8338 61.1174C69.3772 60.3635 69.0162 59.7318 69.0321 59.7158C69.0587 59.6893 72.0637 60.1512 72.2389 60.2042C72.2708 60.2202 72.3026 60.2202 72.3026 60.2096C72.3026 60.1565 70.0621 58.6912 69.9878 58.6912C69.94 58.6912 69.8391 58.7602 69.7542 58.8505C69.4781 59.1478 69.5471 58.9407 69.8975 58.4205C70.094 58.1338 70.2745 57.9161 70.301 57.932C70.3223 57.9427 70.3063 58.017 70.2639 58.086ZM11.6073 59.6946C11.7188 59.753 11.9046 59.9016 12.0214 60.029C12.3028 60.337 13.3381 61.8181 13.2956 61.8606C13.2797 61.8765 13.2053 61.8288 13.1363 61.7544C12.908 61.5049 12.924 61.4996 11.4267 62.5401C10.933 62.8852 10.4764 63.2144 10.4127 63.2728C10.2746 63.4002 10.2587 63.5648 10.3702 63.7134C10.4605 63.8302 10.4711 63.8939 10.4021 63.8939C10.349 63.8939 9.49418 62.6888 9.26057 62.2853C8.94732 61.7491 8.96856 61.2501 9.31366 60.9156C9.45701 60.7776 9.54196 60.7404 9.77557 60.7192C9.97201 60.7033 10.11 60.7245 10.2269 60.7829C10.4127 60.8785 10.4127 60.8785 10.349 60.5865C10.1844 59.891 10.9436 59.3548 11.6073 59.6946ZM68.3366 62.8427C68.772 63.0498 69.2286 63.517 69.3772 63.9204C69.6321 64.5947 69.4993 65.2954 69.0162 65.821C68.687 66.1767 68.3472 66.3094 67.7632 66.3094C67.3385 66.3094 67.2482 66.2935 66.9774 66.1555C66.6111 65.9697 66.1333 65.4813 65.9687 65.1309C65.7935 64.7539 65.8041 64.0266 65.9846 63.655C66.1598 63.2993 66.558 62.9171 66.8978 62.7844C67.3066 62.6251 67.9172 62.6516 68.3366 62.8427ZM14.2353 62.9595C14.8194 63.2356 15.1963 63.8461 15.191 64.5044C15.1857 65.1415 14.899 65.6724 14.3362 66.0705C13.4283 66.7235 12.2178 66.474 11.6975 65.5343C11.5489 65.2689 11.5382 65.2052 11.5382 64.7168C11.5382 64.2602 11.5542 64.154 11.6657 63.947C11.947 63.4108 12.3824 63.0339 12.9186 62.864C13.3009 62.7419 13.8584 62.7844 14.2353 62.9595ZM64.875 65.0937C64.6573 65.3698 64.6732 65.3963 65.9315 66.7076C66.9031 67.7216 66.9615 67.7641 67.2217 67.557C67.296 67.4986 67.3703 67.4668 67.3862 67.4933C67.4287 67.5623 65.9634 68.8949 65.682 69.0435C65.0289 69.3886 64.3122 69.0594 64.3122 68.4171C64.3122 68.279 64.3334 68.1145 64.3547 68.0507C64.3971 67.934 64.3971 67.934 64.1954 68.0136C63.8981 68.141 63.5264 68.0879 63.3194 67.8968C62.9318 67.5305 62.9105 67.0474 63.2556 66.543C63.4149 66.3094 64.9174 64.8814 64.9599 64.9238C64.9758 64.9398 64.9387 65.0141 64.875 65.0937ZM16.6882 65.5078C16.9908 65.7679 17.2298 66.0015 17.2138 66.0228C17.1979 66.0493 17.1183 66.0175 17.0333 65.9591C16.9324 65.8794 16.8422 65.8529 16.7572 65.8741C16.651 65.9007 15.5361 67.127 14.9999 67.8065C14.9043 67.9286 14.9043 67.9286 15.0264 67.8809C15.0954 67.8543 15.7697 67.5464 16.5236 67.1907C17.2828 66.8403 17.92 66.5643 17.9412 66.5749C17.9571 66.5908 17.7766 67.2969 17.5324 68.1516C17.2882 69.001 17.097 69.7071 17.1076 69.7177C17.1448 69.7602 18.7907 67.7959 18.8225 67.6738C18.8438 67.5836 18.8119 67.5092 18.7057 67.3978C18.6314 67.3181 18.5836 67.2385 18.6102 67.2226C18.6633 67.1907 19.5977 67.9817 19.5605 68.0242C19.5446 68.0401 19.4437 68.0083 19.3428 67.9499C19.1995 67.8756 19.1358 67.8649 19.0614 67.9074C18.9712 67.9658 18.2332 68.794 17.4793 69.6965C17.0492 70.2061 17.0015 70.3548 17.2032 70.5672C17.2669 70.6362 17.3041 70.7052 17.2828 70.7211C17.2244 70.7795 16.4758 70.0947 16.4918 70.0044C16.5024 69.9566 16.6882 69.293 16.9059 68.5285C17.1236 67.7641 17.2988 67.127 17.2988 67.1111C17.2988 67.1005 16.667 67.3818 15.8971 67.7375L14.5008 68.3905L14.1345 68.0826C13.9327 67.9127 13.7628 67.7481 13.7522 67.7163C13.7256 67.6367 13.8265 67.6526 13.9009 67.7428C13.9805 67.8384 14.2194 67.849 14.3362 67.7535C14.384 67.7216 14.83 67.2119 15.329 66.628C16.29 65.5025 16.359 65.3804 16.1307 65.184C16.0192 65.0884 15.9874 64.9875 16.0776 65.0194C16.1042 65.0247 16.3803 65.2477 16.6882 65.5078ZM62.2681 67.4349C62.2681 67.4615 62.2044 67.5358 62.1354 67.6048C61.9018 67.8225 61.8752 67.78 62.8734 69.0435C63.9087 70.3654 63.9989 70.4397 64.2644 70.238C64.3812 70.1478 64.4608 70.1371 64.4343 70.2061C64.4078 70.2858 63.2663 71.1724 63.2344 71.1405C63.2185 71.1246 63.2556 71.0609 63.3194 70.9919C63.5317 70.7636 63.4786 70.6468 62.7778 69.7496C61.6363 68.3003 61.6098 68.2737 61.4611 68.2578C61.3815 68.2472 61.2594 68.279 61.185 68.3321C61.1107 68.3799 61.047 68.3958 61.047 68.364C61.047 68.3056 62.1566 67.4031 62.231 67.3978C62.2522 67.3978 62.2681 67.4137 62.2681 67.4349ZM60.7231 68.7303C60.5957 68.8524 60.5639 68.9108 60.5904 69.017C60.6276 69.155 61.992 71.2732 62.1779 71.4697C62.3 71.6024 62.4805 71.6236 62.6398 71.5281C62.6929 71.4909 62.7619 71.4803 62.7831 71.5068C62.8044 71.5281 62.7884 71.5652 62.7406 71.5918C62.6982 71.6183 62.3849 71.82 62.0558 72.0377C61.7213 72.2554 61.4399 72.4253 61.424 72.4093C61.408 72.3987 61.477 72.3085 61.5673 72.2129C61.6629 72.1173 61.7372 71.9793 61.7372 71.9156C61.7372 71.751 60.2188 69.4257 60.0807 69.3833C59.948 69.3408 59.0985 69.9142 58.9339 70.1584C58.833 70.307 58.8118 70.4026 58.8224 70.6733C58.833 71.0131 58.7959 71.1511 58.7428 70.9706C58.695 70.8114 58.4986 70.084 58.4986 70.0628C58.4986 70.0575 59.0189 69.7071 59.656 69.2877C60.7497 68.5604 61.0948 68.3852 60.7231 68.7303ZM21.1798 68.9479C21.5249 69.1072 21.8647 69.4364 22.0293 69.7761C22.1302 69.9779 22.1567 70.1106 22.1567 70.5034C22.1567 70.9282 22.1408 71.0184 21.9922 71.3263C21.7585 71.8147 21.4984 72.0855 21.079 72.2925C20.7657 72.4465 20.6755 72.4677 20.272 72.4677C19.8844 72.4677 19.7782 72.4465 19.518 72.3191C19.1358 72.1333 18.7694 71.7298 18.6473 71.3635C18.5942 71.2042 18.5518 70.9282 18.5518 70.7158C18.5518 70.4079 18.5783 70.2805 18.7163 69.9885C19.1942 68.9639 20.2507 68.5179 21.1798 68.9479ZM57.888 70.5512C57.734 70.6999 57.7022 70.7636 57.734 70.8591C57.75 70.9282 58.0579 71.5652 58.4136 72.2819L59.056 73.5826L59.2419 73.5773C59.3427 73.5773 59.4702 73.556 59.5232 73.5348C59.571 73.5083 59.6135 73.5136 59.6135 73.5401C59.6135 73.5879 57.235 74.7771 57.1394 74.7771C57.0757 74.7771 56.7306 74.14 56.7677 74.0976C56.789 74.0816 56.8792 74.1453 56.9748 74.2356C57.2137 74.4692 57.3677 74.4532 58.0367 74.14L58.5994 73.8746L58.3074 73.2534C58.1481 72.9137 58.0048 72.6217 57.9889 72.6058C57.9464 72.5633 57.1235 72.988 57.0013 73.1154C56.9111 73.211 56.9005 73.2747 56.927 73.4499C56.9429 73.5667 56.9376 73.6622 56.9164 73.6622C56.858 73.6622 56.3536 72.6058 56.3908 72.5633C56.412 72.5474 56.497 72.6058 56.5819 72.7013C56.6669 72.7916 56.7784 72.8659 56.8315 72.8659C56.9589 72.8659 57.8614 72.4359 57.8614 72.3775C57.8614 72.3562 57.7181 72.0483 57.5429 71.6979C57.2934 71.1989 57.1978 71.0609 57.1182 71.0609C56.9589 71.0609 56.1041 71.5068 55.9607 71.6608C55.8758 71.7457 55.8174 71.9103 55.7749 72.1439C55.7431 72.335 55.7006 72.4943 55.6793 72.4943C55.6475 72.4943 55.5095 71.5865 55.5413 71.5599C55.5838 71.5174 57.957 70.3813 58.0101 70.376C58.0473 70.3707 57.9942 70.4557 57.888 70.5512ZM24.4185 70.9069C24.7689 71.0874 25.0503 71.2573 25.0503 71.2838C25.0503 71.3157 25.0078 71.321 24.96 71.2998C24.7477 71.2095 24.5937 71.2148 24.5087 71.3104C24.4291 71.4006 23.0859 73.9383 23.0859 74.002C23.0859 74.0551 23.7177 74.3524 23.8292 74.3524C23.9778 74.3524 24.238 74.2143 24.2964 74.1082C24.3229 74.0604 24.3707 74.0285 24.4026 74.0392C24.4344 74.0498 24.3654 74.2197 24.2486 74.4214L24.0362 74.7824L22.7779 74.1347C22.0877 73.779 21.4984 73.4658 21.4718 73.4446C21.4134 73.3915 21.7055 72.7332 21.7851 72.7332C21.8169 72.7332 21.8276 72.7544 21.8169 72.7863C21.8063 72.8128 21.801 72.9296 21.801 73.0411C21.7957 73.28 21.8913 73.3968 22.2789 73.6198C22.5602 73.779 22.5709 73.7843 22.6452 73.6835C22.831 73.4339 23.9884 71.1087 23.9884 70.9866C23.9884 70.9016 23.93 70.8114 23.8185 70.7211C23.5318 70.4928 23.7548 70.5672 24.4185 70.9069ZM53.7733 72.2766C53.7733 72.3032 53.6884 72.3775 53.5822 72.4359C53.407 72.5421 53.3911 72.5686 53.4176 72.7279C53.4654 73.0198 54.3467 75.4195 54.4476 75.5309C54.5219 75.6159 54.5856 75.6318 54.7396 75.6053C55.1431 75.5416 54.9201 75.6637 54.1609 75.9344C53.1468 76.2954 52.9132 76.322 52.5363 76.1415C51.9098 75.8336 51.793 75.0266 52.3133 74.57C52.4779 74.4267 53.0778 74.1931 53.2796 74.1931C53.322 74.1931 53.3486 74.1613 53.338 74.1241C53.322 74.0922 53.2212 73.8003 53.1097 73.487C52.8814 72.834 52.7699 72.7119 52.4991 72.8022C52.4142 72.834 52.3292 72.8393 52.3133 72.8128C52.2974 72.7916 52.4726 72.7013 52.7009 72.6217C52.9238 72.5421 53.253 72.4199 53.4282 72.3562C53.8105 72.2129 53.7733 72.2182 53.7733 72.2766ZM27.7792 73.7259C27.7952 74.4957 27.827 75.3504 27.8483 75.6265C27.8801 76.099 27.8907 76.1415 28.0394 76.2795C28.1243 76.3591 28.188 76.4388 28.1721 76.4494C28.135 76.4918 26.8342 75.9663 26.813 75.9026C26.8023 75.8654 26.8714 75.8601 27.0094 75.876C27.2058 75.9026 27.2271 75.8919 27.2802 75.7592C27.3386 75.6 27.2908 73.1473 27.2271 73.1048C27.2058 73.0942 26.7917 73.503 26.3086 74.0126C25.3635 75.0107 25.3051 75.1009 25.5547 75.2974C25.629 75.3558 25.6715 75.4195 25.6449 75.4354C25.5812 75.4725 24.6255 75.1009 24.6255 75.0372C24.6255 75.0107 24.7158 74.9894 24.8273 74.9894C25.0131 74.9947 25.0768 74.9364 26.3192 73.6622C27.0306 72.9349 27.6465 72.335 27.6784 72.335C27.7261 72.335 27.7527 72.7119 27.7792 73.7259ZM29.6906 73.1366C30.3171 73.3118 30.4551 73.3968 30.1206 73.3968C29.8605 73.3968 29.8127 73.5136 29.8764 74.0126C29.9029 74.2356 29.9454 74.4373 29.972 74.4586C29.9932 74.4798 30.2958 74.5753 30.6409 74.6762L31.2727 74.8514L31.4267 74.6709C31.8727 74.1453 31.9258 73.9542 31.6603 73.8321C31.3948 73.71 31.5382 73.6728 31.8886 73.7737C32.085 73.8321 32.3346 73.9011 32.4461 73.933C32.6691 73.9914 32.6637 74.0869 32.4408 74.0869C32.3611 74.0869 32.2443 74.1241 32.1806 74.1666C32.1222 74.209 31.5647 74.8673 30.9435 75.6265C30.3224 76.3857 29.7967 77.0068 29.7702 77.0068C29.7118 77.0068 29.6959 76.9006 29.51 75.2283C29.3083 73.4127 29.2818 73.2694 29.08 73.1207C28.9207 73.0039 28.8676 72.8871 29.0004 72.9349C29.0375 72.9508 29.3508 73.0411 29.6906 73.1366ZM51.3364 73.2694C51.278 73.3118 51.2036 73.4339 51.1771 73.5454C51.1452 73.6516 51.0868 74.4692 51.0391 75.3611C50.9488 77.044 50.9329 77.2192 50.8639 77.2192C50.8373 77.2192 50.3117 76.6617 49.6905 75.9822C48.4163 74.5966 48.2623 74.4586 47.9916 74.4586C47.8854 74.4586 47.827 74.4373 47.8588 74.4161C47.965 74.3152 49.1224 73.9277 49.1702 73.9754C49.1968 74.002 49.1755 74.0392 49.1065 74.0604C48.9472 74.1082 48.8623 74.2834 48.9472 74.3948C49.2021 74.7293 49.4888 75.0425 49.5419 75.0425C49.5737 75.0425 49.8816 74.9417 50.2214 74.8196L50.8426 74.6019L50.8692 74.1984C50.901 73.6516 50.8585 73.556 50.5878 73.556C50.471 73.556 50.3754 73.5401 50.3754 73.5136C50.3754 73.4552 51.4054 73.0942 51.4319 73.1473C51.4426 73.1738 51.4001 73.2269 51.3364 73.2694ZM47.6146 74.3524C47.6146 74.3789 47.5562 74.4055 47.4819 74.4055C47.3438 74.4055 47.1368 74.57 47.1368 74.6815C47.1368 74.8514 47.4075 77.4634 47.4341 77.5749C47.4766 77.7288 47.604 77.8031 47.8323 77.8031C47.9331 77.8031 47.9862 77.8244 47.9597 77.8509C47.8907 77.904 46.712 78.0155 46.1652 78.0155C45.5068 78.0155 45.1352 77.7501 45.0821 77.251C45.0396 76.8847 45.2095 76.5662 45.5387 76.3857C45.6873 76.306 45.8094 76.2211 45.8094 76.1999C45.8094 76.1308 44.9069 75.1222 44.6945 74.9523C44.5777 74.862 44.3866 74.7718 44.2698 74.7505C43.9247 74.6921 44.0255 74.6337 44.5299 74.5913L45.0024 74.5541L45.1883 74.7612C46.4041 76.1255 46.3563 76.0778 46.5421 76.0724C46.6377 76.0671 46.7226 76.0565 46.7386 76.0459C46.7492 76.0353 46.7226 75.7274 46.6855 75.3611C46.6005 74.6284 46.5421 74.5116 46.2183 74.5116C45.8838 74.5116 46.1546 74.432 46.6749 74.3736C47.4022 74.294 47.6146 74.2887 47.6146 74.3524ZM43.5265 74.7134C43.5265 74.7399 43.4309 74.7983 43.3141 74.8461C43.1123 74.9204 43.1017 74.9417 43.1017 75.1487C43.1017 75.3292 43.5159 78.0686 43.553 78.1111C43.5743 78.1323 44.137 78.0155 44.2857 77.9571C44.4503 77.8881 44.5883 77.6651 44.5883 77.4581C44.5883 77.3837 44.6096 77.3253 44.6361 77.3253C44.6839 77.3253 44.7476 77.7023 44.7476 77.9836V78.1535L43.3141 78.3818C42.523 78.5092 41.87 78.6048 41.8594 78.5942C41.8381 78.5676 41.7213 77.9624 41.7213 77.8722C41.7213 77.835 41.7479 77.8031 41.7744 77.8031C41.8063 77.8031 41.8275 77.8403 41.8275 77.8881C41.8275 77.9306 41.9018 78.042 41.9921 78.1323C42.1514 78.2916 42.1567 78.2969 42.5602 78.2597C42.7832 78.2438 42.9796 78.2119 43.0009 78.1854C43.0221 78.1641 42.9265 77.4687 42.7885 76.6458C42.5177 74.9894 42.5071 74.9523 42.162 75.0107C42.0664 75.0213 41.9868 75.016 41.9868 74.9894C41.9868 74.9364 42.0133 74.931 42.9159 74.7824C43.2398 74.7293 43.5052 74.6815 43.5159 74.6762C43.5212 74.6762 43.5265 74.6921 43.5265 74.7134ZM40.0967 74.862C40.394 74.9682 40.5586 74.9576 40.5905 74.8302C40.6595 74.5594 40.7126 74.7824 40.7126 75.3611C40.7126 75.7114 40.6913 75.9981 40.6701 75.9981C40.6489 75.9981 40.6011 75.8866 40.5639 75.7539C40.4312 75.2549 40.0701 74.9682 39.5711 74.9682C39.0561 74.9682 38.7216 75.308 38.8543 75.7008C38.9287 75.9344 39.0402 76.03 39.725 76.4281C40.6701 76.9856 40.9143 77.3731 40.6701 77.9199C40.4312 78.4614 39.7728 78.6738 39.1357 78.403C38.8968 78.3075 38.7588 78.3181 38.7216 78.4402C38.6367 78.7003 38.5889 78.4986 38.5889 77.9093C38.5889 77.5589 38.6101 77.2723 38.6313 77.2723C38.6579 77.2723 38.7057 77.3944 38.7428 77.543C38.9234 78.2332 39.7834 78.557 40.187 78.0898C40.325 77.9359 40.3568 77.7554 40.2878 77.5855C40.2241 77.4368 39.7569 77.0864 39.3322 76.8741C38.6473 76.529 38.3659 76.1946 38.3659 75.7327C38.3765 74.9523 39.1835 74.5435 40.0967 74.862Z" fill="black"/>
<path d="M41.8437 3.90394C41.6632 4.28618 41.5358 4.60471 41.557 4.61533C41.6048 4.64718 42.6719 4.67372 42.6879 4.64187C42.7038 4.61533 42.2472 3.30404 42.2047 3.25626C42.1888 3.23502 42.0242 3.52701 41.8437 3.90394Z" fill="black"/>
<path d="M52.7871 4.77469C52.5164 4.89679 52.235 5.22063 52.0385 5.62941C51.4917 6.78144 51.6722 7.73703 52.4792 7.97062C52.7394 8.04495 52.7925 8.04495 53.0526 7.97062C53.557 7.82198 53.987 7.20615 54.1782 6.35673C54.3321 5.66658 54.2047 5.18347 53.7853 4.89148C53.5198 4.70567 53.0579 4.65258 52.7871 4.77469Z" fill="black"/>
<path d="M22.4219 7.19476C22.2786 7.25316 22.0874 7.35934 21.9972 7.42835L21.8379 7.56108L22.1034 8.06542C22.5175 8.86175 22.4697 8.82459 22.8626 8.61754C23.0484 8.52729 23.282 8.3521 23.3882 8.24061C23.5581 8.04949 23.574 8.01233 23.5528 7.76812C23.5209 7.47613 23.3776 7.27971 23.1015 7.16291C22.8785 7.06735 22.7405 7.07266 22.4219 7.19476Z" fill="black"/>
<path d="M23.3253 8.61805C23.1819 8.67114 22.9589 8.77731 22.8368 8.85695L22.6191 8.99498L22.9642 9.63735C23.1554 9.98774 23.3412 10.2744 23.3784 10.2744C23.4845 10.2744 23.819 10.1205 24.0473 9.97181C24.3287 9.786 24.4668 9.5471 24.4668 9.2498C24.4668 8.96843 24.2862 8.71361 24.0049 8.59681C23.7819 8.50125 23.6491 8.50656 23.3253 8.61805Z" fill="black"/>
<path d="M61.3013 9.00003C60.8766 9.12744 60.3722 9.63709 60.059 10.2582C59.8944 10.5768 59.8519 10.7307 59.836 11.0227C59.8041 11.5164 59.9634 11.7978 60.3828 12.0049C60.7598 12.1854 61.089 12.1641 61.4553 11.9411C61.9278 11.6492 62.5331 10.736 62.618 10.1892C62.7295 9.44067 62.0021 8.78768 61.3013 9.00003Z" fill="black"/>
<path d="M19.0515 9.19169C18.6427 9.36688 18.3984 9.72258 18.3984 10.142C18.3984 10.9649 19.2054 12.0426 19.97 12.2496C20.623 12.4195 21.2973 11.7824 21.2123 11.071C21.1433 10.4764 20.4213 9.48899 19.8744 9.23416C19.5665 9.09082 19.3169 9.07489 19.0515 9.19169Z" fill="black"/>
<path d="M64.4496 11.8718C64.2107 12.1373 64.0195 12.3868 64.0195 12.424C64.0195 12.5301 64.4921 12.9283 64.7575 13.0504C64.954 13.1354 65.023 13.1407 65.1823 13.0929C65.6654 12.9495 65.8512 12.4505 65.5911 12.0046C65.4636 11.7869 65.0283 11.3887 64.9168 11.3887C64.8956 11.3887 64.6832 11.6064 64.4496 11.8718Z" fill="black"/>
<path d="M63.6994 12.7168C63.6569 12.7699 63.4445 13.0247 63.2269 13.2743L62.834 13.7308L63.0941 13.9963C63.4233 14.336 63.6782 14.4688 63.9967 14.4688C64.2144 14.4688 64.2675 14.4422 64.448 14.2617C64.6497 14.06 64.6869 13.9591 64.6551 13.6193C64.6338 13.3751 64.4427 13.1044 64.0657 12.7911C63.8162 12.5841 63.8056 12.5788 63.6994 12.7168Z" fill="black"/>
<path d="M11.9009 15.562C11.5982 15.7425 11.3965 16.0876 11.3965 16.4327C11.3965 16.8096 11.577 17.1441 12.0177 17.5794C12.7291 18.2855 13.4936 18.5138 13.9927 18.1687C14.4228 17.8714 14.5873 17.2609 14.359 16.7884C14.1414 16.3424 13.3821 15.6735 12.8937 15.5036C12.5433 15.3815 12.161 15.4028 11.9009 15.562Z" fill="black"/>
<path d="M42.0019 20.6851C40.9082 20.8762 39.8994 21.6672 39.411 22.7237C39.1774 23.2333 39.0977 23.6421 39.1083 24.2579C39.1243 25.1286 39.3844 25.8559 39.9154 26.4823C41.6409 28.5263 44.8476 28.0591 45.936 25.6011C46.4139 24.5181 46.2493 23.0528 45.5485 22.1131C45.0494 21.4389 44.2371 20.8921 43.4991 20.7275C43.1381 20.6479 42.3417 20.6214 42.0019 20.6851Z" fill="black"/>
<path d="M37.1306 28.0486C37.051 28.245 36.8864 28.6273 36.7749 28.9033L36.5625 29.4024L37.0085 29.8377L37.4491 30.2783L38.288 29.9704C38.7499 29.8005 39.1428 29.6519 39.1587 29.6306C39.18 29.6147 39.1481 29.5669 39.095 29.5245C38.9994 29.4554 39.0048 29.4289 39.1906 28.8715C39.2968 28.5476 39.387 28.2556 39.387 28.2132C39.3817 28.1707 39.2808 28.0539 39.1587 27.9477L38.9304 27.7513L38.357 28.0114C38.0438 28.1548 37.7571 28.2716 37.7199 28.2716C37.6881 28.2716 37.6137 28.1919 37.5553 28.0964C37.5022 28.0061 37.4173 27.8734 37.3695 27.8097C37.2792 27.6929 37.2739 27.6929 37.1306 28.0486Z" fill="black"/>
<path d="M28.9788 31.2981C28.7027 31.3565 28.432 31.4255 28.3842 31.4573C28.3311 31.4839 28.2568 31.5104 28.2143 31.5104C28.14 31.5104 27.2746 31.9245 27.2268 31.9829C27.2108 32.0041 27.0781 32.0944 26.9241 32.1899C26.6215 32.3864 25.9048 33.1031 25.6499 33.48C24.5721 35.0408 24.4129 37.09 25.2305 38.8048C25.5915 39.5587 26.2446 40.3338 26.9241 40.8169C27.2905 41.077 27.9594 41.438 28.0816 41.438C28.124 41.438 28.1824 41.4592 28.209 41.4805C28.278 41.5389 28.5753 41.6238 29.1116 41.7353C29.4407 41.8043 29.6903 41.8149 30.2265 41.7884C30.9061 41.7565 31.2883 41.6822 31.9148 41.4433C33.2368 40.9496 34.4102 39.7763 34.9358 38.4279C35.9923 35.7044 34.6385 32.62 31.9255 31.5794C31.3043 31.3405 31.1769 31.3087 30.6512 31.245C29.9876 31.1706 29.5628 31.1866 28.9788 31.2981Z" fill="black"/>
<path d="M51.2145 34.2701C49.9881 34.4666 48.9422 35.0081 48.0927 35.9C47.376 36.6379 47.0415 37.2219 46.6327 38.4217C46.2398 39.5684 46.1548 40.2851 46.3141 41.1982C46.5849 42.7378 47.6574 44.134 49.1492 44.8879C49.643 45.1321 50.3438 45.3922 50.827 45.5037C51.4375 45.6471 52.5737 45.6364 53.1896 45.4878C53.8108 45.3285 54.4373 45.0578 54.9576 44.7127C55.4407 44.3888 56.1893 43.6456 56.4866 43.189C57.8139 41.1717 57.8139 38.6765 56.4866 36.6591C56.1893 36.2026 55.4407 35.4593 54.9576 35.1355C54.4426 34.7957 53.8108 34.5144 53.2161 34.371C52.7277 34.2489 51.6711 34.1958 51.2145 34.2701Z" fill="black"/>
<path d="M42.2288 37.0995C42.2128 37.2482 42.1969 37.6304 42.1969 37.9383V38.5011L41.8412 38.5595C41.6394 38.5966 41.0607 38.671 40.551 38.7347C40.0414 38.7931 39.6166 38.8515 39.606 38.8621C39.5954 38.8727 39.5529 39.032 39.5104 39.2125C39.468 39.3983 39.3989 39.6425 39.3565 39.754C39.2184 40.1043 39.1547 40.0194 40.0998 40.7998C40.3918 41.044 40.6732 41.2776 40.7263 41.3254C40.8324 41.4156 40.8324 41.3625 40.7316 39.6531L40.705 39.17L40.9068 39.1116C41.0183 39.0797 41.2306 39.0373 41.374 39.0213C41.6129 38.9895 42.6004 38.7877 43.0198 38.6869C43.1579 38.6497 43.1844 38.6126 43.2163 38.4108C43.2375 38.2781 43.2853 38.0551 43.3278 37.9065L43.3968 37.6463L43.1048 37.4287C42.9402 37.3119 42.6854 37.1261 42.5367 37.0146L42.2659 36.8182L42.2288 37.0995Z" fill="black"/>
<path d="M73.3269 23.2439C72.9658 23.4244 72.6738 23.5942 72.6738 23.6261C72.6738 23.6526 72.7216 23.7801 72.78 23.9022C73.0242 24.4437 73.6667 24.4914 74.0967 24.003C74.2613 23.8119 74.2931 23.7057 74.2719 23.4403C74.256 23.3023 74.0595 22.9094 74.0065 22.9147C73.9905 22.9147 73.6826 23.0634 73.3269 23.2439Z" fill="black"/>
<path d="M6.20312 25.872C6.20312 25.9304 7.15348 26.9443 7.21188 26.9443C7.24905 26.9443 7.70564 25.9357 7.6791 25.9092C7.63131 25.872 6.20312 25.8296 6.20312 25.872Z" fill="black"/>
<path d="M73.5295 26.5304C73.5932 26.6844 73.6887 26.9392 73.7471 27.0878L73.8586 27.3691L74.1029 27.1621C74.2356 27.0453 74.4851 26.8118 74.655 26.6366L74.9683 26.3234L74.7612 26.2915C74.6497 26.2703 74.3046 26.2544 73.9914 26.2544H73.418L73.5295 26.5304Z" fill="black"/>
<path d="M75.8863 29.7422C75.5093 29.8431 75.1908 29.9333 75.1801 29.944C75.1748 29.9493 75.2173 30.0873 75.2757 30.2519C75.4031 30.5969 75.6633 30.8518 75.934 30.8995C76.3322 30.9792 76.8154 30.5969 76.8154 30.2041C76.8154 30.0236 76.6667 29.5458 76.6136 29.5511C76.5924 29.5511 76.2685 29.6413 75.8863 29.7422Z" fill="black"/>
<path d="M3.12301 41.4429C2.77791 41.581 2.61332 41.9101 2.67173 42.3401L2.70889 42.6055H2.95312C3.09116 42.6055 3.43626 42.5895 3.72827 42.5683L4.24857 42.5365L4.21141 42.2657C4.12646 41.6128 3.63801 41.2412 3.12301 41.4429Z" fill="black"/>
<path d="M4.33157 45.6948C3.98647 45.9072 3.70508 46.093 3.70508 46.1089C3.70508 46.1354 5.01115 46.4805 5.11734 46.4805C5.15981 46.4805 5.1545 46.3265 5.10141 45.9868C4.98992 45.233 5.04832 45.2542 4.33157 45.6948Z" fill="black"/>
<path d="M75.906 46.2696C75.8369 46.7686 75.8369 46.8535 75.9007 46.8535C76.0228 46.8535 77.2917 46.5191 77.2917 46.4872C77.2917 46.4607 76.1343 45.7441 76.0228 45.6963C76.0015 45.691 75.9484 45.9458 75.906 46.2696Z" fill="black"/>
<path d="M4.15821 48.4236C3.81311 48.604 3.66976 48.8695 3.73347 49.2357C3.79718 49.6233 3.80249 49.6286 4.6095 49.4322L5.32625 49.2623L5.31032 49.0553C5.28377 48.7633 5.16697 48.535 4.98646 48.4289C4.79532 48.3174 4.37058 48.3121 4.15821 48.4236Z" fill="black"/>
<path d="M27.2523 57.799C26.8222 59.0625 26.4559 60.1296 26.44 60.1615C26.4241 60.2145 26.7638 60.2305 28.0381 60.2305H29.6627L28.8929 57.937C28.4681 56.6735 28.1018 55.6064 28.0805 55.5693C28.0593 55.5321 27.7142 56.4559 27.2523 57.799Z" fill="black"/>
<path d="M51.8511 55.1133C51.8245 55.1345 51.8086 55.8565 51.8086 56.7165V58.2773L53.0987 58.2561C54.511 58.2296 54.6915 58.1977 55.0579 57.8951C55.164 57.8049 55.318 57.5978 55.403 57.4332C55.5304 57.1678 55.5516 57.0669 55.5516 56.6475C55.5516 56.2281 55.5304 56.1273 55.403 55.8618C55.2437 55.5486 54.9941 55.3309 54.6225 55.1876C54.4154 55.1079 51.9201 55.0389 51.8511 55.1133Z" fill="black"/>
<path d="M71.8628 55.6379C71.6027 55.7282 71.4328 55.8875 71.2947 56.1688C70.9868 56.8059 71.3637 57.4748 72.3035 57.942C72.8556 58.2127 73.36 58.3189 73.6786 58.2234C74.2998 58.0322 74.6024 57.3368 74.3157 56.7422C74.1086 56.3175 73.3759 55.8184 72.6964 55.6379C72.3194 55.5424 72.1283 55.5424 71.8628 55.6379Z" fill="black"/>
<path d="M11.0129 60.2841C10.7952 60.4753 10.6943 60.746 10.7421 60.9902C10.7952 61.2185 10.9917 61.6007 11.1775 61.8131L11.3261 61.9883L11.9208 61.5742C12.5844 61.1123 12.5738 61.1442 12.2924 60.6929C11.942 60.1249 11.3952 59.9497 11.0129 60.2841Z" fill="black"/>
<path d="M9.75318 61.2662C9.33375 61.4945 9.29128 62.0838 9.66824 62.5722C9.94963 62.9438 9.94963 62.9438 10.5177 62.5456C10.7991 62.3492 11.0433 62.1634 11.0646 62.1368C11.1124 62.0519 10.6398 61.3883 10.4593 61.2768C10.2682 61.1706 9.94432 61.16 9.75318 61.2662Z" fill="black"/>
<path d="M66.6905 63.1561C66.3667 63.3154 66.1808 63.618 66.1543 64.0215C66.1224 64.4727 66.2817 64.77 66.7967 65.2531C67.5135 65.9221 68.1665 66.1238 68.6656 65.8371C69.1222 65.5664 69.308 65.0886 69.1487 64.6002C68.9098 63.8782 67.8373 63.0447 67.1365 63.0447C67.0144 63.0447 66.8126 63.0924 66.6905 63.1561Z" fill="black"/>
<path d="M13.2054 63.2938C12.8497 63.469 12.1064 64.2017 11.9471 64.5361C11.7719 64.8971 11.7879 65.2953 11.9896 65.5979C12.4144 66.2456 13.2054 66.2297 14.0071 65.5607C14.777 64.9184 15.0477 64.2017 14.7239 63.6495C14.4319 63.1505 13.7948 63.0019 13.2054 63.2938Z" fill="black"/>
<path d="M64.0365 66.0175C63.8825 66.1343 63.6967 66.336 63.6223 66.4634C63.2029 67.1801 63.8666 67.8756 64.6258 67.504C64.8594 67.3925 65.3638 66.9412 65.3372 66.8669C65.3107 66.7979 64.3869 65.8051 64.3497 65.8051C64.3285 65.8051 64.1904 65.9007 64.0365 66.0175Z" fill="black"/>
<path d="M65.1465 67.3923C64.7271 67.8064 64.6474 68.0294 64.8067 68.3638C65.0563 68.8788 65.5872 68.9213 66.134 68.4753C66.5482 68.1356 66.5428 68.109 66.0385 67.5728C65.7942 67.318 65.5712 67.1003 65.5341 67.0897C65.4969 67.0791 65.3217 67.2171 65.1465 67.3923Z" fill="black"/>
<path d="M20.3358 69.1063C20.0756 69.1965 19.6987 69.5522 19.4173 69.9875C18.8279 70.8847 18.8279 71.6068 19.412 72.0315C19.7146 72.2544 20.1128 72.2863 20.4526 72.127C20.9145 71.8987 21.4932 71.1449 21.6737 70.5344C21.7905 70.1415 21.7799 69.9026 21.6418 69.6265C21.4082 69.1647 20.8348 68.9364 20.3358 69.1063Z" fill="black"/>
<path d="M52.9502 74.4537C52.4405 74.6873 52.414 75.3562 52.8971 75.7809C53.083 75.9402 53.1254 75.9561 53.3697 75.9349C53.5183 75.9243 53.7042 75.8712 53.7785 75.8234L53.9165 75.7332L53.6723 75.043C53.3962 74.2679 53.3803 74.2573 52.9502 74.4537Z" fill="black"/>
<path d="M29.9654 74.7183C29.9547 74.7448 30.114 76.1305 30.1406 76.2048C30.1459 76.226 31.0962 75.0793 31.1015 75.0421C31.1015 74.9944 29.9866 74.6758 29.9654 74.7183Z" fill="black"/>
<path d="M50.2427 75.0218C49.9825 75.1173 49.7436 75.2076 49.7171 75.2182C49.6905 75.2288 49.9029 75.4943 50.1949 75.8075L50.7205 76.3809L50.7577 76.0199C50.8214 75.3244 50.832 74.8307 50.7736 74.836C50.7471 74.836 50.5082 74.9209 50.2427 75.0218Z" fill="black"/>
<path d="M46.1472 76.3652C45.7225 76.5563 45.5632 76.9333 45.7278 77.358C45.8605 77.7084 46.057 77.8145 46.5082 77.7933C46.7047 77.7827 46.8746 77.7615 46.8958 77.7455C46.9224 77.7137 46.848 76.8324 46.7843 76.4342C46.7631 76.2803 46.7419 76.2644 46.5613 76.2644C46.4552 76.2644 46.2693 76.3121 46.1472 76.3652Z" fill="black"/>
</svg>
